<svg version="1.1" xmlns="http://www.w3.org/2000/svg" viewBox="0 0 405.0869948999707 323.7487243412595" width="810.1739897999414" height="647.497448682519" filter="invert(93%) hue-rotate(180deg)">
  <!-- svg-source:excalidraw -->
  
  <defs>
    <style class="style-fonts">
      @font-face {
        font-family: "Virgil";
        src: url("https://excalidraw.com/Virgil.woff2");
      }
      @font-face {
        font-family: "Cascadia";
        src: url("https://excalidraw.com/Cascadia.woff2");
      }
    </style>
    <clipPath id="aJifjq6F5C2Sw0LjvidZD">
            <rect transform="translate(0 0) rotate(0 202.54349744998535 161.87436217062975)" width="405.08699489997053" height="323.7487243412595">
          </rect>
        </clipPath>
  </defs>
  <rect x="0" y="0" width="405.0869948999707" height="323.7487243412595" fill="#ffffff"></rect><g clip-path="url(#aJifjq6F5C2Sw0LjvidZD)"><g stroke-linecap="round" transform="translate(14.503217292555746 15.07193793997476) rotate(0 187.9979916107909 138.54881491237484)"><path d="M0 0 C127.52 0, 255.04 0, 376 0 M0 0 C95.93 0, 191.86 0, 376 0 M376 0 C376 82.37, 376 164.74, 376 277.1 M376 0 C376 64.47, 376 128.93, 376 277.1 M376 277.1 C265.02 277.1, 154.04 277.1, 0 277.1 M376 277.1 C276.44 277.1, 176.88 277.1, 0 277.1 M0 277.1 C0 169.54, 0 61.98, 0 0 M0 277.1 C0 219.78, 0 162.47, 0 0" stroke="#1e1e1e" stroke-width="1" fill="none"></path></g></g><g clip-path="url(#aJifjq6F5C2Sw0LjvidZD)"><g stroke-linecap="round" transform="translate(23.808654928027863 25.961143204057407) rotate(0 87.32374058685673 91.19697101611246)"><path d="M7.86 8.16 C7.86 8.16, 7.86 8.16, 7.86 8.16 M7.86 8.16 C7.86 8.16, 7.86 8.16, 7.86 8.16 M3.66 19.09 C6.93 15.33, 10.19 11.58, 18.1 2.48 M3.66 19.09 C7.95 14.15, 12.25 9.21, 18.1 2.48 M2.75 26.24 C9.9 18.01, 17.05 9.79, 25.05 0.58 M2.75 26.24 C10.44 17.38, 18.14 8.53, 25.05 0.58 M2.48 32.64 C11.6 22.14, 20.72 11.65, 30.7 0.18 M2.48 32.64 C13.4 20.08, 24.31 7.53, 30.7 0.18 M2.88 38.28 C10.24 29.82, 17.59 21.35, 34.37 2.05 M2.88 38.28 C10.27 29.78, 17.66 21.28, 34.37 2.05 M2.62 44.68 C16.72 28.46, 30.82 12.23, 39.36 2.41 M2.62 44.68 C16.18 29.08, 29.73 13.48, 39.36 2.41 M2.36 51.07 C11.34 40.74, 20.33 30.4, 45 2.02 M2.36 51.07 C11.64 40.39, 20.92 29.72, 45 2.02 M2.75 56.72 C18.23 38.91, 33.7 21.11, 49.99 2.38 M2.75 56.72 C18.5 38.6, 34.25 20.48, 49.99 2.38 M2.49 63.11 C18.23 45.01, 33.97 26.9, 55.63 1.98 M2.49 63.11 C16.95 46.48, 31.42 29.84, 55.63 1.98 M2.23 69.51 C19.64 49.48, 37.06 29.45, 60.62 2.34 M2.23 69.51 C23.91 44.57, 45.59 19.64, 60.62 2.34 M2.62 75.16 C22.21 52.62, 41.8 30.09, 66.26 1.95 M2.62 75.16 C17.1 58.5, 31.59 41.84, 66.26 1.95 M2.36 81.55 C27.34 52.81, 52.33 24.07, 71.25 2.31 M2.36 81.55 C21.33 59.73, 40.31 37.9, 71.25 2.31 M2.1 87.95 C27.28 58.98, 52.46 30.02, 76.89 1.91 M2.1 87.95 C21.92 65.15, 41.74 42.35, 76.89 1.91 M2.49 93.59 C19.27 74.3, 36.04 55.01, 81.88 2.27 M2.49 93.59 C21.56 71.66, 40.63 49.72, 81.88 2.27 M2.23 99.99 C23.18 75.89, 44.13 51.79, 86.86 2.63 M2.23 99.99 C20.6 78.86, 38.97 57.73, 86.86 2.63 M2.63 105.64 C25.81 78.97, 48.99 52.3, 92.51 2.24 M2.63 105.64 C35.13 68.25, 67.62 30.87, 92.51 2.24 M2.37 112.03 C38.36 70.63, 74.35 29.22, 97.49 2.6 M2.37 112.03 C27.86 82.71, 53.35 53.38, 97.49 2.6 M2.1 118.43 C36.45 78.93, 70.79 39.42, 103.14 2.21 M2.1 118.43 C36.15 79.27, 70.19 40.1, 103.14 2.21 M2.5 124.07 C27.92 94.83, 53.34 65.58, 108.12 2.57 M2.5 124.07 C29.28 93.27, 56.06 62.46, 108.12 2.57 M2.24 130.47 C26.54 102.52, 50.84 74.56, 113.77 2.17 M2.24 130.47 C43 83.58, 83.76 36.7, 113.77 2.17 M1.98 136.87 C27.6 107.39, 53.23 77.91, 118.76 2.53 M1.98 136.87 C44.14 88.36, 86.31 39.86, 118.76 2.53 M2.37 142.51 C36.06 103.76, 69.75 65.01, 124.4 2.14 M2.37 142.51 C32.59 107.75, 62.81 72.98, 124.4 2.14 M0.14 151.17 C35.43 110.58, 70.71 69.99, 129.39 2.5 M0.14 151.17 C29.79 117.06, 59.45 82.95, 129.39 2.5 M0.54 156.82 C30.25 122.63, 59.97 88.45, 134.37 2.86 M0.54 156.82 C38.78 112.83, 77.02 68.84, 134.37 2.86 M2.9 160.2 C34.87 123.42, 66.85 86.63, 140.02 2.46 M2.9 160.2 C37.05 120.91, 71.21 81.62, 140.02 2.46 M3.29 165.84 C58.11 102.79, 112.92 39.73, 145 2.82 M3.29 165.84 C57.63 103.34, 111.96 40.83, 145 2.82 M5 169.97 C49.66 118.6, 94.31 67.23, 151.3 1.67 M5 169.97 C43.34 125.87, 81.68 81.76, 151.3 1.67 M7.36 173.35 C40.7 135, 74.04 96.65, 155.63 2.79 M7.36 173.35 C58.67 114.34, 109.97 55.32, 155.63 2.79 M10.38 175.98 C65.16 112.96, 119.94 49.95, 159.31 4.66 M10.38 175.98 C49.39 131.1, 88.4 86.23, 159.31 4.66 M13.4 178.6 C45.56 141.6, 77.72 104.6, 163.64 5.77 M13.4 178.6 C70.55 112.86, 127.7 47.12, 163.64 5.77 M17.08 180.47 C57.93 133.48, 98.77 86.49, 166.66 8.4 M17.08 180.47 C61.03 129.91, 104.98 79.34, 166.66 8.4 M20.75 182.34 C73.74 121.38, 126.74 60.42, 169.68 11.02 M20.75 182.34 C79.57 114.68, 138.38 47.02, 169.68 11.02 M25.74 182.7 C76.45 124.37, 127.15 66.03, 172.04 14.4 M25.74 182.7 C77.6 123.04, 129.46 63.37, 172.04 14.4 M30.72 183.06 C70.04 137.83, 109.36 92.6, 173.75 18.53 M30.72 183.06 C73.59 133.75, 116.45 84.45, 173.75 18.53 M34.4 184.93 C74.74 138.52, 115.08 92.11, 174.8 23.42 M34.4 184.93 C75.42 137.74, 116.44 90.56, 174.8 23.42 M40.04 184.53 C83.85 134.14, 127.66 83.75, 177.16 26.8 M40.04 184.53 C82.02 136.24, 124 87.95, 177.16 26.8 M45.03 184.89 C80.16 144.48, 115.29 104.06, 176.24 33.95 M45.03 184.89 C85.27 138.61, 125.5 92.32, 176.24 33.95 M50.67 184.5 C83.58 146.64, 116.49 108.78, 176.64 39.6 M50.67 184.5 C79.33 151.54, 107.98 118.58, 176.64 39.6 M55.66 184.86 C83.87 152.41, 112.09 119.95, 176.37 45.99 M55.66 184.86 C85.76 150.23, 115.87 115.6, 176.37 45.99 M61.3 184.47 C106.95 131.96, 152.59 79.45, 176.77 51.64 M61.3 184.47 C104.98 134.22, 148.66 83.97, 176.77 51.64 M66.29 184.83 C88.83 158.89, 111.38 132.96, 176.51 58.03 M66.29 184.83 C101.92 143.83, 137.56 102.84, 176.51 58.03 M71.93 184.43 C96.98 155.61, 122.03 126.8, 176.25 64.43 M71.93 184.43 C100.6 151.45, 129.28 118.47, 176.25 64.43 M76.92 184.79 C114.11 142.01, 151.3 99.22, 176.64 70.08 M76.92 184.79 C115.1 140.87, 153.29 96.94, 176.64 70.08 M82.56 184.4 C104.87 158.74, 127.18 133.08, 176.38 76.47 M82.56 184.4 C113.99 148.25, 145.41 112.09, 176.38 76.47 M87.55 184.76 C105.86 163.7, 124.16 142.64, 176.77 82.12 M87.55 184.76 C108.45 160.71, 129.36 136.66, 176.77 82.12 M93.19 184.36 C114.32 160.06, 135.45 135.76, 176.51 88.51 M93.19 184.36 C124.69 148.13, 156.18 111.9, 176.51 88.51 M98.18 184.72 C124.79 154.11, 151.4 123.5, 176.25 94.91 M98.18 184.72 C124.34 154.63, 150.5 124.53, 176.25 94.91 M103.82 184.33 C123.95 161.18, 144.07 138.02, 176.65 100.56 M103.82 184.33 C127.48 157.12, 151.13 129.9, 176.65 100.56 M108.81 184.69 C128.6 161.92, 148.4 139.15, 176.38 106.95 M108.81 184.69 C128.71 161.79, 148.62 138.89, 176.38 106.95 M113.8 185.05 C133.86 161.97, 153.91 138.9, 176.78 112.6 M113.8 185.05 C132.56 163.46, 151.33 141.87, 176.78 112.6 M119.44 184.65 C139.3 161.8, 159.17 138.95, 176.52 118.99 M119.44 184.65 C140.75 160.14, 162.06 135.62, 176.52 118.99 M124.43 185.01 C140.78 166.2, 157.14 147.38, 176.26 125.39 M124.43 185.01 C141.09 165.84, 157.75 146.68, 176.26 125.39 M130.07 184.62 C142.46 170.36, 154.85 156.11, 176.65 131.03 M130.07 184.62 C147.95 164.05, 165.84 143.47, 176.65 131.03 M135.06 184.98 C144.44 174.19, 153.81 163.4, 176.39 137.43 M135.06 184.98 C144.19 174.47, 153.33 163.96, 176.39 137.43 M140.7 184.58 C154.42 168.8, 168.15 153.01, 176.78 143.08 M140.7 184.58 C154.78 168.39, 168.85 152.2, 176.78 143.08 M145.69 184.94 C155.58 173.57, 165.47 162.19, 175.21 150.98 M145.69 184.94 C155.24 173.95, 164.8 162.96, 175.21 150.98 M151.99 183.8 C158.63 176.16, 165.27 168.52, 174.29 158.14 M151.99 183.8 C156.61 178.48, 161.23 173.16, 174.29 158.14 M162.22 178.12 C166.08 173.68, 169.94 169.24, 173.37 165.29 M162.22 178.12 C166.22 173.52, 170.21 168.93, 173.37 165.29" stroke="#ffc9c9" stroke-width="0.5" fill="none"></path><path d="M32 0 M32 0 C76.09 0, 120.18 0, 142.65 0 M32 0 C65.48 0, 98.97 0, 142.65 0 M142.65 0 C163.98 0, 174.65 10.67, 174.65 32 M142.65 0 C163.98 0, 174.65 10.67, 174.65 32 M174.65 32 C174.65 71.3, 174.65 110.6, 174.65 150.39 M174.65 32 C174.65 77.34, 174.65 122.69, 174.65 150.39 M174.65 150.39 C174.65 171.73, 163.98 182.39, 142.65 182.39 M174.65 150.39 C174.65 171.73, 163.98 182.39, 142.65 182.39 M142.65 182.39 C107.56 182.39, 72.48 182.39, 32 182.39 M142.65 182.39 C106.02 182.39, 69.39 182.39, 32 182.39 M32 182.39 C10.67 182.39, 0 171.73, 0 150.39 M32 182.39 C10.67 182.39, 0 171.73, 0 150.39 M0 150.39 C0 121.11, 0 91.83, 0 32 M0 150.39 C0 108.67, 0 66.95, 0 32 M0 32 C0 10.67, 10.67 0, 32 0 M0 32 C0 10.67, 10.67 0, 32 0" stroke="#1e1e1e" stroke-width="1" fill="none"></path></g></g><g clip-path="url(#aJifjq6F5C2Sw0LjvidZD)"><g transform="translate(64.25739551488459 97.95811422017005) rotate(0 46.875 19.200000000000045)"><text x="46.875" y="0" font-family="Cascadia, Segoe UI Emoji" font-size="16px" fill="#1e1e1e" text-anchor="middle" style="white-space: pre;" direction="ltr" dominant-baseline="text-before-edge">validation</text><text x="46.875" y="19.2" font-family="Cascadia, Segoe UI Emoji" font-size="16px" fill="#1e1e1e" text-anchor="middle" style="white-space: pre;" direction="ltr" dominant-baseline="text-before-edge">logic</text></g></g><g clip-path="url(#aJifjq6F5C2Sw0LjvidZD)"><g stroke-linecap="round" transform="translate(30.850892072128772 218.2142172380245) rotate(0 171.5 31)"><path d="M4.13 3.59 C4.13 3.59, 4.13 3.59, 4.13 3.59 M4.13 3.59 C4.13 3.59, 4.13 3.59, 4.13 3.59 M3.21 10.74 C5.46 8.15, 7.71 5.56, 10.42 2.44 M3.21 10.74 C6.07 7.45, 8.93 4.15, 10.42 2.44 M2.29 17.89 C7.77 11.58, 13.26 5.28, 16.72 1.29 M2.29 17.89 C5.36 14.36, 8.43 10.83, 16.72 1.29 M2.69 23.53 C7.18 18.37, 11.67 13.2, 22.37 0.89 M2.69 23.53 C10.01 15.11, 17.33 6.69, 22.37 0.89 M2.42 29.93 C7.99 23.53, 13.56 17.12, 27.35 1.25 M2.42 29.93 C11.16 19.88, 19.9 9.83, 27.35 1.25 M2.16 36.33 C11.47 25.63, 20.77 14.93, 33 0.86 M2.16 36.33 C10.06 27.25, 17.95 18.16, 33 0.86 M2.56 41.97 C14.67 28.04, 26.79 14.1, 37.98 1.22 M2.56 41.97 C13.39 29.51, 24.22 17.05, 37.98 1.22 M2.3 48.37 C12.08 37.12, 21.86 25.86, 43.63 0.82 M2.3 48.37 C10.74 38.66, 19.18 28.94, 43.63 0.82 M2.03 54.77 C14.35 40.6, 26.67 26.43, 48.61 1.18 M2.03 54.77 C12.38 42.87, 22.73 30.97, 48.61 1.18 M4.4 58.15 C22.17 37.7, 39.94 17.25, 53.6 1.54 M4.4 58.15 C22.78 37.01, 41.15 15.86, 53.6 1.54 M7.42 60.77 C22.59 43.31, 37.77 25.85, 59.24 1.15 M7.42 60.77 C22.69 43.2, 37.97 25.63, 59.24 1.15 M11.09 62.64 C28.44 42.68, 45.79 22.72, 64.23 1.51 M11.09 62.64 C22.9 49.06, 34.7 35.48, 64.23 1.51 M14.77 64.51 C25.94 51.65, 37.12 38.8, 69.87 1.12 M14.77 64.51 C29.66 47.37, 44.56 30.24, 69.87 1.12 M20.41 64.12 C31.7 51.12, 43 38.13, 74.86 1.48 M20.41 64.12 C31.85 50.95, 43.3 37.78, 74.86 1.48 M25.4 64.48 C44.31 42.72, 63.23 20.95, 80.5 1.08 M25.4 64.48 C44.53 42.47, 63.66 20.46, 80.5 1.08 M31.04 64.08 C42.05 51.42, 53.05 38.76, 85.49 1.44 M31.04 64.08 C47.33 45.34, 63.62 26.6, 85.49 1.44 M36.03 64.44 C54.58 43.1, 73.13 21.75, 91.13 1.05 M36.03 64.44 C51.18 47.01, 66.33 29.58, 91.13 1.05 M41.67 64.05 C59.76 43.23, 77.86 22.42, 96.12 1.41 M41.67 64.05 C55.4 48.25, 69.13 32.45, 96.12 1.41 M46.66 64.41 C67.54 40.39, 88.42 16.36, 101.76 1.01 M46.66 64.41 C60.73 48.22, 74.79 32.04, 101.76 1.01 M51.64 64.77 C70.55 43.02, 89.45 21.28, 106.75 1.37 M51.64 64.77 C70.05 43.6, 88.45 22.42, 106.75 1.37 M57.29 64.37 C75.98 42.86, 94.68 21.35, 112.39 0.98 M57.29 64.37 C70.57 49.09, 83.85 33.81, 112.39 0.98 M62.27 64.73 C73.45 51.88, 84.63 39.02, 117.38 1.34 M62.27 64.73 C73.88 51.38, 85.49 38.02, 117.38 1.34 M67.92 64.34 C82.28 47.82, 96.64 31.3, 123.02 0.94 M67.92 64.34 C80.96 49.34, 94 34.33, 123.02 0.94 M72.9 64.7 C84.13 51.79, 95.35 38.88, 128.01 1.3 M72.9 64.7 C86.69 48.84, 100.48 32.98, 128.01 1.3 M78.55 64.3 C92.81 47.89, 107.08 31.48, 133.66 0.91 M78.55 64.3 C100.5 39.05, 122.44 13.8, 133.66 0.91 M83.53 64.66 C97.91 48.12, 112.3 31.58, 138.64 1.27 M83.53 64.66 C95.76 50.6, 107.98 36.54, 138.64 1.27 M89.18 64.27 C101.37 50.24, 113.57 36.21, 143.63 1.63 M89.18 64.27 C107.34 43.38, 125.5 22.48, 143.63 1.63 M94.16 64.63 C105.93 51.09, 117.7 37.55, 149.27 1.23 M94.16 64.63 C116.01 39.5, 137.86 14.36, 149.27 1.23 M99.81 64.24 C117.16 44.27, 134.52 24.3, 154.26 1.59 M99.81 64.24 C110.79 51.6, 121.77 38.97, 154.26 1.59 M104.79 64.6 C122.64 44.07, 140.48 23.55, 159.9 1.2 M104.79 64.6 C118.39 48.96, 131.98 33.32, 159.9 1.2 M110.44 64.2 C125.67 46.67, 140.91 29.14, 164.89 1.56 M110.44 64.2 C122.06 50.83, 133.68 37.47, 164.89 1.56 M115.42 64.56 C136.21 40.65, 157 16.73, 170.53 1.17 M115.42 64.56 C134.52 42.6, 153.61 20.64, 170.53 1.17 M121.07 64.17 C138.33 44.3, 155.6 24.44, 175.52 1.53 M121.07 64.17 C139.09 43.43, 157.12 22.69, 175.52 1.53 M126.05 64.53 C147.17 40.23, 168.29 15.94, 181.16 1.13 M126.05 64.53 C141.01 47.32, 155.97 30.12, 181.16 1.13 M131.7 64.13 C143.35 50.73, 154.99 37.33, 186.15 1.49 M131.7 64.13 C151.77 41.05, 171.83 17.96, 186.15 1.49 M136.68 64.49 C151.79 47.11, 166.9 29.73, 191.79 1.1 M136.68 64.49 C153.15 45.55, 169.61 26.62, 191.79 1.1 M141.67 64.85 C154.19 50.45, 166.7 36.05, 196.78 1.46 M141.67 64.85 C157.73 46.38, 173.78 27.91, 196.78 1.46 M147.31 64.46 C158.68 51.38, 170.04 38.31, 202.42 1.06 M147.31 64.46 C164.24 44.99, 181.17 25.51, 202.42 1.06 M152.3 64.82 C173.63 40.28, 194.95 15.75, 207.41 1.42 M152.3 64.82 C169.74 44.76, 187.17 24.7, 207.41 1.42 M157.94 64.42 C172.21 48.01, 186.47 31.6, 213.05 1.03 M157.94 64.42 C173.21 46.86, 188.47 29.31, 213.05 1.03 M162.93 64.78 C184.82 39.61, 206.7 14.43, 218.04 1.39 M162.93 64.78 C174.63 51.32, 186.34 37.86, 218.04 1.39 M168.57 64.39 C187.03 43.16, 205.48 21.93, 223.68 0.99 M168.57 64.39 C190.07 39.66, 211.56 14.93, 223.68 0.99 M173.56 64.75 C192.01 43.53, 210.45 22.31, 228.67 1.35 M173.56 64.75 C195.57 39.43, 217.58 14.11, 228.67 1.35 M179.2 64.35 C193.57 47.82, 207.94 31.29, 234.31 0.96 M179.2 64.35 C197.38 43.45, 215.55 22.54, 234.31 0.96 M184.19 64.71 C203.5 42.5, 222.8 20.29, 239.3 1.32 M184.19 64.71 C197.92 48.92, 211.64 33.13, 239.3 1.32 M189.83 64.32 C205.42 46.39, 221 28.47, 244.29 1.68 M189.83 64.32 C210.59 40.44, 231.35 16.56, 244.29 1.68 M194.82 64.68 C215.1 41.35, 235.37 18.03, 249.93 1.28 M194.82 64.68 C216.03 40.29, 237.23 15.89, 249.93 1.28 M200.46 64.28 C221.39 40.21, 242.32 16.13, 254.92 1.64 M200.46 64.28 C218.48 43.56, 236.5 22.84, 254.92 1.64 M205.45 64.64 C226.67 40.24, 247.88 15.83, 260.56 1.25 M205.45 64.64 C226.46 40.47, 247.48 16.3, 260.56 1.25 M211.09 64.25 C230.26 42.2, 249.43 20.15, 265.55 1.61 M211.09 64.25 C231.07 41.27, 251.04 18.3, 265.55 1.61 M216.08 64.61 C236.6 41.01, 257.12 17.4, 271.19 1.21 M216.08 64.61 C230.69 47.81, 245.29 31.01, 271.19 1.21 M221.72 64.22 C238.56 44.85, 255.4 25.48, 276.18 1.57 M221.72 64.22 C242.35 40.49, 262.97 16.77, 276.18 1.57 M226.71 64.58 C247.34 40.85, 267.97 17.12, 281.82 1.18 M226.71 64.58 C238.5 51.01, 250.29 37.45, 281.82 1.18 M232.35 64.18 C254.11 39.16, 275.86 14.13, 286.81 1.54 M232.35 64.18 C246.4 48.02, 260.44 31.87, 286.81 1.54 M237.34 64.54 C248.84 51.31, 260.34 38.08, 292.45 1.15 M237.34 64.54 C251.53 48.22, 265.73 31.89, 292.45 1.15 M242.33 64.9 C258.3 46.53, 274.27 28.16, 297.44 1.51 M242.33 64.9 C264.21 39.73, 286.1 14.55, 297.44 1.51 M247.97 64.51 C268.17 41.27, 288.37 18.03, 303.08 1.11 M247.97 64.51 C268.74 40.61, 289.51 16.72, 303.08 1.11 M252.96 64.87 C267.87 47.72, 282.77 30.57, 308.07 1.47 M252.96 64.87 C274.49 40.1, 296.02 15.33, 308.07 1.47 M258.6 64.47 C275.83 44.65, 293.06 24.83, 313.71 1.08 M258.6 64.47 C269.88 51.5, 281.16 38.53, 313.71 1.08 M263.59 64.83 C283.18 42.29, 302.78 19.75, 318.7 1.44 M263.59 64.83 C282.03 43.62, 300.47 22.4, 318.7 1.44 M269.23 64.44 C290.45 40.03, 311.67 15.62, 324.34 1.04 M269.23 64.44 C287.14 43.83, 305.05 23.23, 324.34 1.04 M274.22 64.8 C295.28 40.57, 316.34 16.35, 329.33 1.4 M274.22 64.8 C292.2 44.11, 310.19 23.42, 329.33 1.4 M279.86 64.4 C296.12 45.7, 312.39 26.99, 334.97 1.01 M279.86 64.4 C300.46 40.71, 321.05 17.02, 334.97 1.01 M284.85 64.76 C301.38 45.75, 317.9 26.74, 337.99 3.63 M284.85 64.76 C304.24 42.46, 323.63 20.15, 337.99 3.63 M290.49 64.37 C302.15 50.96, 313.81 37.54, 341.66 5.5 M290.49 64.37 C307.8 44.46, 325.1 24.55, 341.66 5.5 M295.48 64.73 C311.11 46.75, 326.73 28.77, 343.37 9.64 M295.48 64.73 C307.49 50.91, 319.51 37.08, 343.37 9.64 M301.12 64.33 C315.47 47.83, 329.81 31.33, 343.11 16.03 M301.12 64.33 C311.92 51.91, 322.72 39.49, 343.11 16.03 M306.11 64.69 C318.66 50.26, 331.21 35.82, 343.5 21.68 M306.11 64.69 C316.82 52.37, 327.54 40.04, 343.5 21.68 M311.75 64.3 C320.2 54.58, 328.65 44.86, 343.24 28.07 M311.75 64.3 C321.87 52.66, 331.99 41.02, 343.24 28.07 M316.74 64.66 C323.83 56.51, 330.91 48.36, 342.98 34.47 M316.74 64.66 C326.59 53.32, 336.45 41.99, 342.98 34.47 M322.38 64.27 C326.86 59.12, 331.33 53.97, 343.38 40.11 M322.38 64.27 C330.2 55.27, 338.02 46.27, 343.38 40.11 M328.68 63.12 C334.22 56.74, 339.77 50.37, 343.11 46.51 M328.68 63.12 C333.35 57.75, 338.01 52.38, 343.11 46.51 M334.98 61.97 C336.82 59.85, 338.66 57.74, 342.2 53.66 M334.98 61.97 C336.45 60.27, 337.93 58.57, 342.2 53.66" stroke="#a5d8ff" stroke-width="0.5" fill="none"></path><path d="M15.5 0 M15.5 0 C126.36 0, 237.23 0, 327.5 0 M15.5 0 C120.44 0, 225.39 0, 327.5 0 M327.5 0 C337.83 0, 343 5.17, 343 15.5 M327.5 0 C337.83 0, 343 5.17, 343 15.5 M343 15.5 C343 27.11, 343 38.72, 343 46.5 M343 15.5 C343 21.72, 343 27.93, 343 46.5 M343 46.5 C343 56.83, 337.83 62, 327.5 62 M343 46.5 C343 56.83, 337.83 62, 327.5 62 M327.5 62 C206.22 62, 84.94 62, 15.5 62 M327.5 62 C210.22 62, 92.95 62, 15.5 62 M15.5 62 C5.17 62, 0 56.83, 0 46.5 M15.5 62 C5.17 62, 0 56.83, 0 46.5 M0 46.5 C0 35.72, 0 24.94, 0 15.5 M0 46.5 C0 34.56, 0 22.62, 0 15.5 M0 15.5 C0 5.17, 5.17 0, 15.5 0 M0 15.5 C0 5.17, 5.17 0, 15.5 0" stroke="#1e1e1e" stroke-width="1" fill="none"></path></g></g><g clip-path="url(#aJifjq6F5C2Sw0LjvidZD)"><g transform="translate(127.35089207212877 239.6142172380246) rotate(0 75 9.600000000000023)"><text x="75" y="0" font-family="Cascadia, Segoe UI Emoji" font-size="16px" fill="#1e1e1e" text-anchor="middle" style="white-space: pre;" direction="ltr" dominant-baseline="text-before-edge">custom arguments</text></g></g><g clip-path="url(#aJifjq6F5C2Sw0LjvidZD)"><g transform="translate(132.12574700313962 299.874804152249) rotate(0 75 9.600000000000023)"><text x="0" y="0" font-family="Cascadia, Segoe UI Emoji" font-size="16px" fill="#1e1e1e" text-anchor="start" style="white-space: pre;" direction="ltr" dominant-baseline="text-before-edge">custom validator</text></g></g><g clip-path="url(#aJifjq6F5C2Sw0LjvidZD)"><g stroke-linecap="round" transform="translate(206.9068206746624 24.90480763244159) rotate(0 87.32374058685673 91.19697101611246)"><path d="M7.86 8.16 C7.86 8.16, 7.86 8.16, 7.86 8.16 M7.86 8.16 C7.86 8.16, 7.86 8.16, 7.86 8.16 M3.66 19.09 C7.74 14.39, 11.82 9.7, 18.1 2.48 M3.66 19.09 C6.65 15.65, 9.63 12.22, 18.1 2.48 M2.75 26.24 C10.37 17.47, 18 8.69, 25.05 0.58 M2.75 26.24 C8.77 19.3, 14.8 12.37, 25.05 0.58 M2.48 32.64 C11.97 21.73, 21.45 10.82, 30.7 0.18 M2.48 32.64 C10.73 23.15, 18.97 13.67, 30.7 0.18 M2.88 38.28 C11.48 28.38, 20.09 18.48, 34.37 2.05 M2.88 38.28 C10.59 29.4, 18.31 20.53, 34.37 2.05 M2.62 44.68 C12.02 33.86, 21.43 23.04, 39.36 2.41 M2.62 44.68 C10.23 35.92, 17.84 27.16, 39.36 2.41 M2.36 51.07 C13.21 38.59, 24.06 26.11, 45 2.02 M2.36 51.07 C12.68 39.19, 23.01 27.31, 45 2.02 M2.75 56.72 C20.59 36.2, 38.43 15.68, 49.99 2.38 M2.75 56.72 C20.5 36.3, 38.24 15.89, 49.99 2.38 M2.49 63.11 C15.53 48.11, 28.57 33.11, 55.63 1.98 M2.49 63.11 C17.06 46.35, 31.64 29.58, 55.63 1.98 M2.23 69.51 C17.43 52.02, 32.63 34.53, 60.62 2.34 M2.23 69.51 C15.27 54.52, 28.3 39.52, 60.62 2.34 M2.62 75.16 C26.78 47.37, 50.94 19.58, 66.26 1.95 M2.62 75.16 C15.67 60.14, 28.72 45.13, 66.26 1.95 M2.36 81.55 C29 50.91, 55.64 20.26, 71.25 2.31 M2.36 81.55 C21.45 59.59, 40.54 37.63, 71.25 2.31 M2.1 87.95 C21.83 65.26, 41.55 42.57, 76.89 1.91 M2.1 87.95 C20.8 66.43, 39.51 44.92, 76.89 1.91 M2.49 93.59 C23.36 69.6, 44.22 45.6, 81.88 2.27 M2.49 93.59 C23.61 69.3, 44.72 45.02, 81.88 2.27 M2.23 99.99 C25.77 72.91, 49.31 45.84, 86.86 2.63 M2.23 99.99 C25.62 73.09, 49 46.19, 86.86 2.63 M2.63 105.64 C31.21 72.76, 59.79 39.88, 92.51 2.24 M2.63 105.64 C22.41 82.87, 42.2 60.11, 92.51 2.24 M2.37 112.03 C28.66 81.79, 54.95 51.54, 97.49 2.6 M2.37 112.03 C31.12 78.95, 59.88 45.87, 97.49 2.6 M2.1 118.43 C22.84 94.58, 43.57 70.73, 103.14 2.21 M2.1 118.43 C39.63 75.26, 77.16 32.08, 103.14 2.21 M2.5 124.07 C32.68 89.36, 62.86 54.64, 108.12 2.57 M2.5 124.07 C44.56 75.68, 86.63 27.3, 108.12 2.57 M2.24 130.47 C35.79 91.88, 69.34 53.28, 113.77 2.17 M2.24 130.47 C30.5 97.96, 58.75 65.46, 113.77 2.17 M1.98 136.87 C26.11 109.11, 50.24 81.35, 118.76 2.53 M1.98 136.87 C47.03 85.04, 92.08 33.21, 118.76 2.53 M2.37 142.51 C27.34 113.79, 52.3 85.08, 124.4 2.14 M2.37 142.51 C26.88 114.32, 51.39 86.13, 124.4 2.14 M0.14 151.17 C40.61 104.62, 81.08 58.06, 129.39 2.5 M0.14 151.17 C43.86 100.88, 87.58 50.59, 129.39 2.5 M0.54 156.82 C32.62 119.91, 64.71 83, 134.37 2.86 M0.54 156.82 C34.05 118.26, 67.57 79.7, 134.37 2.86 M2.9 160.2 C51.26 104.57, 99.62 48.94, 140.02 2.46 M2.9 160.2 C41.35 115.96, 79.81 71.72, 140.02 2.46 M3.29 165.84 C53.31 108.3, 103.32 50.77, 145 2.82 M3.29 165.84 C37.34 126.67, 71.39 87.51, 145 2.82 M5 169.97 C41.01 128.55, 77.02 87.13, 151.3 1.67 M5 169.97 C47.25 121.37, 89.49 72.78, 151.3 1.67 M7.36 173.35 C39.13 136.8, 70.9 100.26, 155.63 2.79 M7.36 173.35 C53.32 120.48, 99.28 67.61, 155.63 2.79 M10.38 175.98 C68.13 109.54, 125.88 43.11, 159.31 4.66 M10.38 175.98 C68.63 108.97, 126.89 41.95, 159.31 4.66 M13.4 178.6 C61.07 123.77, 108.73 68.93, 163.64 5.77 M13.4 178.6 C43.57 143.89, 73.75 109.18, 163.64 5.77 M17.08 180.47 C68.74 121.03, 120.41 61.6, 166.66 8.4 M17.08 180.47 C57.03 134.51, 96.99 88.54, 166.66 8.4 M20.75 182.34 C62.28 134.56, 103.82 86.78, 169.68 11.02 M20.75 182.34 C73.71 121.41, 126.68 60.48, 169.68 11.02 M25.74 182.7 C78.44 122.08, 131.13 61.46, 172.04 14.4 M25.74 182.7 C76.62 124.17, 127.49 65.64, 172.04 14.4 M30.72 183.06 C79.29 127.19, 127.85 71.33, 173.75 18.53 M30.72 183.06 C62.01 147.07, 93.29 111.09, 173.75 18.53 M34.4 184.93 C69.04 145.08, 103.69 105.22, 174.8 23.42 M34.4 184.93 C78.73 133.94, 123.05 82.95, 174.8 23.42 M40.04 184.53 C76.12 143.04, 112.19 101.54, 177.16 26.8 M40.04 184.53 C86.12 131.53, 132.19 78.53, 177.16 26.8 M45.03 184.89 C83.49 140.65, 121.96 96.4, 176.24 33.95 M45.03 184.89 C71.95 153.92, 98.88 122.95, 176.24 33.95 M50.67 184.5 C80.5 150.19, 110.32 115.88, 176.64 39.6 M50.67 184.5 C82.8 147.54, 114.93 110.59, 176.64 39.6 M55.66 184.86 C99.22 134.74, 142.79 84.63, 176.37 45.99 M55.66 184.86 C92.11 142.93, 128.56 101, 176.37 45.99 M61.3 184.47 C104.18 135.14, 147.06 85.81, 176.77 51.64 M61.3 184.47 C87.26 154.6, 113.22 124.74, 176.77 51.64 M66.29 184.83 C108.71 136.02, 151.14 87.22, 176.51 58.03 M66.29 184.83 C93.11 153.98, 119.92 123.13, 176.51 58.03 M71.93 184.43 C92.9 160.32, 113.86 136.2, 176.25 64.43 M71.93 184.43 C102.8 148.92, 133.67 113.41, 176.25 64.43 M76.92 184.79 C104.2 153.41, 131.48 122.03, 176.64 70.08 M76.92 184.79 C108.65 148.29, 140.38 111.79, 176.64 70.08 M82.56 184.4 C118.51 143.04, 154.46 101.69, 176.38 76.47 M82.56 184.4 C103.26 160.59, 123.95 136.78, 176.38 76.47 M87.55 184.76 C106.17 163.34, 124.79 141.92, 176.77 82.12 M87.55 184.76 C120.29 147.09, 153.04 109.42, 176.77 82.12 M93.19 184.36 C126.44 146.11, 159.69 107.86, 176.51 88.51 M93.19 184.36 C122.56 150.57, 151.94 116.79, 176.51 88.51 M98.18 184.72 C125.15 153.69, 152.13 122.66, 176.25 94.91 M98.18 184.72 C120.18 159.41, 142.18 134.11, 176.25 94.91 M103.82 184.33 C122.25 163.13, 140.68 141.93, 176.65 100.56 M103.82 184.33 C129.09 155.26, 154.36 126.19, 176.65 100.56 M108.81 184.69 C129.94 160.38, 151.07 136.07, 176.38 106.95 M108.81 184.69 C129.5 160.89, 150.18 137.09, 176.38 106.95 M113.8 185.05 C137.3 158.02, 160.79 130.98, 176.78 112.6 M113.8 185.05 C130.23 166.14, 146.67 147.24, 176.78 112.6 M119.44 184.65 C137.27 164.14, 155.11 143.62, 176.52 118.99 M119.44 184.65 C138.57 162.65, 157.7 140.64, 176.52 118.99 M124.43 185.01 C140.52 166.5, 156.61 147.99, 176.26 125.39 M124.43 185.01 C137.53 169.95, 150.62 154.88, 176.26 125.39 M130.07 184.62 C140.33 172.82, 150.59 161.01, 176.65 131.03 M130.07 184.62 C140.11 173.06, 150.16 161.51, 176.65 131.03 M135.06 184.98 C144.98 173.57, 154.9 162.15, 176.39 137.43 M135.06 184.98 C146.73 171.56, 158.4 158.13, 176.39 137.43 M140.7 184.58 C150.99 172.75, 161.28 160.91, 176.78 143.08 M140.7 184.58 C149.57 174.38, 158.43 164.18, 176.78 143.08 M145.69 184.94 C153.36 176.12, 161.04 167.29, 175.21 150.98 M145.69 184.94 C151.93 177.77, 158.16 170.59, 175.21 150.98 M151.99 183.8 C157.11 177.9, 162.23 172.01, 174.29 158.14 M151.99 183.8 C158.13 176.73, 164.27 169.67, 174.29 158.14 M162.22 178.12 C165.48 174.37, 168.73 170.63, 173.37 165.29 M162.22 178.12 C165.6 174.23, 168.98 170.35, 173.37 165.29" stroke="#b2f2bb" stroke-width="0.5" fill="none"></path><path d="M32 0 M32 0 C70.66 0, 109.32 0, 142.65 0 M32 0 C54.77 0, 77.54 0, 142.65 0 M142.65 0 C163.98 0, 174.65 10.67, 174.65 32 M142.65 0 C163.98 0, 174.65 10.67, 174.65 32 M174.65 32 C174.65 66.78, 174.65 101.55, 174.65 150.39 M174.65 32 C174.65 70.36, 174.65 108.71, 174.65 150.39 M174.65 150.39 C174.65 171.73, 163.98 182.39, 142.65 182.39 M174.65 150.39 C174.65 171.73, 163.98 182.39, 142.65 182.39 M142.65 182.39 C100.43 182.39, 58.21 182.39, 32 182.39 M142.65 182.39 C115.53 182.39, 88.41 182.39, 32 182.39 M32 182.39 C10.67 182.39, 0 171.73, 0 150.39 M32 182.39 C10.67 182.39, 0 171.73, 0 150.39 M0 150.39 C0 110.74, 0 71.1, 0 32 M0 150.39 C0 104.22, 0 58.04, 0 32 M0 32 C0 10.67, 10.67 0, 32 0 M0 32 C0 10.67, 10.67 0, 32 0" stroke="#1e1e1e" stroke-width="1" fill="none"></path></g></g><g clip-path="url(#aJifjq6F5C2Sw0LjvidZD)"><g transform="translate(261.41806126151914 96.90177864855423) rotate(0 32.8125 19.200000000000045)"><text x="32.8125" y="0" font-family="Cascadia, Segoe UI Emoji" font-size="16px" fill="#1e1e1e" text-anchor="middle" style="white-space: pre;" direction="ltr" dominant-baseline="text-before-edge">error</text><text x="32.8125" y="19.2" font-family="Cascadia, Segoe UI Emoji" font-size="16px" fill="#1e1e1e" text-anchor="middle" style="white-space: pre;" direction="ltr" dominant-baseline="text-before-edge">message</text></g></g></svg>