<svg version="1.1" xmlns="http://www.w3.org/2000/svg" viewBox="0 0 1581.863865317382 678.3843420361293" width="3163.727730634764" height="1356.7686840722586" filter="invert(93%) hue-rotate(180deg)">
  <!-- svg-source:excalidraw -->
  
  <defs>
    <style class="style-fonts">
      @font-face {
        font-family: "Virgil";
        src: url("https://excalidraw.com/Virgil.woff2");
      }
      @font-face {
        font-family: "Cascadia";
        src: url("https://excalidraw.com/Cascadia.woff2");
      }
    </style>
    <clipPath id="6W6sb72G7DcVsOhnLpMwe">
            <rect transform="translate(0 0) rotate(0 790.931932658691 339.19217101806464)" width="1581.8638653173823" height="678.3843420361293">
          </rect>
        </clipPath>
  </defs>
  <rect x="0" y="0" width="1581.863865317382" height="678.3843420361293" fill="#ffffff"></rect><g clip-path="url(#6W6sb72G7DcVsOhnLpMwe)"><g stroke-linecap="round" transform="translate(27.605560826246347 36.2090298773669) rotate(0 108.214285714286 108.2142857142859)"><path d="M28.32 35.22 C28.32 35.22, 28.32 35.22, 28.32 35.22 M28.32 35.22 C28.32 35.22, 28.32 35.22, 28.32 35.22 M11.66 60.49 C20.23 50.63, 28.8 40.77, 44.46 22.75 M11.66 60.49 C24.28 45.97, 36.9 31.45, 44.46 22.75 M8.77 69.9 C26.4 49.63, 44.03 29.35, 53.39 18.58 M8.77 69.9 C18.99 58.15, 29.2 46.4, 53.39 18.58 M5.23 80.07 C21.48 61.39, 37.72 42.7, 62.96 13.66 M5.23 80.07 C23.4 59.17, 41.58 38.26, 62.96 13.66 M3 88.74 C23.99 64.6, 44.97 40.46, 71.89 9.49 M3 88.74 C18.14 71.32, 33.28 53.91, 71.89 9.49 M1.43 96.64 C30.29 63.44, 59.16 30.23, 80.16 6.08 M1.43 96.64 C25.74 68.67, 50.06 40.7, 80.16 6.08 M3.14 100.78 C29.1 70.91, 55.07 41.03, 89.08 1.91 M3.14 100.78 C26.24 74.2, 49.34 47.62, 89.08 1.91 M0.91 109.44 C37.9 66.88, 74.9 24.32, 94.72 1.51 M0.91 109.44 C33.04 72.47, 65.17 35.51, 94.72 1.51 M1.3 115.08 C39.75 70.85, 78.19 26.63, 99.71 1.87 M1.3 115.08 C27.22 85.27, 53.13 55.46, 99.71 1.87 M2.35 119.97 C24.84 94.1, 47.33 68.23, 105.35 1.48 M2.35 119.97 C32.18 85.65, 62.01 51.33, 105.35 1.48 M3.4 124.86 C46.16 75.67, 88.93 26.47, 110.34 1.84 M3.4 124.86 C39.65 83.16, 75.89 41.47, 110.34 1.84 M4.45 129.75 C45.36 82.68, 86.27 35.62, 115.33 2.2 M4.45 129.75 C29.13 101.36, 53.8 72.98, 115.33 2.2 M5.5 134.63 C38.33 96.87, 71.15 59.11, 120.31 2.56 M5.5 134.63 C49.09 84.49, 92.68 34.34, 120.31 2.56 M6.55 139.52 C48.5 91.27, 90.45 43.01, 125.3 2.92 M6.55 139.52 C43.61 96.9, 80.66 54.27, 125.3 2.92 M7.6 144.41 C36.01 111.74, 64.41 79.07, 130.29 3.28 M7.6 144.41 C46.62 99.53, 85.64 54.64, 130.29 3.28 M9.31 148.55 C53.76 97.42, 98.2 46.29, 134.62 4.4 M9.31 148.55 C50.33 101.36, 91.34 54.18, 134.62 4.4 M11.02 152.68 C55.28 101.76, 99.54 50.85, 138.95 5.51 M11.02 152.68 C41.08 118.1, 71.14 83.52, 138.95 5.51 M12.07 157.57 C55.81 107.25, 99.55 56.94, 143.28 6.63 M12.07 157.57 C56.16 106.85, 100.25 56.12, 143.28 6.63 M14.43 160.95 C63.06 105, 111.7 49.05, 147.61 7.74 M14.43 160.95 C49.03 121.14, 83.64 81.33, 147.61 7.74 M16.14 165.08 C60.18 114.42, 104.22 63.75, 151.29 9.61 M16.14 165.08 C43.75 133.32, 71.36 101.56, 151.29 9.61 M19.16 167.7 C67.13 112.52, 115.1 57.34, 155.62 10.72 M19.16 167.7 C56.06 125.25, 92.96 82.8, 155.62 10.72 M21.52 171.08 C68.89 116.59, 116.27 62.09, 158.64 13.35 M21.52 171.08 C62.19 124.3, 102.86 77.52, 158.64 13.35 M23.23 175.22 C78.03 112.17, 132.84 49.12, 162.31 15.22 M23.23 175.22 C77.89 112.34, 132.54 49.46, 162.31 15.22 M26.24 177.84 C65.65 132.51, 105.05 87.18, 165.99 17.09 M26.24 177.84 C78.78 117.41, 131.31 56.98, 165.99 17.09 M28.61 181.22 C72.09 131.2, 115.57 81.18, 169.66 18.96 M28.61 181.22 C71.24 132.18, 113.87 83.14, 169.66 18.96 M31.63 183.84 C60.07 151.13, 88.51 118.41, 172.68 21.58 M31.63 183.84 C74.46 134.57, 117.3 85.29, 172.68 21.58 M33.99 187.22 C81.64 132.4, 129.3 77.58, 175.7 24.21 M33.99 187.22 C79.52 134.85, 125.04 82.48, 175.7 24.21 M37.01 189.85 C72.06 149.52, 107.12 109.19, 178.72 26.83 M37.01 189.85 C85.15 134.47, 133.28 79.1, 178.72 26.83 M40.03 192.47 C75.16 152.05, 110.3 111.63, 182.39 28.7 M40.03 192.47 C85.82 139.79, 131.61 87.12, 182.39 28.7 M43.05 195.1 C91.04 139.89, 139.03 84.68, 184.75 32.08 M43.05 195.1 C77.37 155.61, 111.7 116.12, 184.75 32.08 M46.72 196.97 C79.88 158.83, 113.03 120.69, 187.77 34.7 M46.72 196.97 C78.23 160.72, 109.73 124.48, 187.77 34.7 M49.74 199.59 C88.04 155.53, 126.34 111.47, 190.79 37.33 M49.74 199.59 C101.65 139.87, 153.57 80.15, 190.79 37.33 M53.41 201.46 C84.55 165.64, 115.69 129.82, 193.15 40.71 M53.41 201.46 C94.62 154.06, 135.82 106.66, 193.15 40.71 M56.43 204.08 C86.83 169.12, 117.22 134.16, 195.52 44.08 M56.43 204.08 C108.21 144.52, 159.98 84.97, 195.52 44.08 M60.76 205.2 C109.92 148.65, 159.08 92.1, 197.88 47.46 M60.76 205.2 C95.45 165.29, 130.14 125.39, 197.88 47.46 M64.44 207.07 C95.51 171.32, 126.58 135.58, 200.24 50.84 M64.44 207.07 C106.33 158.88, 148.21 110.7, 200.24 50.84 M68.11 208.94 C110.96 159.65, 153.8 110.36, 203.26 53.47 M68.11 208.94 C117.18 152.49, 166.25 96.05, 203.26 53.47 M71.79 210.81 C115.48 160.54, 159.18 110.28, 204.97 57.6 M71.79 210.81 C115.56 160.46, 159.33 110.1, 204.97 57.6 M75.46 212.68 C127.93 152.32, 180.39 91.97, 206.68 61.73 M75.46 212.68 C119.92 161.53, 164.38 110.39, 206.68 61.73 M79.79 213.79 C107.91 181.45, 136.03 149.1, 208.38 65.87 M79.79 213.79 C129.09 157.09, 178.38 100.38, 208.38 65.87 M84.13 214.91 C113.73 180.85, 143.34 146.79, 210.09 70 M84.13 214.91 C114.67 179.77, 145.21 144.63, 210.09 70 M89.11 215.27 C135.65 161.73, 182.18 108.2, 211.8 74.14 M89.11 215.27 C128.55 169.9, 167.98 124.54, 211.8 74.14 M94.1 215.63 C127.02 177.76, 159.93 139.89, 212.85 79.02 M94.1 215.63 C139.77 163.08, 185.45 110.54, 212.85 79.02 M98.43 216.74 C140.63 168.2, 182.83 119.65, 213.9 83.91 M98.43 216.74 C143.49 164.91, 188.54 113.08, 213.9 83.91 M104.07 216.35 C138.17 177.12, 172.26 137.9, 214.95 88.8 M104.07 216.35 C128.95 187.73, 153.82 159.12, 214.95 88.8 M109.06 216.71 C142.11 178.69, 175.16 140.66, 216 93.69 M109.06 216.71 C144.94 175.43, 180.82 134.16, 216 93.69 M114.05 217.07 C148.42 177.52, 182.8 137.98, 217.05 98.58 M114.05 217.07 C141.76 185.18, 169.48 153.3, 217.05 98.58 M119.69 216.67 C140.92 192.25, 162.15 167.82, 216.79 104.97 M119.69 216.67 C148.97 182.99, 178.24 149.31, 216.79 104.97 M125.33 216.28 C152.17 185.4, 179.01 154.53, 217.84 109.86 M125.33 216.28 C160.01 176.39, 194.68 136.5, 217.84 109.86 M130.32 216.64 C154.69 188.6, 179.06 160.57, 217.58 116.26 M130.32 216.64 C159.19 183.42, 188.07 150.21, 217.58 116.26 M138.59 213.22 C165.61 182.14, 192.63 151.05, 218.63 121.15 M138.59 213.22 C158.27 190.58, 177.95 167.94, 218.63 121.15 M147.51 209.06 C171.8 181.11, 196.1 153.16, 216.4 129.81 M147.51 209.06 C165.75 188.08, 183.98 167.1, 216.4 129.81 M155.78 205.64 C176.77 181.49, 197.76 157.35, 213.51 139.23 M155.78 205.64 C175.13 183.38, 194.48 161.12, 213.51 139.23 M165.36 200.72 C177.89 186.3, 190.43 171.88, 210.63 148.64 M165.36 200.72 C176.34 188.09, 187.31 175.46, 210.63 148.64 M181.5 188.25 C187.05 181.86, 192.6 175.48, 201.18 165.61 M181.5 188.25 C188.27 180.46, 195.03 172.68, 201.18 165.61" stroke="#b2f2bb" stroke-width="0.5" fill="none"></path><path d="M216.43 108.21 C216.43 111.54, 216.27 114.88, 215.97 118.2 C215.66 121.51, 215.2 124.83, 214.59 128.1 C213.97 131.37, 213.21 134.63, 212.3 137.83 C211.39 141.03, 210.32 144.2, 209.12 147.31 C207.92 150.41, 206.57 153.47, 205.08 156.45 C203.6 159.43, 201.97 162.35, 200.22 165.18 C198.47 168.01, 196.58 170.77, 194.57 173.43 C192.57 176.08, 190.43 178.66, 188.19 181.12 C185.94 183.58, 183.58 185.94, 181.12 188.19 C178.66 190.43, 176.08 192.57, 173.43 194.57 C170.77 196.58, 168.01 198.47, 165.18 200.22 C162.35 201.97, 159.43 203.6, 156.45 205.08 C153.47 206.57, 150.41 207.92, 147.31 209.12 C144.2 210.32, 141.03 211.39, 137.83 212.3 C134.63 213.21, 131.37 213.97, 128.1 214.59 C124.83 215.2, 121.51 215.66, 118.2 215.97 C114.88 216.27, 111.54 216.43, 108.21 216.43 C104.89 216.43, 101.54 216.27, 98.23 215.97 C94.92 215.66, 91.6 215.2, 88.33 214.59 C85.06 213.97, 81.8 213.21, 78.6 212.3 C75.4 211.39, 72.23 210.32, 69.12 209.12 C66.02 207.92, 62.96 206.57, 59.98 205.08 C57 203.6, 54.08 201.97, 51.25 200.22 C48.42 198.47, 45.66 196.58, 43 194.57 C40.34 192.57, 37.77 190.43, 35.31 188.19 C32.85 185.94, 30.49 183.58, 28.24 181.12 C26 178.66, 23.86 176.08, 21.86 173.43 C19.85 170.77, 17.96 168.01, 16.21 165.18 C14.46 162.35, 12.83 159.43, 11.34 156.45 C9.86 153.47, 8.51 150.41, 7.31 147.31 C6.11 144.2, 5.04 141.03, 4.13 137.83 C3.22 134.63, 2.45 131.37, 1.84 128.1 C1.23 124.83, 0.77 121.51, 0.46 118.2 C0.15 114.88, 0 111.54, 0 108.21 C0 104.89, 0.15 101.54, 0.46 98.23 C0.77 94.92, 1.23 91.6, 1.84 88.33 C2.45 85.06, 3.22 81.8, 4.13 78.6 C5.04 75.4, 6.11 72.23, 7.31 69.12 C8.51 66.02, 9.86 62.96, 11.34 59.98 C12.83 57, 14.46 54.08, 16.21 51.25 C17.96 48.42, 19.85 45.66, 21.86 43 C23.86 40.34, 26 37.77, 28.24 35.31 C30.49 32.85, 32.85 30.49, 35.31 28.24 C37.77 26, 40.34 23.86, 43 21.86 C45.66 19.85, 48.42 17.96, 51.25 16.21 C54.08 14.46, 57 12.83, 59.98 11.34 C62.96 9.86, 66.02 8.51, 69.12 7.31 C72.23 6.11, 75.4 5.04, 78.6 4.13 C81.8 3.22, 85.06 2.45, 88.33 1.84 C91.6 1.23, 94.92 0.77, 98.23 0.46 C101.54 0.15, 104.89 0, 108.21 0 C111.54 0, 114.88 0.15, 118.2 0.46 C121.51 0.77, 124.83 1.23, 128.1 1.84 C131.37 2.45, 134.63 3.22, 137.83 4.13 C141.03 5.04, 144.2 6.11, 147.31 7.31 C150.41 8.51, 153.47 9.86, 156.45 11.34 C159.43 12.83, 162.35 14.46, 165.18 16.21 C168.01 17.96, 170.77 19.85, 173.43 21.86 C176.08 23.86, 178.66 26, 181.12 28.24 C183.58 30.49, 185.94 32.85, 188.19 35.31 C190.43 37.77, 192.57 40.34, 194.57 43 C196.58 45.66, 198.47 48.42, 200.22 51.25 C201.97 54.08, 203.6 57, 205.08 59.98 C206.57 62.96, 207.92 66.02, 209.12 69.12 C210.32 72.23, 211.39 75.4, 212.3 78.6 C213.21 81.8, 213.97 85.06, 214.59 88.33 C215.2 91.6, 215.66 94.92, 215.97 98.23 C216.27 101.54, 216.35 106.55, 216.43 108.21 C216.51 109.88, 216.51 106.55, 216.43 108.21" stroke="#1e1e1e" stroke-width="1" fill="none"></path></g></g><g clip-path="url(#6W6sb72G7DcVsOhnLpMwe)"><g transform="translate(88.92579129070191 132.40426034182246) rotate(0 46.875 12)"><text x="46.875" y="0" font-family="Cascadia, Segoe UI Emoji" font-size="20px" fill="#1e1e1e" text-anchor="middle" style="white-space: pre;" direction="ltr" dominant-baseline="text-before-edge">notEmpty</text></g></g><g clip-path="url(#6W6sb72G7DcVsOhnLpMwe)"><g stroke-linecap="round" transform="translate(261.38512704376444 41.655903936418326) rotate(0 108.21428571428578 108.2142857142859)"><path d="M28.32 35.22 C28.32 35.22, 28.32 35.22, 28.32 35.22 M28.32 35.22 C28.32 35.22, 28.32 35.22, 28.32 35.22 M11.66 60.49 C19.01 52.03, 26.36 43.58, 44.46 22.75 M11.66 60.49 C23.32 47.07, 34.98 33.66, 44.46 22.75 M8.77 69.9 C18.67 58.52, 28.57 47.13, 53.39 18.58 M8.77 69.9 C22.21 54.45, 35.65 38.99, 53.39 18.58 M5.23 80.07 C21.34 61.54, 37.45 43.01, 62.96 13.66 M5.23 80.07 C20.49 62.52, 35.75 44.97, 62.96 13.66 M3 88.74 C24.36 64.17, 45.72 39.6, 71.89 9.49 M3 88.74 C22.07 66.8, 41.13 44.87, 71.89 9.49 M1.43 96.64 C19.36 76.01, 37.3 55.38, 80.16 6.08 M1.43 96.64 C31.1 62.51, 60.77 28.38, 80.16 6.08 M3.14 100.78 C34.03 65.24, 64.92 29.71, 89.08 1.91 M3.14 100.78 C32.64 66.83, 62.15 32.89, 89.08 1.91 M0.91 109.44 C34.84 70.4, 68.78 31.36, 94.72 1.51 M0.91 109.44 C31.84 73.85, 62.78 38.27, 94.72 1.51 M1.3 115.08 C24.63 88.24, 47.96 61.41, 99.71 1.87 M1.3 115.08 C40.56 69.91, 79.83 24.75, 99.71 1.87 M2.35 119.97 C27.97 90.5, 53.59 61.03, 105.35 1.48 M2.35 119.97 C39.19 77.59, 76.03 35.22, 105.35 1.48 M3.4 124.86 C39.4 83.44, 75.4 42.03, 110.34 1.84 M3.4 124.86 C34.44 89.15, 65.48 53.44, 110.34 1.84 M4.45 129.75 C30.3 100.01, 56.16 70.27, 115.33 2.2 M4.45 129.75 C48.12 79.51, 91.79 29.27, 115.33 2.2 M5.5 134.63 C37.47 97.86, 69.44 61.09, 120.31 2.56 M5.5 134.63 C41.35 93.4, 77.19 52.17, 120.31 2.56 M6.55 139.52 C46.47 93.61, 86.38 47.69, 125.3 2.92 M6.55 139.52 C50.51 88.96, 94.46 38.39, 125.3 2.92 M7.6 144.41 C33.27 114.89, 58.93 85.37, 130.29 3.28 M7.6 144.41 C45.41 100.92, 83.22 57.42, 130.29 3.28 M9.31 148.55 C53.82 97.34, 98.33 46.14, 134.62 4.4 M9.31 148.55 C48.99 102.9, 88.67 57.26, 134.62 4.4 M11.02 152.68 C49.69 108.19, 88.36 63.7, 138.95 5.51 M11.02 152.68 C58.37 98.21, 105.72 43.74, 138.95 5.51 M12.07 157.57 C59.9 102.54, 107.73 47.52, 143.28 6.63 M12.07 157.57 C46.43 118.03, 80.8 78.5, 143.28 6.63 M14.43 160.95 C48.75 121.47, 83.07 81.99, 147.61 7.74 M14.43 160.95 C59.49 109.12, 104.54 57.29, 147.61 7.74 M16.14 165.08 C45.17 131.68, 74.2 98.29, 151.29 9.61 M16.14 165.08 C61.14 113.31, 106.14 61.54, 151.29 9.61 M19.16 167.7 C46.7 136.02, 74.24 104.34, 155.62 10.72 M19.16 167.7 C60.3 120.38, 101.43 73.05, 155.62 10.72 M21.52 171.08 C53.51 134.28, 85.5 97.49, 158.64 13.35 M21.52 171.08 C56.53 130.8, 91.55 90.53, 158.64 13.35 M23.23 175.22 C77.16 113.17, 131.1 51.12, 162.31 15.22 M23.23 175.22 C64.51 127.73, 105.79 80.24, 162.31 15.22 M26.24 177.84 C71.5 125.78, 116.75 73.73, 165.99 17.09 M26.24 177.84 C61.59 137.19, 96.93 96.53, 165.99 17.09 M28.61 181.22 C70.25 133.32, 111.89 85.41, 169.66 18.96 M28.61 181.22 C58.22 147.15, 87.84 113.08, 169.66 18.96 M31.63 183.84 C69.26 140.55, 106.9 97.25, 172.68 21.58 M31.63 183.84 C80.71 127.38, 129.79 70.92, 172.68 21.58 M33.99 187.22 C80.79 133.39, 127.58 79.56, 175.7 24.21 M33.99 187.22 C72.95 142.4, 111.91 97.58, 175.7 24.21 M37.01 189.85 C68.08 154.11, 99.14 118.37, 178.72 26.83 M37.01 189.85 C74.04 147.25, 111.07 104.65, 178.72 26.83 M40.03 192.47 C86.38 139.15, 132.73 85.82, 182.39 28.7 M40.03 192.47 C93.31 131.17, 146.6 69.88, 182.39 28.7 M43.05 195.1 C73.45 160.12, 103.86 125.14, 184.75 32.08 M43.05 195.1 C87.28 144.2, 131.52 93.31, 184.75 32.08 M46.72 196.97 C80.66 157.92, 114.6 118.88, 187.77 34.7 M46.72 196.97 C94.52 141.97, 142.33 86.98, 187.77 34.7 M49.74 199.59 C86.83 156.93, 123.91 114.26, 190.79 37.33 M49.74 199.59 C94.62 147.96, 139.51 96.32, 190.79 37.33 M53.41 201.46 C89.91 159.48, 126.4 117.5, 193.15 40.71 M53.41 201.46 C88.09 161.57, 122.77 121.67, 193.15 40.71 M56.43 204.08 C91.33 163.93, 126.23 123.79, 195.52 44.08 M56.43 204.08 C97.53 156.81, 138.63 109.53, 195.52 44.08 M60.76 205.2 C101.85 157.94, 142.93 110.68, 197.88 47.46 M60.76 205.2 C106 153.16, 151.23 101.13, 197.88 47.46 M64.44 207.07 C97.28 169.29, 130.11 131.52, 200.24 50.84 M64.44 207.07 C113.13 151.06, 161.82 95.04, 200.24 50.84 M68.11 208.94 C107.98 163.07, 147.86 117.2, 203.26 53.47 M68.11 208.94 C103.3 168.47, 138.48 127.99, 203.26 53.47 M71.79 210.81 C121.77 153.31, 171.76 95.81, 204.97 57.6 M71.79 210.81 C101.13 177.05, 130.47 143.3, 204.97 57.6 M75.46 212.68 C116.52 165.45, 157.58 118.22, 206.68 61.73 M75.46 212.68 C110.12 172.81, 144.78 132.94, 206.68 61.73 M79.79 213.79 C127.09 159.39, 174.38 104.98, 208.38 65.87 M79.79 213.79 C117.37 170.56, 154.95 127.33, 208.38 65.87 M84.13 214.91 C115.03 179.35, 145.94 143.79, 210.09 70 M84.13 214.91 C111.14 183.83, 138.15 152.76, 210.09 70 M89.11 215.27 C115.14 185.33, 141.16 155.39, 211.8 74.14 M89.11 215.27 C136.24 161.05, 183.37 106.83, 211.8 74.14 M94.1 215.63 C131.05 173.12, 167.99 130.62, 212.85 79.02 M94.1 215.63 C133.62 170.16, 173.14 124.7, 212.85 79.02 M98.43 216.74 C130.51 179.84, 162.58 142.94, 213.9 83.91 M98.43 216.74 C122.02 189.6, 145.62 162.46, 213.9 83.91 M104.07 216.35 C143.48 171.02, 182.88 125.68, 214.95 88.8 M104.07 216.35 C136.15 179.45, 168.22 142.56, 214.95 88.8 M109.06 216.71 C131.6 190.77, 154.15 164.84, 216 93.69 M109.06 216.71 C136.81 184.79, 164.55 152.87, 216 93.69 M114.05 217.07 C150.1 175.6, 186.15 134.13, 217.05 98.58 M114.05 217.07 C145.17 181.26, 176.3 145.45, 217.05 98.58 M119.69 216.67 C142.39 190.56, 165.08 164.45, 216.79 104.97 M119.69 216.67 C154.13 177.05, 188.57 137.43, 216.79 104.97 M125.33 216.28 C152.46 185.07, 179.59 153.86, 217.84 109.86 M125.33 216.28 C147.4 190.9, 169.46 165.52, 217.84 109.86 M130.32 216.64 C151.76 191.97, 173.21 167.3, 217.58 116.26 M130.32 216.64 C155.95 187.16, 181.57 157.68, 217.58 116.26 M138.59 213.22 C163.41 184.67, 188.23 156.12, 218.63 121.15 M138.59 213.22 C163.68 184.36, 188.76 155.5, 218.63 121.15 M147.51 209.06 C169.73 183.5, 191.95 157.94, 216.4 129.81 M147.51 209.06 C173.58 179.07, 199.64 149.09, 216.4 129.81 M155.78 205.64 C176.11 182.26, 196.43 158.88, 213.51 139.23 M155.78 205.64 C178.34 179.69, 200.91 153.73, 213.51 139.23 M165.36 200.72 C175.15 189.45, 184.95 178.18, 210.63 148.64 M165.36 200.72 C179.36 184.61, 193.36 168.51, 210.63 148.64 M181.5 188.25 C187.35 181.52, 193.2 174.79, 201.18 165.61 M181.5 188.25 C187.06 181.85, 192.63 175.44, 201.18 165.61" stroke="#b2f2bb" stroke-width="0.5" fill="none"></path><path d="M216.43 108.21 C216.43 111.54, 216.27 114.88, 215.97 118.2 C215.66 121.51, 215.2 124.83, 214.59 128.1 C213.97 131.37, 213.21 134.63, 212.3 137.83 C211.39 141.03, 210.32 144.2, 209.12 147.31 C207.92 150.41, 206.57 153.47, 205.08 156.45 C203.6 159.43, 201.97 162.35, 200.22 165.18 C198.47 168.01, 196.58 170.77, 194.57 173.43 C192.57 176.08, 190.43 178.66, 188.19 181.12 C185.94 183.58, 183.58 185.94, 181.12 188.19 C178.66 190.43, 176.08 192.57, 173.43 194.57 C170.77 196.58, 168.01 198.47, 165.18 200.22 C162.35 201.97, 159.43 203.6, 156.45 205.08 C153.47 206.57, 150.41 207.92, 147.31 209.12 C144.2 210.32, 141.03 211.39, 137.83 212.3 C134.63 213.21, 131.37 213.97, 128.1 214.59 C124.83 215.2, 121.51 215.66, 118.2 215.97 C114.88 216.27, 111.54 216.43, 108.21 216.43 C104.89 216.43, 101.54 216.27, 98.23 215.97 C94.92 215.66, 91.6 215.2, 88.33 214.59 C85.06 213.97, 81.8 213.21, 78.6 212.3 C75.4 211.39, 72.23 210.32, 69.12 209.12 C66.02 207.92, 62.96 206.57, 59.98 205.08 C57 203.6, 54.08 201.97, 51.25 200.22 C48.42 198.47, 45.66 196.58, 43 194.57 C40.34 192.57, 37.77 190.43, 35.31 188.19 C32.85 185.94, 30.49 183.58, 28.24 181.12 C26 178.66, 23.86 176.08, 21.86 173.43 C19.85 170.77, 17.96 168.01, 16.21 165.18 C14.46 162.35, 12.83 159.43, 11.34 156.45 C9.86 153.47, 8.51 150.41, 7.31 147.31 C6.11 144.2, 5.04 141.03, 4.13 137.83 C3.22 134.63, 2.45 131.37, 1.84 128.1 C1.23 124.83, 0.77 121.51, 0.46 118.2 C0.15 114.88, 0 111.54, 0 108.21 C0 104.89, 0.15 101.54, 0.46 98.23 C0.77 94.92, 1.23 91.6, 1.84 88.33 C2.45 85.06, 3.22 81.8, 4.13 78.6 C5.04 75.4, 6.11 72.23, 7.31 69.12 C8.51 66.02, 9.86 62.96, 11.34 59.98 C12.83 57, 14.46 54.08, 16.21 51.25 C17.96 48.42, 19.85 45.66, 21.86 43 C23.86 40.34, 26 37.77, 28.24 35.31 C30.49 32.85, 32.85 30.49, 35.31 28.24 C37.77 26, 40.34 23.86, 43 21.86 C45.66 19.85, 48.42 17.96, 51.25 16.21 C54.08 14.46, 57 12.83, 59.98 11.34 C62.96 9.86, 66.02 8.51, 69.12 7.31 C72.23 6.11, 75.4 5.04, 78.6 4.13 C81.8 3.22, 85.06 2.45, 88.33 1.84 C91.6 1.23, 94.92 0.77, 98.23 0.46 C101.54 0.15, 104.89 0, 108.21 0 C111.54 0, 114.88 0.15, 118.2 0.46 C121.51 0.77, 124.83 1.23, 128.1 1.84 C131.37 2.45, 134.63 3.22, 137.83 4.13 C141.03 5.04, 144.2 6.11, 147.31 7.31 C150.41 8.51, 153.47 9.86, 156.45 11.34 C159.43 12.83, 162.35 14.46, 165.18 16.21 C168.01 17.96, 170.77 19.85, 173.43 21.86 C176.08 23.86, 178.66 26, 181.12 28.24 C183.58 30.49, 185.94 32.85, 188.19 35.31 C190.43 37.77, 192.57 40.34, 194.57 43 C196.58 45.66, 198.47 48.42, 200.22 51.25 C201.97 54.08, 203.6 57, 205.08 59.98 C206.57 62.96, 207.92 66.02, 209.12 69.12 C210.32 72.23, 211.39 75.4, 212.3 78.6 C213.21 81.8, 213.97 85.06, 214.59 88.33 C215.2 91.6, 215.66 94.92, 215.97 98.23 C216.27 101.54, 216.35 106.55, 216.43 108.21 C216.51 109.88, 216.51 106.55, 216.43 108.21" stroke="#1e1e1e" stroke-width="1" fill="none"></path></g></g><g clip-path="url(#6W6sb72G7DcVsOhnLpMwe)"><g transform="translate(322.70535750822 137.85113440087412) rotate(0 46.875 12)"><text x="46.875" y="0" font-family="Cascadia, Segoe UI Emoji" font-size="20px" fill="#1e1e1e" text-anchor="middle" style="white-space: pre;" direction="ltr" dominant-baseline="text-before-edge">noSpaces</text></g></g><g clip-path="url(#6W6sb72G7DcVsOhnLpMwe)"><g stroke-linecap="round" transform="translate(32.533682028655676 285.8879029957866) rotate(0 108.21428571428578 108.2142857142859)"><path d="M28.32 35.22 C28.32 35.22, 28.32 35.22, 28.32 35.22 M28.32 35.22 C28.32 35.22, 28.32 35.22, 28.32 35.22 M11.66 60.49 C18.96 52.08, 26.27 43.68, 44.46 22.75 M11.66 60.49 C23.53 46.83, 35.41 33.17, 44.46 22.75 M8.77 69.9 C22.4 54.22, 36.03 38.55, 53.39 18.58 M8.77 69.9 C23.15 53.36, 37.53 36.82, 53.39 18.58 M5.23 80.07 C22.37 60.36, 39.5 40.65, 62.96 13.66 M5.23 80.07 C25.64 56.59, 46.05 33.11, 62.96 13.66 M3 88.74 C22.95 65.78, 42.9 42.83, 71.89 9.49 M3 88.74 C19.03 70.29, 35.06 51.85, 71.89 9.49 M1.43 96.64 C27.65 66.47, 53.88 36.31, 80.16 6.08 M1.43 96.64 C17.25 78.44, 33.07 60.24, 80.16 6.08 M3.14 100.78 C34.67 64.5, 66.2 28.23, 89.08 1.91 M3.14 100.78 C27.13 73.17, 51.13 45.56, 89.08 1.91 M0.91 109.44 C24.88 81.86, 48.85 54.28, 94.72 1.51 M0.91 109.44 C27.54 78.8, 54.17 48.16, 94.72 1.51 M1.3 115.08 C33.07 78.53, 64.85 41.98, 99.71 1.87 M1.3 115.08 C34.98 76.33, 68.67 37.58, 99.71 1.87 M2.35 119.97 C42.15 74.19, 81.95 28.4, 105.35 1.48 M2.35 119.97 C34.12 83.42, 65.9 46.87, 105.35 1.48 M3.4 124.86 C34.59 88.98, 65.78 53.1, 110.34 1.84 M3.4 124.86 C33.21 90.56, 63.03 56.27, 110.34 1.84 M4.45 129.75 C42.87 85.55, 81.29 41.35, 115.33 2.2 M4.45 129.75 C27.46 103.28, 50.46 76.82, 115.33 2.2 M5.5 134.63 C34.86 100.86, 64.22 67.09, 120.31 2.56 M5.5 134.63 C31.02 105.27, 56.55 75.92, 120.31 2.56 M6.55 139.52 C48.72 91.02, 90.88 42.52, 125.3 2.92 M6.55 139.52 C35.08 106.71, 63.6 73.9, 125.3 2.92 M7.6 144.41 C50.05 95.58, 92.5 46.76, 130.29 3.28 M7.6 144.41 C42.31 104.49, 77.01 64.57, 130.29 3.28 M9.31 148.55 C50.63 101.02, 91.94 53.49, 134.62 4.4 M9.31 148.55 C45.96 106.38, 82.61 64.22, 134.62 4.4 M11.02 152.68 C54.75 102.37, 98.48 52.06, 138.95 5.51 M11.02 152.68 C42.64 116.3, 74.26 79.93, 138.95 5.51 M12.07 157.57 C62.79 99.22, 113.51 40.87, 143.28 6.63 M12.07 157.57 C61.51 100.7, 110.94 43.82, 143.28 6.63 M14.43 160.95 C63.85 104.09, 113.28 47.24, 147.61 7.74 M14.43 160.95 C51.51 118.29, 88.59 75.64, 147.61 7.74 M16.14 165.08 C62.1 112.2, 108.07 59.33, 151.29 9.61 M16.14 165.08 C61.02 113.45, 105.9 61.83, 151.29 9.61 M19.16 167.7 C47.81 134.74, 76.47 101.77, 155.62 10.72 M19.16 167.7 C48.68 133.74, 78.2 99.78, 155.62 10.72 M21.52 171.08 C49.4 139.01, 77.28 106.94, 158.64 13.35 M21.52 171.08 C65.93 119.99, 110.34 68.9, 158.64 13.35 M23.23 175.22 C76.53 113.9, 129.83 52.59, 162.31 15.22 M23.23 175.22 C61.79 130.85, 100.36 86.48, 162.31 15.22 M26.24 177.84 C66.44 131.6, 106.64 85.36, 165.99 17.09 M26.24 177.84 C74.37 122.48, 122.5 67.11, 165.99 17.09 M28.61 181.22 C65.83 138.4, 103.05 95.58, 169.66 18.96 M28.61 181.22 C78.57 123.75, 128.52 66.28, 169.66 18.96 M31.63 183.84 C74.35 134.7, 117.07 85.55, 172.68 21.58 M31.63 183.84 C75.67 133.18, 119.71 82.52, 172.68 21.58 M33.99 187.22 C86.92 126.33, 139.86 65.43, 175.7 24.21 M33.99 187.22 C78.83 135.64, 123.68 84.05, 175.7 24.21 M37.01 189.85 C73.47 147.9, 109.93 105.96, 178.72 26.83 M37.01 189.85 C89.81 129.1, 142.62 68.35, 178.72 26.83 M40.03 192.47 C80.2 146.25, 120.38 100.03, 182.39 28.7 M40.03 192.47 C84.18 141.68, 128.33 90.89, 182.39 28.7 M43.05 195.1 C93.72 136.8, 144.4 78.5, 184.75 32.08 M43.05 195.1 C99.36 130.31, 155.68 65.52, 184.75 32.08 M46.72 196.97 C90.21 146.94, 133.69 96.91, 187.77 34.7 M46.72 196.97 C83.08 155.13, 119.45 113.3, 187.77 34.7 M49.74 199.59 C93.32 149.45, 136.91 99.31, 190.79 37.33 M49.74 199.59 C89.93 153.35, 130.12 107.12, 190.79 37.33 M53.41 201.46 C83.97 166.3, 114.53 131.15, 193.15 40.71 M53.41 201.46 C103.53 143.81, 153.64 86.17, 193.15 40.71 M56.43 204.08 C86.34 169.68, 116.25 135.28, 195.52 44.08 M56.43 204.08 C92.61 162.46, 128.8 120.84, 195.52 44.08 M60.76 205.2 C105.83 153.35, 150.9 101.51, 197.88 47.46 M60.76 205.2 C114 143.96, 167.23 82.72, 197.88 47.46 M64.44 207.07 C102.16 163.68, 139.87 120.29, 200.24 50.84 M64.44 207.07 C115.3 148.56, 166.15 90.06, 200.24 50.84 M68.11 208.94 C95.42 177.53, 122.72 146.12, 203.26 53.47 M68.11 208.94 C122.04 146.9, 175.96 84.87, 203.26 53.47 M71.79 210.81 C111.42 165.22, 151.05 119.63, 204.97 57.6 M71.79 210.81 C99.23 179.24, 126.67 147.67, 204.97 57.6 M75.46 212.68 C121.51 159.71, 167.55 106.74, 206.68 61.73 M75.46 212.68 C104.29 179.51, 133.12 146.35, 206.68 61.73 M79.79 213.79 C127.82 158.55, 175.84 103.31, 208.38 65.87 M79.79 213.79 C126.01 160.62, 172.23 107.45, 208.38 65.87 M84.13 214.91 C126.44 166.23, 168.76 117.55, 210.09 70 M84.13 214.91 C128.94 163.36, 173.75 111.81, 210.09 70 M89.11 215.27 C113.98 186.66, 138.85 158.05, 211.8 74.14 M89.11 215.27 C133.99 163.64, 178.87 112.01, 211.8 74.14 M94.1 215.63 C125.71 179.27, 157.32 142.9, 212.85 79.02 M94.1 215.63 C128.43 176.13, 162.76 136.64, 212.85 79.02 M98.43 216.74 C142.44 166.12, 186.45 115.49, 213.9 83.91 M98.43 216.74 C142.65 165.87, 186.86 115.01, 213.9 83.91 M104.07 216.35 C137.24 178.19, 170.4 140.04, 214.95 88.8 M104.07 216.35 C146.01 168.1, 187.95 119.85, 214.95 88.8 M109.06 216.71 C141.45 179.44, 173.85 142.18, 216 93.69 M109.06 216.71 C140.62 180.4, 172.18 144.1, 216 93.69 M114.05 217.07 C149.14 176.69, 184.24 136.32, 217.05 98.58 M114.05 217.07 C150.96 174.61, 187.86 132.15, 217.05 98.58 M119.69 216.67 C145 187.55, 170.32 158.43, 216.79 104.97 M119.69 216.67 C140.39 192.86, 161.09 169.05, 216.79 104.97 M125.33 216.28 C157.28 179.53, 189.22 142.78, 217.84 109.86 M125.33 216.28 C147.62 190.64, 169.91 165, 217.84 109.86 M130.32 216.64 C160.48 181.95, 190.64 147.25, 217.58 116.26 M130.32 216.64 C163.01 179.04, 195.69 141.44, 217.58 116.26 M138.59 213.22 C155.86 193.36, 173.12 173.5, 218.63 121.15 M138.59 213.22 C155.74 193.49, 172.9 173.76, 218.63 121.15 M147.51 209.06 C171.43 181.54, 195.34 154.03, 216.4 129.81 M147.51 209.06 C164.27 189.78, 181.03 170.49, 216.4 129.81 M155.78 205.64 C173.28 185.5, 190.79 165.37, 213.51 139.23 M155.78 205.64 C175.59 182.85, 195.41 160.05, 213.51 139.23 M165.36 200.72 C176.82 187.53, 188.29 174.34, 210.63 148.64 M165.36 200.72 C174.86 189.79, 184.36 178.86, 210.63 148.64 M181.5 188.25 C187.55 181.29, 193.6 174.33, 201.18 165.61 M181.5 188.25 C186.79 182.16, 192.09 176.07, 201.18 165.61" stroke="#b2f2bb" stroke-width="0.5" fill="none"></path><path d="M216.43 108.21 C216.43 111.54, 216.27 114.88, 215.97 118.2 C215.66 121.51, 215.2 124.83, 214.59 128.1 C213.97 131.37, 213.21 134.63, 212.3 137.83 C211.39 141.03, 210.32 144.2, 209.12 147.31 C207.92 150.41, 206.57 153.47, 205.08 156.45 C203.6 159.43, 201.97 162.35, 200.22 165.18 C198.47 168.01, 196.58 170.77, 194.57 173.43 C192.57 176.08, 190.43 178.66, 188.19 181.12 C185.94 183.58, 183.58 185.94, 181.12 188.19 C178.66 190.43, 176.08 192.57, 173.43 194.57 C170.77 196.58, 168.01 198.47, 165.18 200.22 C162.35 201.97, 159.43 203.6, 156.45 205.08 C153.47 206.57, 150.41 207.92, 147.31 209.12 C144.2 210.32, 141.03 211.39, 137.83 212.3 C134.63 213.21, 131.37 213.97, 128.1 214.59 C124.83 215.2, 121.51 215.66, 118.2 215.97 C114.88 216.27, 111.54 216.43, 108.21 216.43 C104.89 216.43, 101.54 216.27, 98.23 215.97 C94.92 215.66, 91.6 215.2, 88.33 214.59 C85.06 213.97, 81.8 213.21, 78.6 212.3 C75.4 211.39, 72.23 210.32, 69.12 209.12 C66.02 207.92, 62.96 206.57, 59.98 205.08 C57 203.6, 54.08 201.97, 51.25 200.22 C48.42 198.47, 45.66 196.58, 43 194.57 C40.34 192.57, 37.77 190.43, 35.31 188.19 C32.85 185.94, 30.49 183.58, 28.24 181.12 C26 178.66, 23.86 176.08, 21.86 173.43 C19.85 170.77, 17.96 168.01, 16.21 165.18 C14.46 162.35, 12.83 159.43, 11.34 156.45 C9.86 153.47, 8.51 150.41, 7.31 147.31 C6.11 144.2, 5.04 141.03, 4.13 137.83 C3.22 134.63, 2.45 131.37, 1.84 128.1 C1.23 124.83, 0.77 121.51, 0.46 118.2 C0.15 114.88, 0 111.54, 0 108.21 C0 104.89, 0.15 101.54, 0.46 98.23 C0.77 94.92, 1.23 91.6, 1.84 88.33 C2.45 85.06, 3.22 81.8, 4.13 78.6 C5.04 75.4, 6.11 72.23, 7.31 69.12 C8.51 66.02, 9.86 62.96, 11.34 59.98 C12.83 57, 14.46 54.08, 16.21 51.25 C17.96 48.42, 19.85 45.66, 21.86 43 C23.86 40.34, 26 37.77, 28.24 35.31 C30.49 32.85, 32.85 30.49, 35.31 28.24 C37.77 26, 40.34 23.86, 43 21.86 C45.66 19.85, 48.42 17.96, 51.25 16.21 C54.08 14.46, 57 12.83, 59.98 11.34 C62.96 9.86, 66.02 8.51, 69.12 7.31 C72.23 6.11, 75.4 5.04, 78.6 4.13 C81.8 3.22, 85.06 2.45, 88.33 1.84 C91.6 1.23, 94.92 0.77, 98.23 0.46 C101.54 0.15, 104.89 0, 108.21 0 C111.54 0, 114.88 0.15, 118.2 0.46 C121.51 0.77, 124.83 1.23, 128.1 1.84 C131.37 2.45, 134.63 3.22, 137.83 4.13 C141.03 5.04, 144.2 6.11, 147.31 7.31 C150.41 8.51, 153.47 9.86, 156.45 11.34 C159.43 12.83, 162.35 14.46, 165.18 16.21 C168.01 17.96, 170.77 19.85, 173.43 21.86 C176.08 23.86, 178.66 26, 181.12 28.24 C183.58 30.49, 185.94 32.85, 188.19 35.31 C190.43 37.77, 192.57 40.34, 194.57 43 C196.58 45.66, 198.47 48.42, 200.22 51.25 C201.97 54.08, 203.6 57, 205.08 59.98 C206.57 62.96, 207.92 66.02, 209.12 69.12 C210.32 72.23, 211.39 75.4, 212.3 78.6 C213.21 81.8, 213.97 85.06, 214.59 88.33 C215.2 91.6, 215.66 94.92, 215.97 98.23 C216.27 101.54, 216.35 106.55, 216.43 108.21 C216.51 109.88, 216.51 106.55, 216.43 108.21" stroke="#1e1e1e" stroke-width="1" fill="none"></path></g></g><g clip-path="url(#6W6sb72G7DcVsOhnLpMwe)"><g transform="translate(111.43203749311124 382.08313346024215) rotate(0 29.296875 12)"><text x="29.296875" y="0" font-family="Cascadia, Segoe UI Emoji" font-size="20px" fill="#1e1e1e" text-anchor="middle" style="white-space: pre;" direction="ltr" dominant-baseline="text-before-edge">email</text></g></g><g clip-path="url(#6W6sb72G7DcVsOhnLpMwe)"><g stroke-linecap="round" transform="translate(568.1593383064537 68.34416101912552) rotate(0 108.21428571428578 108.2142857142859)"><path d="M28.32 35.22 C28.32 35.22, 28.32 35.22, 28.32 35.22 M28.32 35.22 C28.32 35.22, 28.32 35.22, 28.32 35.22 M11.66 60.49 C23.65 46.69, 35.64 32.9, 44.46 22.75 M11.66 60.49 C18.44 52.69, 25.21 44.9, 44.46 22.75 M8.77 69.9 C22.13 54.54, 35.49 39.17, 53.39 18.58 M8.77 69.9 C18.19 59.07, 27.6 48.24, 53.39 18.58 M5.23 80.07 C20.62 62.37, 36.01 44.66, 62.96 13.66 M5.23 80.07 C26.16 56, 47.08 31.93, 62.96 13.66 M3 88.74 C30.28 57.36, 57.55 25.98, 71.89 9.49 M3 88.74 C25.52 62.83, 48.03 36.93, 71.89 9.49 M1.43 96.64 C26.83 67.42, 52.23 38.21, 80.16 6.08 M1.43 96.64 C23.83 70.88, 46.22 45.11, 80.16 6.08 M3.14 100.78 C30.82 68.93, 58.51 37.08, 89.08 1.91 M3.14 100.78 C24.23 76.51, 45.32 52.25, 89.08 1.91 M0.91 109.44 C33.28 72.2, 65.65 34.96, 94.72 1.51 M0.91 109.44 C25.76 80.85, 50.62 52.25, 94.72 1.51 M1.3 115.08 C35.85 75.34, 70.4 35.59, 99.71 1.87 M1.3 115.08 C36.68 74.38, 72.07 33.67, 99.71 1.87 M2.35 119.97 C37.75 79.25, 73.15 38.52, 105.35 1.48 M2.35 119.97 C35.56 81.77, 68.76 43.57, 105.35 1.48 M3.4 124.86 C35.94 87.42, 68.49 49.99, 110.34 1.84 M3.4 124.86 C28.94 95.48, 54.48 66.1, 110.34 1.84 M4.45 129.75 C29.6 100.81, 54.75 71.88, 115.33 2.2 M4.45 129.75 C37.95 91.21, 71.44 52.68, 115.33 2.2 M5.5 134.63 C34.42 101.37, 63.34 68.1, 120.31 2.56 M5.5 134.63 C43.29 91.16, 81.08 47.69, 120.31 2.56 M6.55 139.52 C42.32 98.38, 78.09 57.23, 125.3 2.92 M6.55 139.52 C51.19 88.18, 95.83 36.83, 125.3 2.92 M7.6 144.41 C33.63 114.47, 59.66 84.53, 130.29 3.28 M7.6 144.41 C38.66 108.68, 69.72 72.96, 130.29 3.28 M9.31 148.55 C55.92 94.93, 102.53 41.31, 134.62 4.4 M9.31 148.55 C52.18 99.23, 95.05 49.92, 134.62 4.4 M11.02 152.68 C43.26 115.58, 75.51 78.49, 138.95 5.51 M11.02 152.68 C50.67 107.06, 90.33 61.44, 138.95 5.51 M12.07 157.57 C43.91 120.94, 75.75 84.31, 143.28 6.63 M12.07 157.57 C54.8 108.41, 97.53 59.25, 143.28 6.63 M14.43 160.95 C65.96 101.67, 117.48 42.4, 147.61 7.74 M14.43 160.95 C64.42 103.44, 114.41 45.94, 147.61 7.74 M16.14 165.08 C45.24 131.6, 74.34 98.12, 151.29 9.61 M16.14 165.08 C53.72 121.85, 91.3 78.61, 151.29 9.61 M19.16 167.7 C57.42 123.69, 95.68 79.68, 155.62 10.72 M19.16 167.7 C46.65 136.07, 74.15 104.44, 155.62 10.72 M21.52 171.08 C75.06 109.49, 128.6 47.9, 158.64 13.35 M21.52 171.08 C59.55 127.33, 97.59 83.57, 158.64 13.35 M23.23 175.22 C71.17 120.06, 119.11 64.91, 162.31 15.22 M23.23 175.22 C67.36 124.45, 111.49 73.68, 162.31 15.22 M26.24 177.84 C77.53 118.85, 128.81 59.86, 165.99 17.09 M26.24 177.84 C58.14 141.15, 90.03 104.47, 165.99 17.09 M28.61 181.22 C62.53 142.19, 96.45 103.17, 169.66 18.96 M28.61 181.22 C74.89 127.98, 121.17 74.73, 169.66 18.96 M31.63 183.84 C79.89 128.32, 128.15 72.81, 172.68 21.58 M31.63 183.84 C82.65 125.15, 133.67 66.46, 172.68 21.58 M33.99 187.22 C87.39 125.79, 140.79 64.36, 175.7 24.21 M33.99 187.22 C64.59 152.02, 95.19 116.82, 175.7 24.21 M37.01 189.85 C67.02 155.32, 97.04 120.79, 178.72 26.83 M37.01 189.85 C84.57 135.13, 132.14 80.41, 178.72 26.83 M40.03 192.47 C70.09 157.89, 100.15 123.3, 182.39 28.7 M40.03 192.47 C74.09 153.29, 108.15 114.1, 182.39 28.7 M43.05 195.1 C81.33 151.06, 119.61 107.02, 184.75 32.08 M43.05 195.1 C90.42 140.6, 137.8 86.1, 184.75 32.08 M46.72 196.97 C96.01 140.26, 145.31 83.56, 187.77 34.7 M46.72 196.97 C79.61 159.13, 112.5 121.29, 187.77 34.7 M49.74 199.59 C93.44 149.32, 137.13 99.05, 190.79 37.33 M49.74 199.59 C101.73 139.78, 153.72 79.98, 190.79 37.33 M53.41 201.46 C87.8 161.9, 122.19 122.34, 193.15 40.71 M53.41 201.46 C96.64 151.73, 139.86 102.01, 193.15 40.71 M56.43 204.08 C101.2 152.58, 145.97 101.08, 195.52 44.08 M56.43 204.08 C108.71 143.95, 160.98 83.81, 195.52 44.08 M60.76 205.2 C102.42 157.28, 144.08 109.35, 197.88 47.46 M60.76 205.2 C109.57 149.06, 158.37 92.92, 197.88 47.46 M64.44 207.07 C118.21 145.22, 171.97 83.37, 200.24 50.84 M64.44 207.07 C107.92 157.05, 151.39 107.04, 200.24 50.84 M68.11 208.94 C118.65 150.8, 169.19 92.66, 203.26 53.47 M68.11 208.94 C113.76 156.43, 159.4 103.93, 203.26 53.47 M71.79 210.81 C101.07 177.12, 130.35 143.44, 204.97 57.6 M71.79 210.81 C110.68 166.07, 149.56 121.34, 204.97 57.6 M75.46 212.68 C109.07 174.02, 142.67 135.36, 206.68 61.73 M75.46 212.68 C127.43 152.89, 179.4 93.11, 206.68 61.73 M79.79 213.79 C128.67 157.56, 177.55 101.34, 208.38 65.87 M79.79 213.79 C106.61 182.95, 133.42 152.1, 208.38 65.87 M84.13 214.91 C134.32 157.17, 184.51 99.43, 210.09 70 M84.13 214.91 C128.07 164.35, 172.01 113.8, 210.09 70 M89.11 215.27 C121.2 178.36, 153.28 141.45, 211.8 74.14 M89.11 215.27 C127.56 171.04, 166.01 126.81, 211.8 74.14 M94.1 215.63 C141.31 161.32, 188.52 107.01, 212.85 79.02 M94.1 215.63 C140.48 162.27, 186.86 108.92, 212.85 79.02 M98.43 216.74 C138.54 170.6, 178.64 124.47, 213.9 83.91 M98.43 216.74 C130.4 179.97, 162.36 143.19, 213.9 83.91 M104.07 216.35 C137.16 178.29, 170.24 140.23, 214.95 88.8 M104.07 216.35 C147.56 166.32, 191.04 116.3, 214.95 88.8 M109.06 216.71 C143.21 177.43, 177.35 138.14, 216 93.69 M109.06 216.71 C140.68 180.33, 172.3 143.95, 216 93.69 M114.05 217.07 C144.37 182.19, 174.68 147.31, 217.05 98.58 M114.05 217.07 C134.78 193.21, 155.52 169.36, 217.05 98.58 M119.69 216.67 C154.41 176.73, 189.13 136.79, 216.79 104.97 M119.69 216.67 C157.88 172.74, 196.07 128.81, 216.79 104.97 M125.33 216.28 C146.37 192.08, 167.4 167.89, 217.84 109.86 M125.33 216.28 C156.98 179.87, 188.62 143.47, 217.84 109.86 M130.32 216.64 C151.33 192.47, 172.33 168.31, 217.58 116.26 M130.32 216.64 C158.21 184.56, 186.1 152.47, 217.58 116.26 M138.59 213.22 C161.62 186.73, 184.65 160.24, 218.63 121.15 M138.59 213.22 C163.82 184.2, 189.05 155.18, 218.63 121.15 M147.51 209.06 C164.44 189.58, 181.37 170.1, 216.4 129.81 M147.51 209.06 C164.81 189.16, 182.1 169.26, 216.4 129.81 M155.78 205.64 C173.92 184.78, 192.05 163.91, 213.51 139.23 M155.78 205.64 C172.98 185.85, 190.18 166.06, 213.51 139.23 M165.36 200.72 C176.59 187.79, 187.83 174.87, 210.63 148.64 M165.36 200.72 C178.52 185.58, 191.68 170.43, 210.63 148.64 M181.5 188.25 C187.28 181.6, 193.07 174.94, 201.18 165.61 M181.5 188.25 C186.3 182.72, 191.11 177.19, 201.18 165.61" stroke="#a5d8ff" stroke-width="0.5" fill="none"></path><path d="M216.43 108.21 C216.43 111.54, 216.27 114.88, 215.97 118.2 C215.66 121.51, 215.2 124.83, 214.59 128.1 C213.97 131.37, 213.21 134.63, 212.3 137.83 C211.39 141.03, 210.32 144.2, 209.12 147.31 C207.92 150.41, 206.57 153.47, 205.08 156.45 C203.6 159.43, 201.97 162.35, 200.22 165.18 C198.47 168.01, 196.58 170.77, 194.57 173.43 C192.57 176.08, 190.43 178.66, 188.19 181.12 C185.94 183.58, 183.58 185.94, 181.12 188.19 C178.66 190.43, 176.08 192.57, 173.43 194.57 C170.77 196.58, 168.01 198.47, 165.18 200.22 C162.35 201.97, 159.43 203.6, 156.45 205.08 C153.47 206.57, 150.41 207.92, 147.31 209.12 C144.2 210.32, 141.03 211.39, 137.83 212.3 C134.63 213.21, 131.37 213.97, 128.1 214.59 C124.83 215.2, 121.51 215.66, 118.2 215.97 C114.88 216.27, 111.54 216.43, 108.21 216.43 C104.89 216.43, 101.54 216.27, 98.23 215.97 C94.92 215.66, 91.6 215.2, 88.33 214.59 C85.06 213.97, 81.8 213.21, 78.6 212.3 C75.4 211.39, 72.23 210.32, 69.12 209.12 C66.02 207.92, 62.96 206.57, 59.98 205.08 C57 203.6, 54.08 201.97, 51.25 200.22 C48.42 198.47, 45.66 196.58, 43 194.57 C40.34 192.57, 37.77 190.43, 35.31 188.19 C32.85 185.94, 30.49 183.58, 28.24 181.12 C26 178.66, 23.86 176.08, 21.86 173.43 C19.85 170.77, 17.96 168.01, 16.21 165.18 C14.46 162.35, 12.83 159.43, 11.34 156.45 C9.86 153.47, 8.51 150.41, 7.31 147.31 C6.11 144.2, 5.04 141.03, 4.13 137.83 C3.22 134.63, 2.45 131.37, 1.84 128.1 C1.23 124.83, 0.77 121.51, 0.46 118.2 C0.15 114.88, 0 111.54, 0 108.21 C0 104.89, 0.15 101.54, 0.46 98.23 C0.77 94.92, 1.23 91.6, 1.84 88.33 C2.45 85.06, 3.22 81.8, 4.13 78.6 C5.04 75.4, 6.11 72.23, 7.31 69.12 C8.51 66.02, 9.86 62.96, 11.34 59.98 C12.83 57, 14.46 54.08, 16.21 51.25 C17.96 48.42, 19.85 45.66, 21.86 43 C23.86 40.34, 26 37.77, 28.24 35.31 C30.49 32.85, 32.85 30.49, 35.31 28.24 C37.77 26, 40.34 23.86, 43 21.86 C45.66 19.85, 48.42 17.96, 51.25 16.21 C54.08 14.46, 57 12.83, 59.98 11.34 C62.96 9.86, 66.02 8.51, 69.12 7.31 C72.23 6.11, 75.4 5.04, 78.6 4.13 C81.8 3.22, 85.06 2.45, 88.33 1.84 C91.6 1.23, 94.92 0.77, 98.23 0.46 C101.54 0.15, 104.89 0, 108.21 0 C111.54 0, 114.88 0.15, 118.2 0.46 C121.51 0.77, 124.83 1.23, 128.1 1.84 C131.37 2.45, 134.63 3.22, 137.83 4.13 C141.03 5.04, 144.2 6.11, 147.31 7.31 C150.41 8.51, 153.47 9.86, 156.45 11.34 C159.43 12.83, 162.35 14.46, 165.18 16.21 C168.01 17.96, 170.77 19.85, 173.43 21.86 C176.08 23.86, 178.66 26, 181.12 28.24 C183.58 30.49, 185.94 32.85, 188.19 35.31 C190.43 37.77, 192.57 40.34, 194.57 43 C196.58 45.66, 198.47 48.42, 200.22 51.25 C201.97 54.08, 203.6 57, 205.08 59.98 C206.57 62.96, 207.92 66.02, 209.12 69.12 C210.32 72.23, 211.39 75.4, 212.3 78.6 C213.21 81.8, 213.97 85.06, 214.59 88.33 C215.2 91.6, 215.66 94.92, 215.97 98.23 C216.27 101.54, 216.35 106.55, 216.43 108.21 C216.51 109.88, 216.51 106.55, 216.43 108.21" stroke="#1e1e1e" stroke-width="1" fill="none"></path></g></g><g clip-path="url(#6W6sb72G7DcVsOhnLpMwe)"><g transform="translate(635.3389437709093 164.5393914835813) rotate(0 41.015625 12)"><text x="41.015625" y="0" font-family="Cascadia, Segoe UI Emoji" font-size="20px" fill="#1e1e1e" text-anchor="middle" style="white-space: pre;" direction="ltr" dominant-baseline="text-before-edge">between</text></g></g><g clip-path="url(#6W6sb72G7DcVsOhnLpMwe)"><g stroke-linecap="round"><g transform="translate(563.4696822688338 144.35494615185735) rotate(0 4.439472247306185 0.23219772271829697)"><path d="M0 0 C1.48 0.08, 7.4 0.39, 8.88 0.46 M0 0 C1.48 0.08, 7.4 0.39, 8.88 0.46" stroke="#1e1e1e" stroke-width="2" fill="none"></path></g></g><mask></mask></g><g clip-path="url(#6W6sb72G7DcVsOhnLpMwe)"><g transform="translate(553.0762825772244 134.70830210781128) rotate(0 4.6875 9.600000000000023)"><text x="0" y="0" font-family="Cascadia, Segoe UI Emoji" font-size="16px" fill="#1e1e1e" text-anchor="start" style="white-space: pre;" direction="ltr" dominant-baseline="text-before-edge">y</text></g></g><g clip-path="url(#6W6sb72G7DcVsOhnLpMwe)"><g stroke-linecap="round"><g transform="translate(563.9677936167436 134.69212818374376) rotate(0 5.908434475622471 0.24005449291973946)"><path d="M0 0 C1.97 0.08, 9.85 0.4, 11.82 0.48 M0 0 C1.97 0.08, 9.85 0.4, 11.82 0.48" stroke="#1e1e1e" stroke-width="2" fill="none"></path></g></g><mask></mask></g><g clip-path="url(#6W6sb72G7DcVsOhnLpMwe)"><g transform="translate(553.7310382192591 123.61372848629594) rotate(0 4.6875 9.600000000000023)"><text x="0" y="0" font-family="Cascadia, Segoe UI Emoji" font-size="16px" fill="#1e1e1e" text-anchor="start" style="white-space: pre;" direction="ltr" dominant-baseline="text-before-edge">x</text></g></g><g clip-path="url(#6W6sb72G7DcVsOhnLpMwe)"><g stroke-linecap="round" transform="translate(543.9637671923856 126.46214483623794) rotate(0 31.359780451930874 14.702037647273073)"><path d="M7.35 0 M7.35 0 C20.09 0, 32.83 0, 55.37 0 M55.37 0 C60.27 0, 62.72 2.45, 62.72 7.35 M62.72 7.35 C62.72 13.03, 62.72 18.7, 62.72 22.05 M62.72 22.05 C62.72 26.95, 60.27 29.4, 55.37 29.4 M55.37 29.4 C37.86 29.4, 20.36 29.4, 7.35 29.4 M7.35 29.4 C2.45 29.4, 0 26.95, 0 22.05 M0 22.05 C0 17.43, 0 12.81, 0 7.35 M0 7.35 C0 2.45, 2.45 0, 7.35 0" stroke="#1e1e1e" stroke-width="1.5" fill="none" stroke-dasharray="8 9"></path></g></g><g clip-path="url(#6W6sb72G7DcVsOhnLpMwe)"><g stroke-linecap="round" transform="translate(568.4552448139812 298.2722278115116) rotate(0 108.21428571428578 108.2142857142859)"><path d="M28.32 35.22 C28.32 35.22, 28.32 35.22, 28.32 35.22 M28.32 35.22 C28.32 35.22, 28.32 35.22, 28.32 35.22 M11.66 60.49 C21.22 49.49, 30.78 38.49, 44.46 22.75 M11.66 60.49 C18.97 52.07, 26.28 43.66, 44.46 22.75 M8.77 69.9 C21.39 55.39, 34.01 40.87, 53.39 18.58 M8.77 69.9 C20.86 55.99, 32.96 42.08, 53.39 18.58 M5.23 80.07 C22.8 59.86, 40.37 39.66, 62.96 13.66 M5.23 80.07 C28.32 53.51, 51.41 26.96, 62.96 13.66 M3 88.74 C25.97 62.31, 48.94 35.89, 71.89 9.49 M3 88.74 C17.86 71.64, 32.72 54.54, 71.89 9.49 M1.43 96.64 C22.81 72.05, 44.19 47.45, 80.16 6.08 M1.43 96.64 C17.64 77.99, 33.86 59.33, 80.16 6.08 M3.14 100.78 C33.99 65.28, 64.85 29.79, 89.08 1.91 M3.14 100.78 C26.65 73.73, 50.16 46.68, 89.08 1.91 M0.91 109.44 C28.2 78.04, 55.49 46.64, 94.72 1.51 M0.91 109.44 C35.74 69.36, 70.58 29.29, 94.72 1.51 M1.3 115.08 C24.22 88.72, 47.13 62.36, 99.71 1.87 M1.3 115.08 C24.56 88.32, 47.83 61.56, 99.71 1.87 M2.35 119.97 C37.01 80.1, 71.66 40.24, 105.35 1.48 M2.35 119.97 C25.48 93.36, 48.61 66.76, 105.35 1.48 M3.4 124.86 C41.36 81.2, 79.31 37.53, 110.34 1.84 M3.4 124.86 C29.55 94.77, 55.7 64.69, 110.34 1.84 M4.45 129.75 C44.24 83.98, 84.03 38.2, 115.33 2.2 M4.45 129.75 C47.98 79.67, 91.52 29.59, 115.33 2.2 M5.5 134.63 C45.88 88.18, 86.26 41.73, 120.31 2.56 M5.5 134.63 C38.42 96.76, 71.35 58.89, 120.31 2.56 M6.55 139.52 C52.32 86.87, 98.09 34.22, 125.3 2.92 M6.55 139.52 C42.3 98.4, 78.05 57.27, 125.3 2.92 M7.6 144.41 C53.76 91.32, 99.92 38.22, 130.29 3.28 M7.6 144.41 C44.43 102.05, 81.26 59.68, 130.29 3.28 M9.31 148.55 C36.88 116.83, 64.45 85.12, 134.62 4.4 M9.31 148.55 C43.61 109.09, 77.91 69.63, 134.62 4.4 M11.02 152.68 C37.64 122.05, 64.27 91.42, 138.95 5.51 M11.02 152.68 C45.62 112.87, 80.22 73.07, 138.95 5.51 M12.07 157.57 C57.07 105.8, 102.07 54.04, 143.28 6.63 M12.07 157.57 C42.64 122.4, 73.2 87.24, 143.28 6.63 M14.43 160.95 C61.52 106.78, 108.6 52.61, 147.61 7.74 M14.43 160.95 C58.6 110.13, 102.78 59.31, 147.61 7.74 M16.14 165.08 C44.69 132.24, 73.24 99.39, 151.29 9.61 M16.14 165.08 C70.14 102.96, 124.14 40.84, 151.29 9.61 M19.16 167.7 C66.27 113.5, 113.39 59.3, 155.62 10.72 M19.16 167.7 C55.5 125.9, 91.83 84.1, 155.62 10.72 M21.52 171.08 C70.66 114.55, 119.81 58.01, 158.64 13.35 M21.52 171.08 C75.37 109.13, 129.22 47.19, 158.64 13.35 M23.23 175.22 C56.97 136.4, 90.71 97.59, 162.31 15.22 M23.23 175.22 C51.77 142.38, 80.32 109.54, 162.31 15.22 M26.24 177.84 C67.4 130.49, 108.56 83.15, 165.99 17.09 M26.24 177.84 C72.38 124.77, 118.51 71.7, 165.99 17.09 M28.61 181.22 C75.35 127.45, 122.09 73.68, 169.66 18.96 M28.61 181.22 C74.86 128.01, 121.12 74.8, 169.66 18.96 M31.63 183.84 C60.72 150.38, 89.81 116.91, 172.68 21.58 M31.63 183.84 C77.87 130.65, 124.11 77.45, 172.68 21.58 M33.99 187.22 C65.73 150.71, 97.48 114.19, 175.7 24.21 M33.99 187.22 C85.3 128.19, 136.62 69.16, 175.7 24.21 M37.01 189.85 C73.39 147.99, 109.78 106.13, 178.72 26.83 M37.01 189.85 C65.4 157.18, 93.8 124.51, 178.72 26.83 M40.03 192.47 C91.21 133.59, 142.39 74.71, 182.39 28.7 M40.03 192.47 C80.47 145.95, 120.91 99.42, 182.39 28.7 M43.05 195.1 C83.55 148.5, 124.06 101.9, 184.75 32.08 M43.05 195.1 C94.17 136.29, 145.28 77.48, 184.75 32.08 M46.72 196.97 C89.52 147.73, 132.33 98.49, 187.77 34.7 M46.72 196.97 C77.54 161.51, 108.35 126.06, 187.77 34.7 M49.74 199.59 C93.44 149.31, 137.15 99.04, 190.79 37.33 M49.74 199.59 C94.92 147.62, 140.09 95.65, 190.79 37.33 M53.41 201.46 C88.06 161.6, 122.71 121.75, 193.15 40.71 M53.41 201.46 C100.71 147.05, 148 92.65, 193.15 40.71 M56.43 204.08 C87.26 168.62, 118.09 133.16, 195.52 44.08 M56.43 204.08 C110.52 141.86, 164.61 79.64, 195.52 44.08 M60.76 205.2 C103.49 156.05, 146.22 106.9, 197.88 47.46 M60.76 205.2 C110.89 147.54, 161.01 89.88, 197.88 47.46 M64.44 207.07 C103.92 161.65, 143.4 116.24, 200.24 50.84 M64.44 207.07 C115.34 148.52, 166.24 89.96, 200.24 50.84 M68.11 208.94 C100.51 171.66, 132.91 134.39, 203.26 53.47 M68.11 208.94 C104.57 167, 141.03 125.06, 203.26 53.47 M71.79 210.81 C106.82 170.51, 141.85 130.21, 204.97 57.6 M71.79 210.81 C109.71 167.18, 147.63 123.56, 204.97 57.6 M75.46 212.68 C115.37 166.77, 155.27 120.87, 206.68 61.73 M75.46 212.68 C123.95 156.9, 172.44 101.12, 206.68 61.73 M79.79 213.79 C113.39 175.15, 146.98 136.5, 208.38 65.87 M79.79 213.79 C108.58 180.68, 137.37 147.56, 208.38 65.87 M84.13 214.91 C109.71 185.47, 135.3 156.04, 210.09 70 M84.13 214.91 C113.31 181.33, 142.5 147.75, 210.09 70 M89.11 215.27 C124.01 175.12, 158.91 134.97, 211.8 74.14 M89.11 215.27 C125.4 173.52, 161.68 131.78, 211.8 74.14 M94.1 215.63 C137.05 166.22, 179.99 116.82, 212.85 79.02 M94.1 215.63 C138.23 164.86, 182.36 114.09, 212.85 79.02 M98.43 216.74 C134.04 175.78, 169.65 134.81, 213.9 83.91 M98.43 216.74 C133.35 176.56, 168.28 136.39, 213.9 83.91 M104.07 216.35 C129.71 186.85, 155.35 157.36, 214.95 88.8 M104.07 216.35 C143.22 171.32, 182.36 126.29, 214.95 88.8 M109.06 216.71 C150.27 169.31, 191.47 121.9, 216 93.69 M109.06 216.71 C135.2 186.64, 161.34 156.57, 216 93.69 M114.05 217.07 C154.21 170.87, 194.37 124.67, 217.05 98.58 M114.05 217.07 C143.72 182.93, 173.4 148.79, 217.05 98.58 M119.69 216.67 C153.1 178.24, 186.5 139.81, 216.79 104.97 M119.69 216.67 C141.11 192.04, 162.52 167.4, 216.79 104.97 M125.33 216.28 C147.74 190.5, 170.15 164.72, 217.84 109.86 M125.33 216.28 C156.55 180.37, 187.77 144.46, 217.84 109.86 M130.32 216.64 C155.63 187.53, 180.93 158.42, 217.58 116.26 M130.32 216.64 C158.96 183.7, 187.59 150.75, 217.58 116.26 M138.59 213.22 C164.16 183.81, 189.73 154.39, 218.63 121.15 M138.59 213.22 C155.41 193.88, 172.22 174.53, 218.63 121.15 M147.51 209.06 C168.53 184.87, 189.55 160.69, 216.4 129.81 M147.51 209.06 C172.52 180.28, 197.53 151.51, 216.4 129.81 M155.78 205.64 C177.68 180.45, 199.58 155.25, 213.51 139.23 M155.78 205.64 C171 188.13, 186.22 170.62, 213.51 139.23 M165.36 200.72 C181.11 182.6, 196.86 164.48, 210.63 148.64 M165.36 200.72 C179.82 184.08, 194.28 167.44, 210.63 148.64 M181.5 188.25 C187.52 181.32, 193.55 174.39, 201.18 165.61 M181.5 188.25 C185.51 183.63, 189.52 179.02, 201.18 165.61" stroke="#a5d8ff" stroke-width="0.5" fill="none"></path><path d="M216.43 108.21 C216.43 111.54, 216.27 114.88, 215.97 118.2 C215.66 121.51, 215.2 124.83, 214.59 128.1 C213.97 131.37, 213.21 134.63, 212.3 137.83 C211.39 141.03, 210.32 144.2, 209.12 147.31 C207.92 150.41, 206.57 153.47, 205.08 156.45 C203.6 159.43, 201.97 162.35, 200.22 165.18 C198.47 168.01, 196.58 170.77, 194.57 173.43 C192.57 176.08, 190.43 178.66, 188.19 181.12 C185.94 183.58, 183.58 185.94, 181.12 188.19 C178.66 190.43, 176.08 192.57, 173.43 194.57 C170.77 196.58, 168.01 198.47, 165.18 200.22 C162.35 201.97, 159.43 203.6, 156.45 205.08 C153.47 206.57, 150.41 207.92, 147.31 209.12 C144.2 210.32, 141.03 211.39, 137.83 212.3 C134.63 213.21, 131.37 213.97, 128.1 214.59 C124.83 215.2, 121.51 215.66, 118.2 215.97 C114.88 216.27, 111.54 216.43, 108.21 216.43 C104.89 216.43, 101.54 216.27, 98.23 215.97 C94.92 215.66, 91.6 215.2, 88.33 214.59 C85.06 213.97, 81.8 213.21, 78.6 212.3 C75.4 211.39, 72.23 210.32, 69.12 209.12 C66.02 207.92, 62.96 206.57, 59.98 205.08 C57 203.6, 54.08 201.97, 51.25 200.22 C48.42 198.47, 45.66 196.58, 43 194.57 C40.34 192.57, 37.77 190.43, 35.31 188.19 C32.85 185.94, 30.49 183.58, 28.24 181.12 C26 178.66, 23.86 176.08, 21.86 173.43 C19.85 170.77, 17.96 168.01, 16.21 165.18 C14.46 162.35, 12.83 159.43, 11.34 156.45 C9.86 153.47, 8.51 150.41, 7.31 147.31 C6.11 144.2, 5.04 141.03, 4.13 137.83 C3.22 134.63, 2.45 131.37, 1.84 128.1 C1.23 124.83, 0.77 121.51, 0.46 118.2 C0.15 114.88, 0 111.54, 0 108.21 C0 104.89, 0.15 101.54, 0.46 98.23 C0.77 94.92, 1.23 91.6, 1.84 88.33 C2.45 85.06, 3.22 81.8, 4.13 78.6 C5.04 75.4, 6.11 72.23, 7.31 69.12 C8.51 66.02, 9.86 62.96, 11.34 59.98 C12.83 57, 14.46 54.08, 16.21 51.25 C17.96 48.42, 19.85 45.66, 21.86 43 C23.86 40.34, 26 37.77, 28.24 35.31 C30.49 32.85, 32.85 30.49, 35.31 28.24 C37.77 26, 40.34 23.86, 43 21.86 C45.66 19.85, 48.42 17.96, 51.25 16.21 C54.08 14.46, 57 12.83, 59.98 11.34 C62.96 9.86, 66.02 8.51, 69.12 7.31 C72.23 6.11, 75.4 5.04, 78.6 4.13 C81.8 3.22, 85.06 2.45, 88.33 1.84 C91.6 1.23, 94.92 0.77, 98.23 0.46 C101.54 0.15, 104.89 0, 108.21 0 C111.54 0, 114.88 0.15, 118.2 0.46 C121.51 0.77, 124.83 1.23, 128.1 1.84 C131.37 2.45, 134.63 3.22, 137.83 4.13 C141.03 5.04, 144.2 6.11, 147.31 7.31 C150.41 8.51, 153.47 9.86, 156.45 11.34 C159.43 12.83, 162.35 14.46, 165.18 16.21 C168.01 17.96, 170.77 19.85, 173.43 21.86 C176.08 23.86, 178.66 26, 181.12 28.24 C183.58 30.49, 185.94 32.85, 188.19 35.31 C190.43 37.77, 192.57 40.34, 194.57 43 C196.58 45.66, 198.47 48.42, 200.22 51.25 C201.97 54.08, 203.6 57, 205.08 59.98 C206.57 62.96, 207.92 66.02, 209.12 69.12 C210.32 72.23, 211.39 75.4, 212.3 78.6 C213.21 81.8, 213.97 85.06, 214.59 88.33 C215.2 91.6, 215.66 94.92, 215.97 98.23 C216.27 101.54, 216.35 106.55, 216.43 108.21 C216.51 109.88, 216.51 106.55, 216.43 108.21" stroke="#1e1e1e" stroke-width="1" fill="none"></path></g></g><g clip-path="url(#6W6sb72G7DcVsOhnLpMwe)"><g transform="translate(612.1973502784367 394.4674582759674) rotate(0 64.453125 12)"><text x="64.453125" y="0" font-family="Cascadia, Segoe UI Emoji" font-size="20px" fill="#1e1e1e" text-anchor="middle" style="white-space: pre;" direction="ltr" dominant-baseline="text-before-edge">greaterThan</text></g></g><g clip-path="url(#6W6sb72G7DcVsOhnLpMwe)"><g stroke-linecap="round" transform="translate(546.5214860568021 358.00378101718456) rotate(0 20.4365856278896 12.228139154036626)"><path d="M6.11 0 M6.11 0 C16.46 0, 26.8 0, 34.76 0 M34.76 0 C38.84 0, 40.87 2.04, 40.87 6.11 M40.87 6.11 C40.87 11.01, 40.87 15.9, 40.87 18.34 M40.87 18.34 C40.87 22.42, 38.84 24.46, 34.76 24.46 M34.76 24.46 C28.27 24.46, 21.78 24.46, 6.11 24.46 M6.11 24.46 C2.04 24.46, 0 22.42, 0 18.34 M0 18.34 C0 13.8, 0 9.27, 0 6.11 M0 6.11 C0 2.04, 2.04 0, 6.11 0" stroke="#1e1e1e" stroke-width="1.5" fill="none" stroke-dasharray="8 9"></path></g></g><g clip-path="url(#6W6sb72G7DcVsOhnLpMwe)"><g transform="translate(554.803866913916 358.6311475503146) rotate(0 4.6875 9.600000000000023)"><text x="0" y="0" font-family="Cascadia, Segoe UI Emoji" font-size="16px" fill="#1e1e1e" text-anchor="start" style="white-space: pre;" direction="ltr" dominant-baseline="text-before-edge">x</text></g></g><g clip-path="url(#6W6sb72G7DcVsOhnLpMwe)"><g stroke-linecap="round"><g transform="translate(565.5697575471877 369.7542971460739) rotate(0 4.34570408914351 0.19218094324094182)"><path d="M0 0 C1.45 0.06, 7.24 0.32, 8.69 0.38 M0 0 C1.45 0.06, 7.24 0.32, 8.69 0.38" stroke="#1e1e1e" stroke-width="2" fill="none"></path></g></g><mask></mask></g><g clip-path="url(#6W6sb72G7DcVsOhnLpMwe)"><g stroke-linecap="round" transform="translate(874.2691220494171 300.52559659949384) rotate(0 108.21428571428578 108.2142857142859)"><path d="M28.32 35.22 C28.32 35.22, 28.32 35.22, 28.32 35.22 M28.32 35.22 C28.32 35.22, 28.32 35.22, 28.32 35.22 M11.66 60.49 C19.75 51.18, 27.83 41.88, 44.46 22.75 M11.66 60.49 C21.07 49.66, 30.48 38.83, 44.46 22.75 M8.77 69.9 C21.35 55.43, 33.93 40.96, 53.39 18.58 M8.77 69.9 C24.44 51.89, 40.1 33.87, 53.39 18.58 M5.23 80.07 C18.41 64.91, 31.59 49.75, 62.96 13.66 M5.23 80.07 C18.15 65.22, 31.06 50.36, 62.96 13.66 M3 88.74 C20.3 68.84, 37.59 48.95, 71.89 9.49 M3 88.74 C17.95 71.54, 32.91 54.34, 71.89 9.49 M1.43 96.64 C19.64 75.69, 37.85 54.74, 80.16 6.08 M1.43 96.64 C32.77 60.59, 64.11 24.53, 80.16 6.08 M3.14 100.78 C20.33 80.99, 37.53 61.21, 89.08 1.91 M3.14 100.78 C20.7 80.57, 38.26 60.37, 89.08 1.91 M0.91 109.44 C26.48 80.02, 52.05 50.6, 94.72 1.51 M0.91 109.44 C34.61 70.66, 68.32 31.89, 94.72 1.51 M1.3 115.08 C29.12 83.08, 56.94 51.07, 99.71 1.87 M1.3 115.08 C29.64 82.48, 57.97 49.89, 99.71 1.87 M2.35 119.97 C35.04 82.37, 67.73 44.76, 105.35 1.48 M2.35 119.97 C26.33 92.38, 50.32 64.79, 105.35 1.48 M3.4 124.86 C40.92 81.69, 78.45 38.53, 110.34 1.84 M3.4 124.86 C32.2 91.73, 60.99 58.61, 110.34 1.84 M4.45 129.75 C46.52 81.36, 88.58 32.97, 115.33 2.2 M4.45 129.75 C28.97 101.54, 53.49 73.34, 115.33 2.2 M5.5 134.63 C34.79 100.94, 64.08 67.25, 120.31 2.56 M5.5 134.63 C37.24 98.13, 68.97 61.62, 120.31 2.56 M6.55 139.52 C32.78 109.35, 59 79.18, 125.3 2.92 M6.55 139.52 C42.53 98.14, 78.5 56.76, 125.3 2.92 M7.6 144.41 C49.84 95.82, 92.08 47.23, 130.29 3.28 M7.6 144.41 C39.99 107.16, 72.37 69.9, 130.29 3.28 M9.31 148.55 C40.94 112.16, 72.56 75.78, 134.62 4.4 M9.31 148.55 C51.13 100.44, 92.94 52.34, 134.62 4.4 M11.02 152.68 C57.81 98.85, 104.6 45.03, 138.95 5.51 M11.02 152.68 C51.07 106.6, 91.13 60.52, 138.95 5.51 M12.07 157.57 C42.64 122.39, 73.22 87.22, 143.28 6.63 M12.07 157.57 C57.38 105.44, 102.7 53.31, 143.28 6.63 M14.43 160.95 C63.08 104.98, 111.72 49.02, 147.61 7.74 M14.43 160.95 C58.59 110.14, 102.75 59.34, 147.61 7.74 M16.14 165.08 C66.18 107.51, 116.22 49.94, 151.29 9.61 M16.14 165.08 C49.44 126.77, 82.75 88.45, 151.29 9.61 M19.16 167.7 C71.97 106.94, 124.79 46.18, 155.62 10.72 M19.16 167.7 C67.42 112.18, 115.69 56.66, 155.62 10.72 M21.52 171.08 C51.7 136.37, 81.88 101.65, 158.64 13.35 M21.52 171.08 C65.67 120.29, 109.82 69.5, 158.64 13.35 M23.23 175.22 C75.21 115.41, 127.2 55.61, 162.31 15.22 M23.23 175.22 C56.65 136.77, 90.07 98.32, 162.31 15.22 M26.24 177.84 C80.3 115.66, 134.35 53.48, 165.99 17.09 M26.24 177.84 C72.88 124.2, 119.51 70.55, 165.99 17.09 M28.61 181.22 C66.2 137.97, 103.79 94.73, 169.66 18.96 M28.61 181.22 C82.05 119.75, 135.48 58.27, 169.66 18.96 M31.63 183.84 C63.12 147.62, 94.61 111.39, 172.68 21.58 M31.63 183.84 C62.62 148.19, 93.62 112.53, 172.68 21.58 M33.99 187.22 C77.18 137.54, 120.37 87.85, 175.7 24.21 M33.99 187.22 C88.31 124.74, 142.63 62.25, 175.7 24.21 M37.01 189.85 C83.87 135.94, 130.72 82.04, 178.72 26.83 M37.01 189.85 C92.97 125.47, 148.94 61.08, 178.72 26.83 M40.03 192.47 C86.52 138.99, 133.01 85.51, 182.39 28.7 M40.03 192.47 C96.15 127.91, 152.28 63.34, 182.39 28.7 M43.05 195.1 C79.71 152.92, 116.37 110.74, 184.75 32.08 M43.05 195.1 C78.55 154.25, 114.06 113.4, 184.75 32.08 M46.72 196.97 C84.56 153.44, 122.4 109.91, 187.77 34.7 M46.72 196.97 C100.14 135.51, 153.56 74.06, 187.77 34.7 M49.74 199.59 C78.73 166.23, 107.73 132.88, 190.79 37.33 M49.74 199.59 C85.64 158.29, 121.55 116.98, 190.79 37.33 M53.41 201.46 C90.4 158.91, 127.39 116.36, 193.15 40.71 M53.41 201.46 C85.62 164.41, 117.83 127.35, 193.15 40.71 M56.43 204.08 C100.62 153.25, 144.81 102.41, 195.52 44.08 M56.43 204.08 C91.39 163.87, 126.35 123.66, 195.52 44.08 M60.76 205.2 C108.64 150.13, 156.51 95.06, 197.88 47.46 M60.76 205.2 C97.75 162.65, 134.74 120.1, 197.88 47.46 M64.44 207.07 C117.43 146.11, 170.42 85.15, 200.24 50.84 M64.44 207.07 C113.59 150.52, 162.75 93.98, 200.24 50.84 M68.11 208.94 C115.87 154, 163.62 99.07, 203.26 53.47 M68.11 208.94 C114.51 155.56, 160.91 102.19, 203.26 53.47 M71.79 210.81 C120.59 154.66, 169.4 98.52, 204.97 57.6 M71.79 210.81 C109.61 167.3, 147.43 123.79, 204.97 57.6 M75.46 212.68 C102.68 181.37, 129.89 150.06, 206.68 61.73 M75.46 212.68 C118.05 163.69, 160.63 114.71, 206.68 61.73 M79.79 213.79 C110.44 178.54, 141.08 143.29, 208.38 65.87 M79.79 213.79 C130.14 155.87, 180.49 97.95, 208.38 65.87 M84.13 214.91 C114.35 180.14, 144.58 145.36, 210.09 70 M84.13 214.91 C111 183.99, 137.87 153.08, 210.09 70 M89.11 215.27 C131.58 166.42, 174.04 117.57, 211.8 74.14 M89.11 215.27 C117.99 182.04, 146.87 148.82, 211.8 74.14 M94.1 215.63 C127.11 177.65, 160.12 139.67, 212.85 79.02 M94.1 215.63 C122.15 183.36, 150.2 151.09, 212.85 79.02 M98.43 216.74 C130.6 179.73, 162.77 142.73, 213.9 83.91 M98.43 216.74 C126.46 184.49, 154.5 152.24, 213.9 83.91 M104.07 216.35 C142.55 172.08, 181.03 127.82, 214.95 88.8 M104.07 216.35 C142.46 172.18, 180.85 128.02, 214.95 88.8 M109.06 216.71 C148.94 170.83, 188.82 124.95, 216 93.69 M109.06 216.71 C132.32 189.94, 155.59 163.18, 216 93.69 M114.05 217.07 C152.25 173.12, 190.46 129.17, 217.05 98.58 M114.05 217.07 C147.32 178.79, 180.59 140.52, 217.05 98.58 M119.69 216.67 C140.54 192.68, 161.4 168.69, 216.79 104.97 M119.69 216.67 C143 189.86, 166.31 163.05, 216.79 104.97 M125.33 216.28 C150.5 187.33, 175.66 158.39, 217.84 109.86 M125.33 216.28 C150.56 187.26, 175.79 158.24, 217.84 109.86 M130.32 216.64 C159.82 182.7, 189.33 148.76, 217.58 116.26 M130.32 216.64 C162.37 179.77, 194.42 142.9, 217.58 116.26 M138.59 213.22 C160.28 188.26, 181.98 163.31, 218.63 121.15 M138.59 213.22 C164.85 183.02, 191.1 152.81, 218.63 121.15 M147.51 209.06 C169.94 183.26, 192.36 157.46, 216.4 129.81 M147.51 209.06 C170.43 182.69, 193.36 156.32, 216.4 129.81 M155.78 205.64 C178.14 179.92, 200.5 154.19, 213.51 139.23 M155.78 205.64 C175.89 182.51, 196 159.37, 213.51 139.23 M165.36 200.72 C179.3 184.69, 193.23 168.65, 210.63 148.64 M165.36 200.72 C176.52 187.88, 187.68 175.04, 210.63 148.64 M181.5 188.25 C188.16 180.59, 194.82 172.92, 201.18 165.61 M181.5 188.25 C185.82 183.28, 190.14 178.31, 201.18 165.61" stroke="#a5d8ff" stroke-width="0.5" fill="none"></path><path d="M216.43 108.21 C216.43 111.54, 216.27 114.88, 215.97 118.2 C215.66 121.51, 215.2 124.83, 214.59 128.1 C213.97 131.37, 213.21 134.63, 212.3 137.83 C211.39 141.03, 210.32 144.2, 209.12 147.31 C207.92 150.41, 206.57 153.47, 205.08 156.45 C203.6 159.43, 201.97 162.35, 200.22 165.18 C198.47 168.01, 196.58 170.77, 194.57 173.43 C192.57 176.08, 190.43 178.66, 188.19 181.12 C185.94 183.58, 183.58 185.94, 181.12 188.19 C178.66 190.43, 176.08 192.57, 173.43 194.57 C170.77 196.58, 168.01 198.47, 165.18 200.22 C162.35 201.97, 159.43 203.6, 156.45 205.08 C153.47 206.57, 150.41 207.92, 147.31 209.12 C144.2 210.32, 141.03 211.39, 137.83 212.3 C134.63 213.21, 131.37 213.97, 128.1 214.59 C124.83 215.2, 121.51 215.66, 118.2 215.97 C114.88 216.27, 111.54 216.43, 108.21 216.43 C104.89 216.43, 101.54 216.27, 98.23 215.97 C94.92 215.66, 91.6 215.2, 88.33 214.59 C85.06 213.97, 81.8 213.21, 78.6 212.3 C75.4 211.39, 72.23 210.32, 69.12 209.12 C66.02 207.92, 62.96 206.57, 59.98 205.08 C57 203.6, 54.08 201.97, 51.25 200.22 C48.42 198.47, 45.66 196.58, 43 194.57 C40.34 192.57, 37.77 190.43, 35.31 188.19 C32.85 185.94, 30.49 183.58, 28.24 181.12 C26 178.66, 23.86 176.08, 21.86 173.43 C19.85 170.77, 17.96 168.01, 16.21 165.18 C14.46 162.35, 12.83 159.43, 11.34 156.45 C9.86 153.47, 8.51 150.41, 7.31 147.31 C6.11 144.2, 5.04 141.03, 4.13 137.83 C3.22 134.63, 2.45 131.37, 1.84 128.1 C1.23 124.83, 0.77 121.51, 0.46 118.2 C0.15 114.88, 0 111.54, 0 108.21 C0 104.89, 0.15 101.54, 0.46 98.23 C0.77 94.92, 1.23 91.6, 1.84 88.33 C2.45 85.06, 3.22 81.8, 4.13 78.6 C5.04 75.4, 6.11 72.23, 7.31 69.12 C8.51 66.02, 9.86 62.96, 11.34 59.98 C12.83 57, 14.46 54.08, 16.21 51.25 C17.96 48.42, 19.85 45.66, 21.86 43 C23.86 40.34, 26 37.77, 28.24 35.31 C30.49 32.85, 32.85 30.49, 35.31 28.24 C37.77 26, 40.34 23.86, 43 21.86 C45.66 19.85, 48.42 17.96, 51.25 16.21 C54.08 14.46, 57 12.83, 59.98 11.34 C62.96 9.86, 66.02 8.51, 69.12 7.31 C72.23 6.11, 75.4 5.04, 78.6 4.13 C81.8 3.22, 85.06 2.45, 88.33 1.84 C91.6 1.23, 94.92 0.77, 98.23 0.46 C101.54 0.15, 104.89 0, 108.21 0 C111.54 0, 114.88 0.15, 118.2 0.46 C121.51 0.77, 124.83 1.23, 128.1 1.84 C131.37 2.45, 134.63 3.22, 137.83 4.13 C141.03 5.04, 144.2 6.11, 147.31 7.31 C150.41 8.51, 153.47 9.86, 156.45 11.34 C159.43 12.83, 162.35 14.46, 165.18 16.21 C168.01 17.96, 170.77 19.85, 173.43 21.86 C176.08 23.86, 178.66 26, 181.12 28.24 C183.58 30.49, 185.94 32.85, 188.19 35.31 C190.43 37.77, 192.57 40.34, 194.57 43 C196.58 45.66, 198.47 48.42, 200.22 51.25 C201.97 54.08, 203.6 57, 205.08 59.98 C206.57 62.96, 207.92 66.02, 209.12 69.12 C210.32 72.23, 211.39 75.4, 212.3 78.6 C213.21 81.8, 213.97 85.06, 214.59 88.33 C215.2 91.6, 215.66 94.92, 215.97 98.23 C216.27 101.54, 216.35 106.55, 216.43 108.21 C216.51 109.88, 216.51 106.55, 216.43 108.21" stroke="#1e1e1e" stroke-width="1" fill="none"></path></g></g><g clip-path="url(#6W6sb72G7DcVsOhnLpMwe)"><g transform="translate(953.1674775138727 396.72082706394986) rotate(0 29.296875 12)"><text x="29.296875" y="0" font-family="Cascadia, Segoe UI Emoji" font-size="20px" fill="#1e1e1e" text-anchor="middle" style="white-space: pre;" direction="ltr" dominant-baseline="text-before-edge">regex</text></g></g><g clip-path="url(#6W6sb72G7DcVsOhnLpMwe)"><g stroke-linecap="round"><g transform="translate(885.615739046495 339.2954393583864) rotate(0 6.440752037210132 0.1762001350527953)"><path d="M0 0 C2.15 0.06, 10.73 0.29, 12.88 0.35 M0 0 C2.15 0.06, 10.73 0.29, 12.88 0.35" stroke="#1e1e1e" stroke-width="2" fill="none"></path></g></g><mask></mask></g><g clip-path="url(#6W6sb72G7DcVsOhnLpMwe)"><g transform="translate(814.5542751457324 327.8449227059291) rotate(0 32.8125 9.600000000000023)"><text x="0" y="0" font-family="Cascadia, Segoe UI Emoji" font-size="16px" fill="#1e1e1e" text-anchor="start" style="white-space: pre;" direction="ltr" dominant-baseline="text-before-edge">pattern</text></g></g><g clip-path="url(#6W6sb72G7DcVsOhnLpMwe)"><g stroke-linecap="round" transform="translate(807.5395819534269 318.86435129029996) rotate(0 52.046091920966774 20.080775623050272)"><path d="M10.04 0 M10.04 0 C33.29 0, 56.54 0, 94.05 0 M94.05 0 C100.75 0, 104.09 3.35, 104.09 10.04 M104.09 10.04 C104.09 17.73, 104.09 25.41, 104.09 30.12 M104.09 30.12 C104.09 36.81, 100.75 40.16, 94.05 40.16 M94.05 40.16 C74.36 40.16, 54.67 40.16, 10.04 40.16 M10.04 40.16 C3.35 40.16, 0 36.81, 0 30.12 M0 30.12 C0 23.82, 0 17.52, 0 10.04 M0 10.04 C0 3.35, 3.35 0, 10.04 0" stroke="#1e1e1e" stroke-width="2.5" fill="none" stroke-dasharray="8 10"></path></g></g><g clip-path="url(#6W6sb72G7DcVsOhnLpMwe)"><g stroke-linecap="round" transform="translate(14.786473349572589 16.703085806391528) rotate(0 764.3975202376314 293.4255579837213)"><path d="M32 0 M32 0 C459.09 0, 886.17 0, 1496.8 0 M1496.8 0 C1518.13 0, 1528.8 10.67, 1528.8 32 M1528.8 32 C1528.8 196.35, 1528.8 360.71, 1528.8 554.85 M1528.8 554.85 C1528.8 576.18, 1518.13 586.85, 1496.8 586.85 M1496.8 586.85 C923.73 586.85, 350.66 586.85, 32 586.85 M32 586.85 C10.67 586.85, 0 576.18, 0 554.85 M0 554.85 C0 392.37, 0 229.89, 0 32 M0 32 C0 10.67, 10.67 0, 32 0" stroke="#1e1e1e" stroke-width="2.5" fill="none" stroke-dasharray="8 10"></path></g></g><g clip-path="url(#6W6sb72G7DcVsOhnLpMwe)"><g transform="translate(528.8931499527234 621.3207200535028) rotate(0 242.24301147460938 17.5)"><text x="0" y="0" font-family="Virgil, Segoe UI Emoji" font-size="28px" fill="#1e1e1e" text-anchor="start" style="white-space: pre;" direction="ltr" dominant-baseline="text-before-edge">Independent composable validations</text></g></g><g clip-path="url(#6W6sb72G7DcVsOhnLpMwe)"><g transform="translate(109.23302050334996 543.6449162320251) rotate(0 119.85448455810547 17.5)"><text x="0" y="0" font-family="Virgil, Segoe UI Emoji" font-size="28px" fill="#1e1e1e" text-anchor="start" style="white-space: pre;" direction="ltr" dominant-baseline="text-before-edge">static validators</text></g></g><g clip-path="url(#6W6sb72G7DcVsOhnLpMwe)"><g transform="translate(611.5248463251392 545.9493990267002) rotate(0 227.78094482421875 17.5)"><text x="0" y="0" font-family="Virgil, Segoe UI Emoji" font-size="28px" fill="#1e1e1e" text-anchor="start" style="white-space: pre;" direction="ltr" dominant-baseline="text-before-edge">dynamically generated with inputs</text></g></g><g clip-path="url(#6W6sb72G7DcVsOhnLpMwe)"><g stroke-linecap="round" transform="translate(874.148200749738 62.062130140540376) rotate(0 108.21428571428578 108.2142857142859)"><path d="M28.32 35.22 C28.32 35.22, 28.32 35.22, 28.32 35.22 M28.32 35.22 C28.32 35.22, 28.32 35.22, 28.32 35.22 M11.66 60.49 C20.78 49.99, 29.9 39.5, 44.46 22.75 M11.66 60.49 C23.9 46.4, 36.14 32.32, 44.46 22.75 M8.77 69.9 C23.63 52.81, 38.48 35.72, 53.39 18.58 M8.77 69.9 C24.94 51.31, 41.1 32.72, 53.39 18.58 M5.23 80.07 C22.38 60.35, 39.53 40.62, 62.96 13.66 M5.23 80.07 C17.66 65.77, 30.09 51.48, 62.96 13.66 M3 88.74 C29.47 58.28, 55.95 27.83, 71.89 9.49 M3 88.74 C24.02 64.56, 45.04 40.38, 71.89 9.49 M1.43 96.64 C23.18 71.62, 44.93 46.6, 80.16 6.08 M1.43 96.64 C20.48 74.73, 39.53 52.81, 80.16 6.08 M3.14 100.78 C32.14 67.41, 61.14 34.05, 89.08 1.91 M3.14 100.78 C21.01 80.22, 38.88 59.66, 89.08 1.91 M0.91 109.44 C31.93 73.75, 62.95 38.07, 94.72 1.51 M0.91 109.44 C37.61 67.22, 74.31 24.99, 94.72 1.51 M1.3 115.08 C24.23 88.7, 47.16 62.32, 99.71 1.87 M1.3 115.08 C32.84 78.8, 64.38 42.51, 99.71 1.87 M2.35 119.97 C38.55 78.33, 74.74 36.69, 105.35 1.48 M2.35 119.97 C33.19 84.49, 64.03 49.01, 105.35 1.48 M3.4 124.86 C39.56 83.27, 75.71 41.67, 110.34 1.84 M3.4 124.86 C39.86 82.92, 76.31 40.98, 110.34 1.84 M4.45 129.75 C38.43 90.66, 72.4 51.58, 115.33 2.2 M4.45 129.75 C26.79 104.05, 49.12 78.36, 115.33 2.2 M5.5 134.63 C33.79 102.09, 62.08 69.55, 120.31 2.56 M5.5 134.63 C41.75 92.94, 77.99 51.25, 120.31 2.56 M6.55 139.52 C46.95 93.05, 87.35 46.58, 125.3 2.92 M6.55 139.52 C33.93 108.03, 61.31 76.53, 125.3 2.92 M7.6 144.41 C53.99 91.05, 100.38 37.69, 130.29 3.28 M7.6 144.41 C49.3 96.45, 90.99 48.48, 130.29 3.28 M9.31 148.55 C43.61 109.08, 77.92 69.62, 134.62 4.4 M9.31 148.55 C49.22 102.64, 89.12 56.73, 134.62 4.4 M11.02 152.68 C46.84 111.47, 82.67 70.25, 138.95 5.51 M11.02 152.68 C43.88 114.88, 76.73 77.08, 138.95 5.51 M12.07 157.57 C52.04 111.58, 92.01 65.6, 143.28 6.63 M12.07 157.57 C50.82 112.99, 89.57 68.42, 143.28 6.63 M14.43 160.95 C57.79 111.06, 101.16 61.18, 147.61 7.74 M14.43 160.95 C62.18 106.02, 109.93 51.09, 147.61 7.74 M16.14 165.08 C57.63 117.35, 99.12 69.61, 151.29 9.61 M16.14 165.08 C68.81 104.49, 121.47 43.9, 151.29 9.61 M19.16 167.7 C48.45 134, 77.75 100.31, 155.62 10.72 M19.16 167.7 C58.07 122.93, 96.99 78.17, 155.62 10.72 M21.52 171.08 C66.99 118.78, 112.46 66.47, 158.64 13.35 M21.52 171.08 C66.58 119.24, 111.65 67.4, 158.64 13.35 M23.23 175.22 C61.3 131.41, 99.38 87.61, 162.31 15.22 M23.23 175.22 C68.51 123.12, 113.8 71.02, 162.31 15.22 M26.24 177.84 C68.96 128.7, 111.67 79.57, 165.99 17.09 M26.24 177.84 C59.45 139.64, 92.66 101.43, 165.99 17.09 M28.61 181.22 C78.81 123.46, 129.02 65.71, 169.66 18.96 M28.61 181.22 C73.31 129.79, 118.02 78.36, 169.66 18.96 M31.63 183.84 C78.6 129.81, 125.57 75.77, 172.68 21.58 M31.63 183.84 C79.66 128.58, 127.7 73.32, 172.68 21.58 M33.99 187.22 C82.28 131.67, 130.57 76.12, 175.7 24.21 M33.99 187.22 C82.86 131.01, 131.72 74.8, 175.7 24.21 M37.01 189.85 C92.85 125.6, 148.7 61.36, 178.72 26.83 M37.01 189.85 C73.82 147.5, 110.62 105.16, 178.72 26.83 M40.03 192.47 C73.41 154.07, 106.79 115.67, 182.39 28.7 M40.03 192.47 C74.67 152.62, 109.31 112.77, 182.39 28.7 M43.05 195.1 C77.88 155.02, 112.71 114.95, 184.75 32.08 M43.05 195.1 C87.82 143.59, 132.6 92.08, 184.75 32.08 M46.72 196.97 C84.78 153.19, 122.83 109.41, 187.77 34.7 M46.72 196.97 C88.32 149.11, 129.91 101.26, 187.77 34.7 M49.74 199.59 C95.12 147.39, 140.5 95.19, 190.79 37.33 M49.74 199.59 C81.96 162.52, 114.19 125.45, 190.79 37.33 M53.41 201.46 C82.2 168.34, 110.99 135.23, 193.15 40.71 M53.41 201.46 C99.6 148.33, 145.79 95.2, 193.15 40.71 M56.43 204.08 C88.68 166.98, 120.93 129.88, 195.52 44.08 M56.43 204.08 C86.32 169.71, 116.2 135.33, 195.52 44.08 M60.76 205.2 C92.16 169.08, 123.56 132.96, 197.88 47.46 M60.76 205.2 C92.24 168.99, 123.71 132.79, 197.88 47.46 M64.44 207.07 C100.15 165.99, 135.86 124.91, 200.24 50.84 M64.44 207.07 C103.99 161.57, 143.55 116.07, 200.24 50.84 M68.11 208.94 C102.05 169.89, 135.99 130.85, 203.26 53.47 M68.11 208.94 C97.81 174.77, 127.51 140.61, 203.26 53.47 M71.79 210.81 C108.83 168.19, 145.87 125.58, 204.97 57.6 M71.79 210.81 C121.35 153.79, 170.92 96.77, 204.97 57.6 M75.46 212.68 C103.21 180.76, 130.96 148.83, 206.68 61.73 M75.46 212.68 C124.99 155.71, 174.51 98.74, 206.68 61.73 M79.79 213.79 C107.73 181.66, 135.66 149.53, 208.38 65.87 M79.79 213.79 C127.45 158.97, 175.1 104.16, 208.38 65.87 M84.13 214.91 C131.43 160.49, 178.74 106.07, 210.09 70 M84.13 214.91 C125.35 167.49, 166.56 120.07, 210.09 70 M89.11 215.27 C137.76 159.31, 186.4 103.35, 211.8 74.14 M89.11 215.27 C125.66 173.23, 162.2 131.19, 211.8 74.14 M94.1 215.63 C122.06 183.46, 150.02 151.29, 212.85 79.02 M94.1 215.63 C134.75 168.87, 175.39 122.11, 212.85 79.02 M98.43 216.74 C122.55 188.99, 146.68 161.24, 213.9 83.91 M98.43 216.74 C140.45 168.4, 182.47 120.07, 213.9 83.91 M104.07 216.35 C127.35 189.57, 150.62 162.8, 214.95 88.8 M104.07 216.35 C131.15 185.2, 158.22 154.06, 214.95 88.8 M109.06 216.71 C133 189.16, 156.95 161.62, 216 93.69 M109.06 216.71 C138.68 182.64, 168.29 148.57, 216 93.69 M114.05 217.07 C149.49 176.29, 184.94 135.51, 217.05 98.58 M114.05 217.07 C145.24 181.18, 176.44 145.29, 217.05 98.58 M119.69 216.67 C147.6 184.56, 175.52 152.45, 216.79 104.97 M119.69 216.67 C153.06 178.28, 186.44 139.89, 216.79 104.97 M125.33 216.28 C144.75 193.94, 164.17 171.6, 217.84 109.86 M125.33 216.28 C156.49 180.44, 187.64 144.6, 217.84 109.86 M130.32 216.64 C149.71 194.33, 169.1 172.02, 217.58 116.26 M130.32 216.64 C162.55 179.57, 194.77 142.49, 217.58 116.26 M138.59 213.22 C155.05 194.29, 171.5 175.36, 218.63 121.15 M138.59 213.22 C155.62 193.63, 172.66 174.03, 218.63 121.15 M147.51 209.06 C170.06 183.12, 192.6 157.18, 216.4 129.81 M147.51 209.06 C172.13 180.73, 196.75 152.41, 216.4 129.81 M155.78 205.64 C170.57 188.63, 185.36 171.61, 213.51 139.23 M155.78 205.64 C175.77 182.64, 195.76 159.65, 213.51 139.23 M165.36 200.72 C177.96 186.22, 190.56 171.72, 210.63 148.64 M165.36 200.72 C174.86 189.78, 184.37 178.85, 210.63 148.64 M181.5 188.25 C187.66 181.16, 193.82 174.07, 201.18 165.61 M181.5 188.25 C185.45 183.7, 189.41 179.15, 201.18 165.61" stroke="#a5d8ff" stroke-width="0.5" fill="none"></path><path d="M216.43 108.21 C216.43 111.54, 216.27 114.88, 215.97 118.2 C215.66 121.51, 215.2 124.83, 214.59 128.1 C213.97 131.37, 213.21 134.63, 212.3 137.83 C211.39 141.03, 210.32 144.2, 209.12 147.31 C207.92 150.41, 206.57 153.47, 205.08 156.45 C203.6 159.43, 201.97 162.35, 200.22 165.18 C198.47 168.01, 196.58 170.77, 194.57 173.43 C192.57 176.08, 190.43 178.66, 188.19 181.12 C185.94 183.58, 183.58 185.94, 181.12 188.19 C178.66 190.43, 176.08 192.57, 173.43 194.57 C170.77 196.58, 168.01 198.47, 165.18 200.22 C162.35 201.97, 159.43 203.6, 156.45 205.08 C153.47 206.57, 150.41 207.92, 147.31 209.12 C144.2 210.32, 141.03 211.39, 137.83 212.3 C134.63 213.21, 131.37 213.97, 128.1 214.59 C124.83 215.2, 121.51 215.66, 118.2 215.97 C114.88 216.27, 111.54 216.43, 108.21 216.43 C104.89 216.43, 101.54 216.27, 98.23 215.97 C94.92 215.66, 91.6 215.2, 88.33 214.59 C85.06 213.97, 81.8 213.21, 78.6 212.3 C75.4 211.39, 72.23 210.32, 69.12 209.12 C66.02 207.92, 62.96 206.57, 59.98 205.08 C57 203.6, 54.08 201.97, 51.25 200.22 C48.42 198.47, 45.66 196.58, 43 194.57 C40.34 192.57, 37.77 190.43, 35.31 188.19 C32.85 185.94, 30.49 183.58, 28.24 181.12 C26 178.66, 23.86 176.08, 21.86 173.43 C19.85 170.77, 17.96 168.01, 16.21 165.18 C14.46 162.35, 12.83 159.43, 11.34 156.45 C9.86 153.47, 8.51 150.41, 7.31 147.31 C6.11 144.2, 5.04 141.03, 4.13 137.83 C3.22 134.63, 2.45 131.37, 1.84 128.1 C1.23 124.83, 0.77 121.51, 0.46 118.2 C0.15 114.88, 0 111.54, 0 108.21 C0 104.89, 0.15 101.54, 0.46 98.23 C0.77 94.92, 1.23 91.6, 1.84 88.33 C2.45 85.06, 3.22 81.8, 4.13 78.6 C5.04 75.4, 6.11 72.23, 7.31 69.12 C8.51 66.02, 9.86 62.96, 11.34 59.98 C12.83 57, 14.46 54.08, 16.21 51.25 C17.96 48.42, 19.85 45.66, 21.86 43 C23.86 40.34, 26 37.77, 28.24 35.31 C30.49 32.85, 32.85 30.49, 35.31 28.24 C37.77 26, 40.34 23.86, 43 21.86 C45.66 19.85, 48.42 17.96, 51.25 16.21 C54.08 14.46, 57 12.83, 59.98 11.34 C62.96 9.86, 66.02 8.51, 69.12 7.31 C72.23 6.11, 75.4 5.04, 78.6 4.13 C81.8 3.22, 85.06 2.45, 88.33 1.84 C91.6 1.23, 94.92 0.77, 98.23 0.46 C101.54 0.15, 104.89 0, 108.21 0 C111.54 0, 114.88 0.15, 118.2 0.46 C121.51 0.77, 124.83 1.23, 128.1 1.84 C131.37 2.45, 134.63 3.22, 137.83 4.13 C141.03 5.04, 144.2 6.11, 147.31 7.31 C150.41 8.51, 153.47 9.86, 156.45 11.34 C159.43 12.83, 162.35 14.46, 165.18 16.21 C168.01 17.96, 170.77 19.85, 173.43 21.86 C176.08 23.86, 178.66 26, 181.12 28.24 C183.58 30.49, 185.94 32.85, 188.19 35.31 C190.43 37.77, 192.57 40.34, 194.57 43 C196.58 45.66, 198.47 48.42, 200.22 51.25 C201.97 54.08, 203.6 57, 205.08 59.98 C206.57 62.96, 207.92 66.02, 209.12 69.12 C210.32 72.23, 211.39 75.4, 212.3 78.6 C213.21 81.8, 213.97 85.06, 214.59 88.33 C215.2 91.6, 215.66 94.92, 215.97 98.23 C216.27 101.54, 216.35 106.55, 216.43 108.21 C216.51 109.88, 216.51 106.55, 216.43 108.21" stroke="#1e1e1e" stroke-width="1" fill="none"></path></g></g><g clip-path="url(#6W6sb72G7DcVsOhnLpMwe)"><g transform="translate(958.9059312141935 158.2573606049964) rotate(0 23.4375 12)"><text x="23.4375" y="0" font-family="Cascadia, Segoe UI Emoji" font-size="20px" fill="#1e1e1e" text-anchor="middle" style="white-space: pre;" direction="ltr" dominant-baseline="text-before-edge">enum</text></g></g><g clip-path="url(#6W6sb72G7DcVsOhnLpMwe)"><g stroke-linecap="round"><g transform="translate(869.9566560600288 128.41009730515862) rotate(0 5.908434475622471 0.24005449291973946)"><path d="M0 0 C1.97 0.08, 9.85 0.4, 11.82 0.48 M0 0 C1.97 0.08, 9.85 0.4, 11.82 0.48" stroke="#1e1e1e" stroke-width="2" fill="none"></path></g></g><mask></mask></g><g clip-path="url(#6W6sb72G7DcVsOhnLpMwe)"><g transform="translate(801.0451004147726 117.9304200592187) rotate(0 32.8125 9.600000000000023)"><text x="0" y="0" font-family="Cascadia, Segoe UI Emoji" font-size="16px" fill="#1e1e1e" text-anchor="start" style="white-space: pre;" direction="ltr" dominant-baseline="text-before-edge">allowed</text></g></g><g clip-path="url(#6W6sb72G7DcVsOhnLpMwe)"><g stroke-linecap="round" transform="translate(796.3669702257157 114.4922506683281) rotate(0 48.573050932781825 13.51916322738191)"><path d="M6.76 0 M6.76 0 C26.25 0, 45.73 0, 90.39 0 M90.39 0 C94.89 0, 97.15 2.25, 97.15 6.76 M97.15 6.76 C97.15 11.86, 97.15 16.96, 97.15 20.28 M97.15 20.28 C97.15 24.79, 94.89 27.04, 90.39 27.04 M90.39 27.04 C69.32 27.04, 48.25 27.04, 6.76 27.04 M6.76 27.04 C2.25 27.04, 0 24.79, 0 20.28 M0 20.28 C0 17.35, 0 14.42, 0 6.76 M0 6.76 C0 2.25, 2.25 0, 6.76 0" stroke="#1e1e1e" stroke-width="1.5" fill="none" stroke-dasharray="8 9"></path></g></g><g clip-path="url(#6W6sb72G7DcVsOhnLpMwe)"><g stroke-linecap="round"><g transform="translate(513.8593153261081 44.959971472083225) rotate(0 0 248.34665355571326)"><path d="M0 0 C0 82.78, 0 413.91, 0 496.69" stroke="#1e1e1e" stroke-width="4.5" fill="none" stroke-dasharray="8 12"></path></g></g><mask></mask></g><g clip-path="url(#6W6sb72G7DcVsOhnLpMwe)"><g stroke-linecap="round" transform="translate(258.4824572008506 288.34386742249353) rotate(0 108.214285714286 108.2142857142859)"><path d="M28.32 35.22 C28.32 35.22, 28.32 35.22, 28.32 35.22 M28.32 35.22 C28.32 35.22, 28.32 35.22, 28.32 35.22 M11.66 60.49 C19.28 51.71, 26.91 42.94, 44.46 22.75 M11.66 60.49 C21.86 48.76, 32.05 37.03, 44.46 22.75 M8.77 69.9 C21.37 55.41, 33.97 40.91, 53.39 18.58 M8.77 69.9 C18.82 58.34, 28.87 46.78, 53.39 18.58 M5.23 80.07 C16.89 66.66, 28.54 53.26, 62.96 13.66 M5.23 80.07 C27.01 55.02, 48.79 29.97, 62.96 13.66 M3 88.74 C24.23 64.32, 45.45 39.91, 71.89 9.49 M3 88.74 C24.14 64.42, 45.27 40.11, 71.89 9.49 M1.43 96.64 C18.74 76.72, 36.06 56.81, 80.16 6.08 M1.43 96.64 C17.74 77.87, 34.06 59.1, 80.16 6.08 M3.14 100.78 C35.24 63.84, 67.35 26.91, 89.08 1.91 M3.14 100.78 C34 65.27, 64.86 29.77, 89.08 1.91 M0.91 109.44 C23.24 83.75, 45.57 58.05, 94.72 1.51 M0.91 109.44 C25.74 80.87, 50.57 52.3, 94.72 1.51 M1.3 115.08 C24.04 88.92, 46.78 62.76, 99.71 1.87 M1.3 115.08 C29.11 83.09, 56.92 51.1, 99.71 1.87 M2.35 119.97 C36.79 80.35, 71.23 40.74, 105.35 1.48 M2.35 119.97 C39.61 77.11, 76.87 34.24, 105.35 1.48 M3.4 124.86 C25.8 99.09, 48.2 73.32, 110.34 1.84 M3.4 124.86 C32.93 90.89, 62.46 56.91, 110.34 1.84 M4.45 129.75 C28.11 102.53, 51.77 75.31, 115.33 2.2 M4.45 129.75 C44.26 83.96, 84.06 38.16, 115.33 2.2 M5.5 134.63 C41.57 93.15, 77.63 51.66, 120.31 2.56 M5.5 134.63 C44.21 90.1, 82.93 45.57, 120.31 2.56 M6.55 139.52 C42.93 97.67, 79.31 55.82, 125.3 2.92 M6.55 139.52 C38.09 103.25, 69.62 66.97, 125.3 2.92 M7.6 144.41 C47.73 98.26, 87.85 52.1, 130.29 3.28 M7.6 144.41 C51.94 93.4, 96.28 42.4, 130.29 3.28 M9.31 148.55 C43.27 109.48, 77.23 70.41, 134.62 4.4 M9.31 148.55 C51.77 99.7, 94.23 50.85, 134.62 4.4 M11.02 152.68 C50.26 107.54, 89.49 62.4, 138.95 5.51 M11.02 152.68 C42.12 116.9, 73.21 81.13, 138.95 5.51 M12.07 157.57 C50.34 113.54, 88.61 69.52, 143.28 6.63 M12.07 157.57 C62.57 99.47, 113.07 41.38, 143.28 6.63 M14.43 160.95 C52.82 116.79, 91.2 72.63, 147.61 7.74 M14.43 160.95 C64.35 103.52, 114.27 46.09, 147.61 7.74 M16.14 165.08 C67.38 106.13, 118.62 47.19, 151.29 9.61 M16.14 165.08 C51 124.98, 85.86 84.87, 151.29 9.61 M19.16 167.7 C71.45 107.55, 123.74 47.39, 155.62 10.72 M19.16 167.7 C66.61 113.11, 114.07 58.52, 155.62 10.72 M21.52 171.08 C58.66 128.35, 95.81 85.62, 158.64 13.35 M21.52 171.08 C71 114.16, 120.49 57.23, 158.64 13.35 M23.23 175.22 C62.16 130.43, 101.09 85.65, 162.31 15.22 M23.23 175.22 C58.19 135, 93.15 94.78, 162.31 15.22 M26.24 177.84 C72.49 124.65, 118.73 71.45, 165.99 17.09 M26.24 177.84 C74.45 122.38, 122.66 66.93, 165.99 17.09 M28.61 181.22 C77 125.55, 125.39 69.89, 169.66 18.96 M28.61 181.22 C81.31 120.59, 134.02 59.96, 169.66 18.96 M31.63 183.84 C66.85 143.32, 102.07 102.8, 172.68 21.58 M31.63 183.84 C61.23 149.79, 90.83 115.73, 172.68 21.58 M33.99 187.22 C78.49 136.03, 122.99 84.84, 175.7 24.21 M33.99 187.22 C76.64 138.15, 119.3 89.08, 175.7 24.21 M37.01 189.85 C85.82 133.69, 134.64 77.54, 178.72 26.83 M37.01 189.85 C65.87 156.64, 94.74 123.44, 178.72 26.83 M40.03 192.47 C70.02 157.97, 100.01 123.47, 182.39 28.7 M40.03 192.47 C71.1 156.73, 102.17 120.98, 182.39 28.7 M43.05 195.1 C79.72 152.9, 116.4 110.71, 184.75 32.08 M43.05 195.1 C88.82 142.44, 134.59 89.79, 184.75 32.08 M46.72 196.97 C78.8 160.06, 110.89 123.15, 187.77 34.7 M46.72 196.97 C76.15 163.11, 105.59 129.25, 187.77 34.7 M49.74 199.59 C86.84 156.91, 123.93 114.24, 190.79 37.33 M49.74 199.59 C79.75 165.06, 109.77 130.54, 190.79 37.33 M53.41 201.46 C86.31 163.61, 119.21 125.77, 193.15 40.71 M53.41 201.46 C102.88 144.55, 152.35 87.65, 193.15 40.71 M56.43 204.08 C105.65 147.47, 154.86 90.86, 195.52 44.08 M56.43 204.08 C93.5 161.45, 130.56 118.81, 195.52 44.08 M60.76 205.2 C99.45 160.7, 138.14 116.19, 197.88 47.46 M60.76 205.2 C92.9 168.23, 125.03 131.27, 197.88 47.46 M64.44 207.07 C112.6 151.66, 160.77 96.25, 200.24 50.84 M64.44 207.07 C108.7 156.15, 152.97 105.22, 200.24 50.84 M68.11 208.94 C107.54 163.58, 146.98 118.22, 203.26 53.47 M68.11 208.94 C98.97 173.44, 129.83 137.94, 203.26 53.47 M71.79 210.81 C100.48 177.8, 129.17 144.79, 204.97 57.6 M71.79 210.81 C122.6 152.36, 173.41 93.9, 204.97 57.6 M75.46 212.68 C123.35 157.58, 171.25 102.49, 206.68 61.73 M75.46 212.68 C103.41 180.53, 131.35 148.38, 206.68 61.73 M79.79 213.79 C119.99 167.55, 160.2 121.3, 208.38 65.87 M79.79 213.79 C114.76 173.57, 149.73 133.34, 208.38 65.87 M84.13 214.91 C119.28 174.46, 154.44 134.02, 210.09 70 M84.13 214.91 C117.35 176.69, 150.57 138.47, 210.09 70 M89.11 215.27 C131.97 165.97, 174.82 116.67, 211.8 74.14 M89.11 215.27 C136.27 161.02, 183.42 106.78, 211.8 74.14 M94.1 215.63 C140.16 162.64, 186.23 109.64, 212.85 79.02 M94.1 215.63 C136.2 167.2, 178.3 118.76, 212.85 79.02 M98.43 216.74 C127.88 182.86, 157.33 148.98, 213.9 83.91 M98.43 216.74 C139.35 169.67, 180.27 122.59, 213.9 83.91 M104.07 216.35 C139.76 175.3, 175.44 134.25, 214.95 88.8 M104.07 216.35 C132.65 183.48, 161.22 150.61, 214.95 88.8 M109.06 216.71 C139.65 181.51, 170.25 146.32, 216 93.69 M109.06 216.71 C148.22 171.66, 187.37 126.62, 216 93.69 M114.05 217.07 C143.7 182.96, 173.34 148.85, 217.05 98.58 M114.05 217.07 C139.18 188.16, 164.31 159.25, 217.05 98.58 M119.69 216.67 C151.26 180.36, 182.82 144.04, 216.79 104.97 M119.69 216.67 C144.17 188.51, 168.65 160.35, 216.79 104.97 M125.33 216.28 C159.51 176.97, 193.68 137.65, 217.84 109.86 M125.33 216.28 C160.73 175.56, 196.12 134.84, 217.84 109.86 M130.32 216.64 C163.6 178.35, 196.89 140.06, 217.58 116.26 M130.32 216.64 C164.63 177.17, 198.94 137.71, 217.58 116.26 M138.59 213.22 C156.73 192.35, 174.87 171.48, 218.63 121.15 M138.59 213.22 C157.9 191.01, 177.21 168.79, 218.63 121.15 M147.51 209.06 C167.55 186, 187.6 162.94, 216.4 129.81 M147.51 209.06 C162.58 191.72, 177.65 174.39, 216.4 129.81 M155.78 205.64 C178.65 179.33, 201.53 153.01, 213.51 139.23 M155.78 205.64 C178.07 180, 200.35 154.37, 213.51 139.23 M165.36 200.72 C175.14 189.47, 184.92 178.22, 210.63 148.64 M165.36 200.72 C179.24 184.75, 193.12 168.79, 210.63 148.64 M181.5 188.25 C189.2 179.39, 196.9 170.53, 201.18 165.61 M181.5 188.25 C187.04 181.88, 192.57 175.51, 201.18 165.61" stroke="#b2f2bb" stroke-width="0.5" fill="none"></path><path d="M216.43 108.21 C216.43 111.54, 216.27 114.88, 215.97 118.2 C215.66 121.51, 215.2 124.83, 214.59 128.1 C213.97 131.37, 213.21 134.63, 212.3 137.83 C211.39 141.03, 210.32 144.2, 209.12 147.31 C207.92 150.41, 206.57 153.47, 205.08 156.45 C203.6 159.43, 201.97 162.35, 200.22 165.18 C198.47 168.01, 196.58 170.77, 194.57 173.43 C192.57 176.08, 190.43 178.66, 188.19 181.12 C185.94 183.58, 183.58 185.94, 181.12 188.19 C178.66 190.43, 176.08 192.57, 173.43 194.57 C170.77 196.58, 168.01 198.47, 165.18 200.22 C162.35 201.97, 159.43 203.6, 156.45 205.08 C153.47 206.57, 150.41 207.92, 147.31 209.12 C144.2 210.32, 141.03 211.39, 137.83 212.3 C134.63 213.21, 131.37 213.97, 128.1 214.59 C124.83 215.2, 121.51 215.66, 118.2 215.97 C114.88 216.27, 111.54 216.43, 108.21 216.43 C104.89 216.43, 101.54 216.27, 98.23 215.97 C94.92 215.66, 91.6 215.2, 88.33 214.59 C85.06 213.97, 81.8 213.21, 78.6 212.3 C75.4 211.39, 72.23 210.32, 69.12 209.12 C66.02 207.92, 62.96 206.57, 59.98 205.08 C57 203.6, 54.08 201.97, 51.25 200.22 C48.42 198.47, 45.66 196.58, 43 194.57 C40.34 192.57, 37.77 190.43, 35.31 188.19 C32.85 185.94, 30.49 183.58, 28.24 181.12 C26 178.66, 23.86 176.08, 21.86 173.43 C19.85 170.77, 17.96 168.01, 16.21 165.18 C14.46 162.35, 12.83 159.43, 11.34 156.45 C9.86 153.47, 8.51 150.41, 7.31 147.31 C6.11 144.2, 5.04 141.03, 4.13 137.83 C3.22 134.63, 2.45 131.37, 1.84 128.1 C1.23 124.83, 0.77 121.51, 0.46 118.2 C0.15 114.88, 0 111.54, 0 108.21 C0 104.89, 0.15 101.54, 0.46 98.23 C0.77 94.92, 1.23 91.6, 1.84 88.33 C2.45 85.06, 3.22 81.8, 4.13 78.6 C5.04 75.4, 6.11 72.23, 7.31 69.12 C8.51 66.02, 9.86 62.96, 11.34 59.98 C12.83 57, 14.46 54.08, 16.21 51.25 C17.96 48.42, 19.85 45.66, 21.86 43 C23.86 40.34, 26 37.77, 28.24 35.31 C30.49 32.85, 32.85 30.49, 35.31 28.24 C37.77 26, 40.34 23.86, 43 21.86 C45.66 19.85, 48.42 17.96, 51.25 16.21 C54.08 14.46, 57 12.83, 59.98 11.34 C62.96 9.86, 66.02 8.51, 69.12 7.31 C72.23 6.11, 75.4 5.04, 78.6 4.13 C81.8 3.22, 85.06 2.45, 88.33 1.84 C91.6 1.23, 94.92 0.77, 98.23 0.46 C101.54 0.15, 104.89 0, 108.21 0 C111.54 0, 114.88 0.15, 118.2 0.46 C121.51 0.77, 124.83 1.23, 128.1 1.84 C131.37 2.45, 134.63 3.22, 137.83 4.13 C141.03 5.04, 144.2 6.11, 147.31 7.31 C150.41 8.51, 153.47 9.86, 156.45 11.34 C159.43 12.83, 162.35 14.46, 165.18 16.21 C168.01 17.96, 170.77 19.85, 173.43 21.86 C176.08 23.86, 178.66 26, 181.12 28.24 C183.58 30.49, 185.94 32.85, 188.19 35.31 C190.43 37.77, 192.57 40.34, 194.57 43 C196.58 45.66, 198.47 48.42, 200.22 51.25 C201.97 54.08, 203.6 57, 205.08 59.98 C206.57 62.96, 207.92 66.02, 209.12 69.12 C210.32 72.23, 211.39 75.4, 212.3 78.6 C213.21 81.8, 213.97 85.06, 214.59 88.33 C215.2 91.6, 215.66 94.92, 215.97 98.23 C216.27 101.54, 216.35 106.55, 216.43 108.21 C216.51 109.88, 216.51 106.55, 216.43 108.21" stroke="#1e1e1e" stroke-width="1" fill="none"></path></g></g><g clip-path="url(#6W6sb72G7DcVsOhnLpMwe)"><g transform="translate(325.6620626653066 384.5390978869493) rotate(0 41.015625 12)"><text x="41.015625" y="0" font-family="Cascadia, Segoe UI Emoji" font-size="20px" fill="#1e1e1e" text-anchor="middle" style="white-space: pre;" direction="ltr" dominant-baseline="text-before-edge">isoDate</text></g></g><g clip-path="url(#6W6sb72G7DcVsOhnLpMwe)"><g stroke-linecap="round"><g transform="translate(1118.2584114972506 47.961754771581354) rotate(0 0 241.87816143577163)"><path d="M0 0 C0 80.63, 0 403.13, 0 483.76" stroke="#1e1e1e" stroke-width="4.5" fill="none" stroke-dasharray="8 12"></path></g></g><mask></mask></g><g clip-path="url(#6W6sb72G7DcVsOhnLpMwe)"><g stroke-linecap="round" transform="translate(1245.7516295079513 184.00580612769954) rotate(0 108.21428571428578 108.2142857142859)"><path d="M28.32 35.22 C28.32 35.22, 28.32 35.22, 28.32 35.22 M28.32 35.22 C28.32 35.22, 28.32 35.22, 28.32 35.22 M11.66 60.49 C23.38 47.01, 35.09 33.53, 44.46 22.75 M11.66 60.49 C20.91 49.84, 30.16 39.2, 44.46 22.75 M8.77 69.9 C25.35 50.83, 41.93 31.76, 53.39 18.58 M8.77 69.9 C22.34 54.3, 35.9 38.7, 53.39 18.58 M5.23 80.07 C18.59 64.71, 31.94 49.35, 62.96 13.66 M5.23 80.07 C19.38 63.79, 33.53 47.52, 62.96 13.66 M3 88.74 C30.21 57.44, 57.42 26.14, 71.89 9.49 M3 88.74 C23.09 65.63, 43.17 42.52, 71.89 9.49 M1.43 96.64 C20.94 74.2, 40.45 51.75, 80.16 6.08 M1.43 96.64 C21.71 73.31, 42 49.97, 80.16 6.08 M3.14 100.78 C21.83 79.27, 40.53 57.76, 89.08 1.91 M3.14 100.78 C22.05 79.02, 40.96 57.26, 89.08 1.91 M0.91 109.44 C37.46 67.39, 74 25.35, 94.72 1.51 M0.91 109.44 C24.57 82.22, 48.23 54.99, 94.72 1.51 M1.3 115.08 C23.24 89.84, 45.18 64.6, 99.71 1.87 M1.3 115.08 C26.76 85.79, 52.23 56.5, 99.71 1.87 M2.35 119.97 C40.03 76.62, 77.71 33.28, 105.35 1.48 M2.35 119.97 C34.25 83.27, 66.16 46.57, 105.35 1.48 M3.4 124.86 C43.09 79.2, 82.79 33.53, 110.34 1.84 M3.4 124.86 C32.83 91, 62.27 57.14, 110.34 1.84 M4.45 129.75 C39.09 89.9, 73.73 50.05, 115.33 2.2 M4.45 129.75 C44.32 83.89, 84.18 38.03, 115.33 2.2 M5.5 134.63 C39.82 95.15, 74.14 55.67, 120.31 2.56 M5.5 134.63 C44.04 90.31, 82.57 45.98, 120.31 2.56 M6.55 139.52 C41.2 99.66, 75.85 59.8, 125.3 2.92 M6.55 139.52 C39.74 101.35, 72.92 63.17, 125.3 2.92 M7.6 144.41 C34.52 113.45, 61.43 82.49, 130.29 3.28 M7.6 144.41 C32.69 115.56, 57.77 86.7, 130.29 3.28 M9.31 148.55 C58.55 91.9, 107.79 35.26, 134.62 4.4 M9.31 148.55 C58.9 91.5, 108.49 34.45, 134.62 4.4 M11.02 152.68 C39.46 119.96, 67.9 87.25, 138.95 5.51 M11.02 152.68 C42.32 116.67, 73.62 80.66, 138.95 5.51 M12.07 157.57 C42.43 122.64, 72.8 87.7, 143.28 6.63 M12.07 157.57 C62.33 99.75, 112.59 41.93, 143.28 6.63 M14.43 160.95 C64.25 103.64, 114.06 46.33, 147.61 7.74 M14.43 160.95 C56.74 112.28, 99.05 63.6, 147.61 7.74 M16.14 165.08 C49.84 126.31, 83.53 87.55, 151.29 9.61 M16.14 165.08 C65.41 108.4, 114.67 51.73, 151.29 9.61 M19.16 167.7 C48.84 133.56, 78.52 99.42, 155.62 10.72 M19.16 167.7 C57.82 123.23, 96.48 78.75, 155.62 10.72 M21.52 171.08 C51.05 137.11, 80.58 103.14, 158.64 13.35 M21.52 171.08 C50.55 137.68, 79.59 104.28, 158.64 13.35 M23.23 175.22 C61.07 131.68, 98.92 88.14, 162.31 15.22 M23.23 175.22 C64.94 127.23, 106.65 79.25, 162.31 15.22 M26.24 177.84 C71.63 125.63, 117.01 73.42, 165.99 17.09 M26.24 177.84 C60.43 138.51, 94.62 99.18, 165.99 17.09 M28.61 181.22 C75.71 127.04, 122.81 72.85, 169.66 18.96 M28.61 181.22 C74.32 128.63, 120.03 76.05, 169.66 18.96 M31.63 183.84 C73.85 135.28, 116.07 86.71, 172.68 21.58 M31.63 183.84 C78.42 130.02, 125.21 76.19, 172.68 21.58 M33.99 187.22 C87.2 126.01, 140.41 64.8, 175.7 24.21 M33.99 187.22 C63.9 152.82, 93.81 118.41, 175.7 24.21 M37.01 189.85 C77.73 143, 118.46 96.15, 178.72 26.83 M37.01 189.85 C92.25 126.3, 147.49 62.76, 178.72 26.83 M40.03 192.47 C75.05 152.18, 110.07 111.9, 182.39 28.7 M40.03 192.47 C70.55 157.36, 101.07 122.25, 182.39 28.7 M43.05 195.1 C94.62 135.77, 146.19 76.44, 184.75 32.08 M43.05 195.1 C83.32 148.76, 123.6 102.43, 184.75 32.08 M46.72 196.97 C99.07 136.75, 151.41 76.53, 187.77 34.7 M46.72 196.97 C87.08 150.54, 127.43 104.11, 187.77 34.7 M49.74 199.59 C82.24 162.21, 114.73 124.82, 190.79 37.33 M49.74 199.59 C96.1 146.26, 142.46 92.92, 190.79 37.33 M53.41 201.46 C88.79 160.77, 124.16 120.08, 193.15 40.71 M53.41 201.46 C106.05 140.9, 158.69 80.35, 193.15 40.71 M56.43 204.08 C100.22 153.71, 144.01 103.34, 195.52 44.08 M56.43 204.08 C110.04 142.42, 163.64 80.75, 195.52 44.08 M60.76 205.2 C111.61 146.7, 162.46 88.2, 197.88 47.46 M60.76 205.2 C106.7 152.35, 152.64 99.51, 197.88 47.46 M64.44 207.07 C101.36 164.59, 138.29 122.11, 200.24 50.84 M64.44 207.07 C114.01 150.04, 163.58 93.02, 200.24 50.84 M68.11 208.94 C105.92 165.45, 143.72 121.96, 203.26 53.47 M68.11 208.94 C96.29 176.53, 124.46 144.11, 203.26 53.47 M71.79 210.81 C109.44 167.49, 147.1 124.17, 204.97 57.6 M71.79 210.81 C115.28 160.78, 158.77 110.75, 204.97 57.6 M75.46 212.68 C116.36 165.63, 157.25 118.59, 206.68 61.73 M75.46 212.68 C120.44 160.94, 165.42 109.2, 206.68 61.73 M79.79 213.79 C125.46 161.26, 171.12 108.74, 208.38 65.87 M79.79 213.79 C128.34 157.95, 176.88 102.11, 208.38 65.87 M84.13 214.91 C118.79 175.03, 153.46 135.15, 210.09 70 M84.13 214.91 C119.67 174.02, 155.21 133.13, 210.09 70 M89.11 215.27 C116.5 183.75, 143.9 152.24, 211.8 74.14 M89.11 215.27 C134.97 162.51, 180.83 109.75, 211.8 74.14 M94.1 215.63 C136.31 167.07, 178.51 118.52, 212.85 79.02 M94.1 215.63 C126.08 178.84, 158.06 142.05, 212.85 79.02 M98.43 216.74 C127.08 183.78, 155.74 150.82, 213.9 83.91 M98.43 216.74 C123.82 187.54, 149.2 158.33, 213.9 83.91 M104.07 216.35 C127.8 189.05, 151.52 161.76, 214.95 88.8 M104.07 216.35 C142.36 172.31, 180.64 128.27, 214.95 88.8 M109.06 216.71 C142.97 177.69, 176.89 138.68, 216 93.69 M109.06 216.71 C148.46 171.38, 187.86 126.06, 216 93.69 M114.05 217.07 C143.82 182.81, 173.6 148.56, 217.05 98.58 M114.05 217.07 C139.76 187.49, 165.46 157.92, 217.05 98.58 M119.69 216.67 C153.11 178.22, 186.54 139.78, 216.79 104.97 M119.69 216.67 C150.84 180.84, 181.99 145.01, 216.79 104.97 M125.33 216.28 C152.67 184.83, 180 153.39, 217.84 109.86 M125.33 216.28 C154.96 182.2, 184.58 148.13, 217.84 109.86 M130.32 216.64 C162.6 179.5, 194.88 142.37, 217.58 116.26 M130.32 216.64 C158.82 183.85, 187.32 151.07, 217.58 116.26 M138.59 213.22 C164.56 183.34, 190.54 153.46, 218.63 121.15 M138.59 213.22 C170.09 176.99, 201.59 140.75, 218.63 121.15 M147.51 209.06 C165.52 188.34, 183.53 167.62, 216.4 129.81 M147.51 209.06 C167.08 186.55, 186.64 164.04, 216.4 129.81 M155.78 205.64 C175.65 182.79, 195.51 159.94, 213.51 139.23 M155.78 205.64 C173.36 185.42, 190.94 165.2, 213.51 139.23 M165.36 200.72 C174.97 189.66, 184.59 178.6, 210.63 148.64 M165.36 200.72 C176.2 188.24, 187.05 175.77, 210.63 148.64 M181.5 188.25 C187.38 181.49, 193.26 174.72, 201.18 165.61 M181.5 188.25 C189.1 179.5, 196.7 170.76, 201.18 165.61" stroke="#b2f2bb" stroke-width="0.5" fill="none"></path><path d="M216.43 108.21 C216.43 111.54, 216.27 114.88, 215.97 118.2 C215.66 121.51, 215.2 124.83, 214.59 128.1 C213.97 131.37, 213.21 134.63, 212.3 137.83 C211.39 141.03, 210.32 144.2, 209.12 147.31 C207.92 150.41, 206.57 153.47, 205.08 156.45 C203.6 159.43, 201.97 162.35, 200.22 165.18 C198.47 168.01, 196.58 170.77, 194.57 173.43 C192.57 176.08, 190.43 178.66, 188.19 181.12 C185.94 183.58, 183.58 185.94, 181.12 188.19 C178.66 190.43, 176.08 192.57, 173.43 194.57 C170.77 196.58, 168.01 198.47, 165.18 200.22 C162.35 201.97, 159.43 203.6, 156.45 205.08 C153.47 206.57, 150.41 207.92, 147.31 209.12 C144.2 210.32, 141.03 211.39, 137.83 212.3 C134.63 213.21, 131.37 213.97, 128.1 214.59 C124.83 215.2, 121.51 215.66, 118.2 215.97 C114.88 216.27, 111.54 216.43, 108.21 216.43 C104.89 216.43, 101.54 216.27, 98.23 215.97 C94.92 215.66, 91.6 215.2, 88.33 214.59 C85.06 213.97, 81.8 213.21, 78.6 212.3 C75.4 211.39, 72.23 210.32, 69.12 209.12 C66.02 207.92, 62.96 206.57, 59.98 205.08 C57 203.6, 54.08 201.97, 51.25 200.22 C48.42 198.47, 45.66 196.58, 43 194.57 C40.34 192.57, 37.77 190.43, 35.31 188.19 C32.85 185.94, 30.49 183.58, 28.24 181.12 C26 178.66, 23.86 176.08, 21.86 173.43 C19.85 170.77, 17.96 168.01, 16.21 165.18 C14.46 162.35, 12.83 159.43, 11.34 156.45 C9.86 153.47, 8.51 150.41, 7.31 147.31 C6.11 144.2, 5.04 141.03, 4.13 137.83 C3.22 134.63, 2.45 131.37, 1.84 128.1 C1.23 124.83, 0.77 121.51, 0.46 118.2 C0.15 114.88, 0 111.54, 0 108.21 C0 104.89, 0.15 101.54, 0.46 98.23 C0.77 94.92, 1.23 91.6, 1.84 88.33 C2.45 85.06, 3.22 81.8, 4.13 78.6 C5.04 75.4, 6.11 72.23, 7.31 69.12 C8.51 66.02, 9.86 62.96, 11.34 59.98 C12.83 57, 14.46 54.08, 16.21 51.25 C17.96 48.42, 19.85 45.66, 21.86 43 C23.86 40.34, 26 37.77, 28.24 35.31 C30.49 32.85, 32.85 30.49, 35.31 28.24 C37.77 26, 40.34 23.86, 43 21.86 C45.66 19.85, 48.42 17.96, 51.25 16.21 C54.08 14.46, 57 12.83, 59.98 11.34 C62.96 9.86, 66.02 8.51, 69.12 7.31 C72.23 6.11, 75.4 5.04, 78.6 4.13 C81.8 3.22, 85.06 2.45, 88.33 1.84 C91.6 1.23, 94.92 0.77, 98.23 0.46 C101.54 0.15, 104.89 0, 108.21 0 C111.54 0, 114.88 0.15, 118.2 0.46 C121.51 0.77, 124.83 1.23, 128.1 1.84 C131.37 2.45, 134.63 3.22, 137.83 4.13 C141.03 5.04, 144.2 6.11, 147.31 7.31 C150.41 8.51, 153.47 9.86, 156.45 11.34 C159.43 12.83, 162.35 14.46, 165.18 16.21 C168.01 17.96, 170.77 19.85, 173.43 21.86 C176.08 23.86, 178.66 26, 181.12 28.24 C183.58 30.49, 185.94 32.85, 188.19 35.31 C190.43 37.77, 192.57 40.34, 194.57 43 C196.58 45.66, 198.47 48.42, 200.22 51.25 C201.97 54.08, 203.6 57, 205.08 59.98 C206.57 62.96, 207.92 66.02, 209.12 69.12 C210.32 72.23, 211.39 75.4, 212.3 78.6 C213.21 81.8, 213.97 85.06, 214.59 88.33 C215.2 91.6, 215.66 94.92, 215.97 98.23 C216.27 101.54, 216.35 106.55, 216.43 108.21 C216.51 109.88, 216.51 106.55, 216.43 108.21" stroke="#1e1e1e" stroke-width="1" fill="none"></path></g></g><g clip-path="url(#6W6sb72G7DcVsOhnLpMwe)"><g transform="translate(1301.2124849724069 268.20103659215533) rotate(0 52.734375 24)"><text x="52.734375" y="0" font-family="Cascadia, Segoe UI Emoji" font-size="20px" fill="#1e1e1e" text-anchor="middle" style="white-space: pre;" direction="ltr" dominant-baseline="text-before-edge">domain</text><text x="52.734375" y="24" font-family="Cascadia, Segoe UI Emoji" font-size="20px" fill="#1e1e1e" text-anchor="middle" style="white-space: pre;" direction="ltr" dominant-baseline="text-before-edge">validator</text></g></g><g clip-path="url(#6W6sb72G7DcVsOhnLpMwe)"><g stroke-linecap="round"><g transform="translate(1256.384857766031 244.06904997733818) rotate(0 -9.895987651372707 0.06776065229553296)"><path d="M0 0 C-3.3 0.02, -16.49 0.11, -19.79 0.14 M0 0 C-3.3 0.02, -16.49 0.11, -19.79 0.14" stroke="#1e1e1e" stroke-width="2" fill="none"></path></g></g><mask></mask></g><g clip-path="url(#6W6sb72G7DcVsOhnLpMwe)"><g transform="translate(1168.5899212464574 230.31676984724209) rotate(0 32.8125 9.600000000000023)"><text x="0" y="0" font-family="Cascadia, Segoe UI Emoji" font-size="16px" fill="#1e1e1e" text-anchor="start" style="white-space: pre;" direction="ltr" dominant-baseline="text-before-edge">args...</text></g></g><g clip-path="url(#6W6sb72G7DcVsOhnLpMwe)"><g transform="translate(1212.6935125880773 541.6003671859023) rotate(0 124.11051177978516 17.5)"><text x="0" y="0" font-family="Virgil, Segoe UI Emoji" font-size="28px" fill="#1e1e1e" text-anchor="start" style="white-space: pre;" direction="ltr" dominant-baseline="text-before-edge">custom validators</text></g></g></svg>