<svg version="1.1" xmlns="http://www.w3.org/2000/svg" viewBox="0 0 1735 568.0724936133673" width="3470" height="1136.1449872267347" filter="invert(93%) hue-rotate(180deg)">
  <!-- svg-source:excalidraw -->
  
  <defs>
    <style class="style-fonts">
      @font-face {
        font-family: "Virgil";
        src: url("https://excalidraw.com/Virgil.woff2");
      }
      @font-face {
        font-family: "Cascadia";
        src: url("https://excalidraw.com/Cascadia.woff2");
      }
    </style>
    <clipPath id="iFbU-tKXW-8_W5VpIZWr8">
            <rect transform="translate(0 0) rotate(0 867.5 284.03624680668366)" width="1735" height="568.0724936133673">
          </rect>
        </clipPath>
  </defs>
  <rect x="0" y="0" width="1735" height="568.0724936133673" fill="#ffffff"></rect><g clip-path="url(#iFbU-tKXW-8_W5VpIZWr8)"><g transform="translate(780.0217132394437 75.07222305185894) rotate(0 242.578125 21.599999999999994)"><text x="0" y="0" font-family="Cascadia, Segoe UI Emoji" font-size="36px" fill="#1e1e1e" text-anchor="start" style="white-space: pre;" direction="ltr" dominant-baseline="text-before-edge">pattern = "^(.+)@(.+)$"</text></g></g><g clip-path="url(#iFbU-tKXW-8_W5VpIZWr8)"><g stroke-linecap="round" transform="translate(740.2598084775391 48.40555638519231) rotate(0 272.5 48.75)"><path d="M24.37 0 M24.37 0 C178.15 0, 331.92 0, 520.63 0 M24.37 0 C216.91 0, 409.44 0, 520.63 0 M520.63 0 C536.88 0, 545 8.12, 545 24.37 M520.63 0 C536.88 0, 545 8.12, 545 24.37 M545 24.37 C545 36.2, 545 48.03, 545 73.12 M545 24.37 C545 36.56, 545 48.75, 545 73.12 M545 73.12 C545 89.37, 536.88 97.5, 520.63 97.5 M545 73.12 C545 89.37, 536.88 97.5, 520.63 97.5 M520.63 97.5 C394.89 97.5, 269.15 97.5, 24.37 97.5 M520.63 97.5 C368.02 97.5, 215.42 97.5, 24.37 97.5 M24.37 97.5 C8.12 97.5, 0 89.37, 0 73.12 M24.37 97.5 C8.12 97.5, 0 89.37, 0 73.12 M0 73.12 C0 59.34, 0 45.55, 0 24.37 M0 73.12 C0 57.83, 0 42.53, 0 24.37 M0 24.37 C0 8.12, 8.12 0, 24.37 0 M0 24.37 C0 8.12, 8.12 0, 24.37 0" stroke="#1e1e1e" stroke-width="1" fill="none"></path></g></g><g clip-path="url(#iFbU-tKXW-8_W5VpIZWr8)"><g stroke-linecap="round"><g transform="translate(1060.82471178195 146.90555638519243) rotate(0 17.908672761320304 45.10162500102109)"><path d="M0 0 C-0.88 11.58, -12.52 54.45, -5.28 69.48 C1.96 84.52, 35.34 86.75, 43.46 90.2 M0 0 C-0.88 11.58, -12.52 54.45, -5.28 69.48 C1.96 84.52, 35.34 86.75, 43.46 90.2" stroke="#1e1e1e" stroke-width="2" fill="none"></path></g><g transform="translate(1060.82471178195 146.90555638519243) rotate(0 17.908672761320304 45.10162500102109)"><path d="M17.13 93.01 C26.16 92.05, 35.19 91.08, 43.46 90.2 M17.13 93.01 C26.66 91.99, 36.2 90.98, 43.46 90.2" stroke="#1e1e1e" stroke-width="2" fill="none"></path></g><g transform="translate(1060.82471178195 146.90555638519243) rotate(0 17.908672761320304 45.10162500102109)"><path d="M21.48 75.43 C29.02 80.49, 36.56 85.56, 43.46 90.2 M21.48 75.43 C29.44 80.78, 37.4 86.13, 43.46 90.2" stroke="#1e1e1e" stroke-width="2" fill="none"></path></g></g><mask></mask></g><g clip-path="url(#iFbU-tKXW-8_W5VpIZWr8)"><g transform="translate(89.10813487196174 250.3974087975031) rotate(0 259.82666015625 44.349999999999966)"><text x="0" y="0" font-family="Cascadia, Segoe UI Emoji" font-size="73.91666666666664px" fill="#1e1e1e" text-anchor="start" style="white-space: pre;" direction="ltr" dominant-baseline="text-before-edge">createWarden</text></g></g><g clip-path="url(#iFbU-tKXW-8_W5VpIZWr8)"><g transform="translate(599.5248015386287 146.1593135594079) rotate(0 74.50103759765625 152.58666666666647)"><text x="0" y="0" font-family="Cascadia, Segoe UI Emoji" font-size="254.3111111111108px" fill="#1e1e1e" text-anchor="start" style="white-space: pre;" direction="ltr" dominant-baseline="text-before-edge">(</text></g></g><g clip-path="url(#iFbU-tKXW-8_W5VpIZWr8)"><g transform="translate(1018.38591264974 221.94899609909055) rotate(0 53.668212890625 109.92000000000007)"><text x="0" y="0" font-family="Cascadia, Segoe UI Emoji" font-size="183.2000000000001px" fill="#1e1e1e" text-anchor="start" style="white-space: pre;" direction="ltr" dominant-baseline="text-before-edge">,</text></g></g><g clip-path="url(#iFbU-tKXW-8_W5VpIZWr8)"><g stroke-linecap="round" transform="translate(824.9414682052948 190.44502784512213) rotate(0 108.21428571428578 108.2142857142859)"><path d="M28.32 35.22 C28.32 35.22, 28.32 35.22, 28.32 35.22 M28.32 35.22 C28.32 35.22, 28.32 35.22, 28.32 35.22 M11.66 60.49 C19.88 51.03, 28.1 41.57, 44.46 22.75 M11.66 60.49 C21.33 49.36, 31.01 38.23, 44.46 22.75 M8.77 69.9 C21.71 55.02, 34.65 40.13, 53.39 18.58 M8.77 69.9 C26.26 49.79, 43.74 29.67, 53.39 18.58 M5.23 80.07 C22.14 60.62, 39.05 41.17, 62.96 13.66 M5.23 80.07 C26.88 55.17, 48.53 30.26, 62.96 13.66 M3 88.74 C19.26 70.03, 35.52 51.33, 71.89 9.49 M3 88.74 C28.69 59.19, 54.37 29.64, 71.89 9.49 M1.43 96.64 C19.26 76.13, 37.09 55.62, 80.16 6.08 M1.43 96.64 C24.19 70.46, 46.95 44.28, 80.16 6.08 M3.14 100.78 C30.34 69.48, 57.54 38.19, 89.08 1.91 M3.14 100.78 C32.07 67.5, 61 34.21, 89.08 1.91 M0.91 109.44 C21.49 85.76, 42.07 62.08, 94.72 1.51 M0.91 109.44 C26.42 80.08, 51.94 50.73, 94.72 1.51 M1.3 115.08 C33.3 78.27, 65.3 41.46, 99.71 1.87 M1.3 115.08 C33.75 77.75, 66.2 40.42, 99.71 1.87 M2.35 119.97 C24.61 94.37, 46.86 68.77, 105.35 1.48 M2.35 119.97 C28.82 89.52, 55.28 59.08, 105.35 1.48 M3.4 124.86 C33.59 90.13, 63.77 55.41, 110.34 1.84 M3.4 124.86 C29.85 94.44, 56.29 64.02, 110.34 1.84 M4.45 129.75 C30.78 99.45, 57.12 69.16, 115.33 2.2 M4.45 129.75 C46.11 81.83, 87.77 33.91, 115.33 2.2 M5.5 134.63 C43.92 90.44, 82.34 46.25, 120.31 2.56 M5.5 134.63 C43.69 90.7, 81.88 46.77, 120.31 2.56 M6.55 139.52 C39.95 101.1, 73.36 62.68, 125.3 2.92 M6.55 139.52 C37.24 104.22, 67.93 68.92, 125.3 2.92 M7.6 144.41 C38.96 108.34, 70.31 72.28, 130.29 3.28 M7.6 144.41 C41.67 105.22, 75.74 66.03, 130.29 3.28 M9.31 148.55 C37.07 116.61, 64.83 84.67, 134.62 4.4 M9.31 148.55 C51.12 100.45, 92.93 52.35, 134.62 4.4 M11.02 152.68 C55.16 101.9, 99.3 51.12, 138.95 5.51 M11.02 152.68 C52.3 105.19, 93.59 57.69, 138.95 5.51 M12.07 157.57 C52.62 110.92, 93.16 64.28, 143.28 6.63 M12.07 157.57 C55.17 107.98, 98.27 58.4, 143.28 6.63 M14.43 160.95 C58.32 110.46, 102.2 59.98, 147.61 7.74 M14.43 160.95 C61.91 106.33, 109.38 51.71, 147.61 7.74 M16.14 165.08 C52.76 122.95, 89.38 80.82, 151.29 9.61 M16.14 165.08 C65.92 107.81, 115.7 50.55, 151.29 9.61 M19.16 167.7 C54.92 126.56, 90.68 85.43, 155.62 10.72 M19.16 167.7 C48.66 133.77, 78.16 99.83, 155.62 10.72 M21.52 171.08 C50.48 137.76, 79.44 104.45, 158.64 13.35 M21.52 171.08 C59.51 127.37, 97.51 83.66, 158.64 13.35 M23.23 175.22 C54.15 139.65, 85.06 104.08, 162.31 15.22 M23.23 175.22 C77.11 113.23, 131 51.24, 162.31 15.22 M26.24 177.84 C69.59 127.98, 112.93 78.12, 165.99 17.09 M26.24 177.84 C64.97 133.29, 103.7 88.74, 165.99 17.09 M28.61 181.22 C59.13 146.11, 89.66 110.99, 169.66 18.96 M28.61 181.22 C71.53 131.85, 114.45 82.47, 169.66 18.96 M31.63 183.84 C77.44 131.14, 123.25 78.44, 172.68 21.58 M31.63 183.84 C72.42 136.91, 113.22 89.98, 172.68 21.58 M33.99 187.22 C73.26 142.05, 112.52 96.88, 175.7 24.21 M33.99 187.22 C69.31 146.6, 104.62 105.97, 175.7 24.21 M37.01 189.85 C77.9 142.8, 118.8 95.76, 178.72 26.83 M37.01 189.85 C69.97 151.93, 102.92 114.02, 178.72 26.83 M40.03 192.47 C91.8 132.91, 143.58 73.34, 182.39 28.7 M40.03 192.47 C76.07 151.01, 112.12 109.54, 182.39 28.7 M43.05 195.1 C73.04 160.59, 103.03 126.09, 184.75 32.08 M43.05 195.1 C89.08 142.14, 135.11 89.19, 184.75 32.08 M46.72 196.97 C83.68 154.44, 120.65 111.92, 187.77 34.7 M46.72 196.97 C102.52 132.78, 158.31 68.59, 187.77 34.7 M49.74 199.59 C103.43 137.83, 157.11 76.07, 190.79 37.33 M49.74 199.59 C103.63 137.59, 157.53 75.59, 190.79 37.33 M53.41 201.46 C93.19 155.71, 132.96 109.95, 193.15 40.71 M53.41 201.46 C95.92 152.57, 138.42 103.67, 193.15 40.71 M56.43 204.08 C92.41 162.69, 128.39 121.3, 195.52 44.08 M56.43 204.08 C100.78 153.06, 145.13 102.05, 195.52 44.08 M60.76 205.2 C111.54 146.78, 162.33 88.37, 197.88 47.46 M60.76 205.2 C95.75 164.95, 130.74 124.7, 197.88 47.46 M64.44 207.07 C116.81 146.82, 169.19 86.57, 200.24 50.84 M64.44 207.07 C98.14 168.3, 131.84 129.54, 200.24 50.84 M68.11 208.94 C120.12 149.11, 172.13 89.28, 203.26 53.47 M68.11 208.94 C105.06 166.44, 142 123.94, 203.26 53.47 M71.79 210.81 C108.79 168.24, 145.79 125.67, 204.97 57.6 M71.79 210.81 C122.57 152.39, 173.35 93.97, 204.97 57.6 M75.46 212.68 C104.35 179.45, 133.23 146.22, 206.68 61.73 M75.46 212.68 C105.87 177.69, 136.29 142.71, 206.68 61.73 M79.79 213.79 C121.99 165.25, 164.18 116.71, 208.38 65.87 M79.79 213.79 C122 165.24, 164.2 116.7, 208.38 65.87 M84.13 214.91 C121.28 172.16, 158.44 129.42, 210.09 70 M84.13 214.91 C128.47 163.9, 172.81 112.89, 210.09 70 M89.11 215.27 C126.65 172.08, 164.2 128.89, 211.8 74.14 M89.11 215.27 C137.83 159.23, 186.54 103.18, 211.8 74.14 M94.1 215.63 C124.33 180.85, 154.56 146.08, 212.85 79.02 M94.1 215.63 C130.2 174.09, 166.31 132.56, 212.85 79.02 M98.43 216.74 C128.16 182.54, 157.89 148.34, 213.9 83.91 M98.43 216.74 C132.46 177.6, 166.49 138.45, 213.9 83.91 M104.07 216.35 C134.09 181.82, 164.11 147.28, 214.95 88.8 M104.07 216.35 C138.04 177.27, 172 138.2, 214.95 88.8 M109.06 216.71 C131 191.47, 152.93 166.24, 216 93.69 M109.06 216.71 C133.25 188.88, 157.44 161.06, 216 93.69 M114.05 217.07 C149.26 176.56, 184.47 136.06, 217.05 98.58 M114.05 217.07 C137.3 190.32, 160.55 163.57, 217.05 98.58 M119.69 216.67 C143.78 188.96, 167.87 161.25, 216.79 104.97 M119.69 216.67 C158.06 172.54, 196.42 128.4, 216.79 104.97 M125.33 216.28 C161.67 174.48, 198 132.68, 217.84 109.86 M125.33 216.28 C151.01 186.74, 176.68 157.21, 217.84 109.86 M130.32 216.64 C153.19 190.33, 176.06 164.02, 217.58 116.26 M130.32 216.64 C156.81 186.17, 183.3 155.7, 217.58 116.26 M138.59 213.22 C168.61 178.69, 198.63 144.15, 218.63 121.15 M138.59 213.22 C164.64 183.25, 190.7 153.28, 218.63 121.15 M147.51 209.06 C175.02 177.41, 202.53 145.76, 216.4 129.81 M147.51 209.06 C164.87 189.09, 182.22 169.13, 216.4 129.81 M155.78 205.64 C176.95 181.28, 198.13 156.93, 213.51 139.23 M155.78 205.64 C177.82 180.28, 199.87 154.92, 213.51 139.23 M165.36 200.72 C182.96 180.47, 200.56 160.23, 210.63 148.64 M165.36 200.72 C176.19 188.26, 187.01 175.81, 210.63 148.64 M181.5 188.25 C186.86 182.08, 192.22 175.91, 201.18 165.61 M181.5 188.25 C187.54 181.3, 193.59 174.34, 201.18 165.61" stroke="#b2f2bb" stroke-width="0.5" fill="none"></path><path d="M216.43 108.21 C216.43 111.54, 216.27 114.88, 215.97 118.2 C215.66 121.51, 215.2 124.83, 214.59 128.1 C213.97 131.37, 213.21 134.63, 212.3 137.83 C211.39 141.03, 210.32 144.2, 209.12 147.31 C207.92 150.41, 206.57 153.47, 205.08 156.45 C203.6 159.43, 201.97 162.35, 200.22 165.18 C198.47 168.01, 196.58 170.77, 194.57 173.43 C192.57 176.08, 190.43 178.66, 188.19 181.12 C185.94 183.58, 183.58 185.94, 181.12 188.19 C178.66 190.43, 176.08 192.57, 173.43 194.57 C170.77 196.58, 168.01 198.47, 165.18 200.22 C162.35 201.97, 159.43 203.6, 156.45 205.08 C153.47 206.57, 150.41 207.92, 147.31 209.12 C144.2 210.32, 141.03 211.39, 137.83 212.3 C134.63 213.21, 131.37 213.97, 128.1 214.59 C124.83 215.2, 121.51 215.66, 118.2 215.97 C114.88 216.27, 111.54 216.43, 108.21 216.43 C104.89 216.43, 101.54 216.27, 98.23 215.97 C94.92 215.66, 91.6 215.2, 88.33 214.59 C85.06 213.97, 81.8 213.21, 78.6 212.3 C75.4 211.39, 72.23 210.32, 69.12 209.12 C66.02 207.92, 62.96 206.57, 59.98 205.08 C57 203.6, 54.08 201.97, 51.25 200.22 C48.42 198.47, 45.66 196.58, 43 194.57 C40.34 192.57, 37.77 190.43, 35.31 188.19 C32.85 185.94, 30.49 183.58, 28.24 181.12 C26 178.66, 23.86 176.08, 21.86 173.43 C19.85 170.77, 17.96 168.01, 16.21 165.18 C14.46 162.35, 12.83 159.43, 11.34 156.45 C9.86 153.47, 8.51 150.41, 7.31 147.31 C6.11 144.2, 5.04 141.03, 4.13 137.83 C3.22 134.63, 2.45 131.37, 1.84 128.1 C1.23 124.83, 0.77 121.51, 0.46 118.2 C0.15 114.88, 0 111.54, 0 108.21 C0 104.89, 0.15 101.54, 0.46 98.23 C0.77 94.92, 1.23 91.6, 1.84 88.33 C2.45 85.06, 3.22 81.8, 4.13 78.6 C5.04 75.4, 6.11 72.23, 7.31 69.12 C8.51 66.02, 9.86 62.96, 11.34 59.98 C12.83 57, 14.46 54.08, 16.21 51.25 C17.96 48.42, 19.85 45.66, 21.86 43 C23.86 40.34, 26 37.77, 28.24 35.31 C30.49 32.85, 32.85 30.49, 35.31 28.24 C37.77 26, 40.34 23.86, 43 21.86 C45.66 19.85, 48.42 17.96, 51.25 16.21 C54.08 14.46, 57 12.83, 59.98 11.34 C62.96 9.86, 66.02 8.51, 69.12 7.31 C72.23 6.11, 75.4 5.04, 78.6 4.13 C81.8 3.22, 85.06 2.45, 88.33 1.84 C91.6 1.23, 94.92 0.77, 98.23 0.46 C101.54 0.15, 104.89 0, 108.21 0 C111.54 0, 114.88 0.15, 118.2 0.46 C121.51 0.77, 124.83 1.23, 128.1 1.84 C131.37 2.45, 134.63 3.22, 137.83 4.13 C141.03 5.04, 144.2 6.11, 147.31 7.31 C150.41 8.51, 153.47 9.86, 156.45 11.34 C159.43 12.83, 162.35 14.46, 165.18 16.21 C168.01 17.96, 170.77 19.85, 173.43 21.86 C176.08 23.86, 178.66 26, 181.12 28.24 C183.58 30.49, 185.94 32.85, 188.19 35.31 C190.43 37.77, 192.57 40.34, 194.57 43 C196.58 45.66, 198.47 48.42, 200.22 51.25 C201.97 54.08, 203.6 57, 205.08 59.98 C206.57 62.96, 207.92 66.02, 209.12 69.12 C210.32 72.23, 211.39 75.4, 212.3 78.6 C213.21 81.8, 213.97 85.06, 214.59 88.33 C215.2 91.6, 215.66 94.92, 215.97 98.23 C216.27 101.54, 216.35 106.55, 216.43 108.21 C216.51 109.88, 216.51 106.55, 216.43 108.21" stroke="#1e1e1e" stroke-width="1" fill="none"></path></g></g><g clip-path="url(#iFbU-tKXW-8_W5VpIZWr8)"><g transform="translate(886.2616986697503 286.6402583095779) rotate(0 46.875 12)"><text x="46.875" y="0" font-family="Cascadia, Segoe UI Emoji" font-size="20px" fill="#1e1e1e" text-anchor="middle" style="white-space: pre;" direction="ltr" dominant-baseline="text-before-edge">notEmpty</text></g></g><g clip-path="url(#iFbU-tKXW-8_W5VpIZWr8)"><g transform="translate(1480.8449900306941 138.6480437181384) rotate(0 74.50103759765625 152.58666666666647)"><text x="0" y="0" font-family="Cascadia, Segoe UI Emoji" font-size="254.3111111111108px" fill="#1e1e1e" text-anchor="start" style="white-space: pre;" direction="ltr" dominant-baseline="text-before-edge">)</text></g></g><g clip-path="url(#iFbU-tKXW-8_W5VpIZWr8)"><g transform="translate(709.4164186021217 148.29090086099552) rotate(0 74.50103759765625 152.58666666666647)"><text x="0" y="0" font-family="Cascadia, Segoe UI Emoji" font-size="254.3111111111108px" fill="#1e1e1e" text-anchor="start" style="white-space: pre;" direction="ltr" dominant-baseline="text-before-edge">[</text></g></g><g clip-path="url(#iFbU-tKXW-8_W5VpIZWr8)"><g transform="translate(1390.84916076637 136.5051865752813) rotate(0 74.50103759765625 152.58666666666647)"><text x="0" y="0" font-family="Cascadia, Segoe UI Emoji" font-size="254.3111111111108px" fill="#1e1e1e" text-anchor="start" style="white-space: pre;" direction="ltr" dominant-baseline="text-before-edge">]</text></g></g><g clip-path="url(#iFbU-tKXW-8_W5VpIZWr8)"><g stroke-linecap="round" transform="translate(1172.5623027916245 193.04796730652185) rotate(0 108.21428571428578 108.2142857142859)"><path d="M28.32 35.22 C28.32 35.22, 28.32 35.22, 28.32 35.22 M28.32 35.22 C28.32 35.22, 28.32 35.22, 28.32 35.22 M11.66 60.49 C19.68 51.26, 27.71 42.03, 44.46 22.75 M11.66 60.49 C24 46.29, 36.34 32.09, 44.46 22.75 M8.77 69.9 C21.78 54.93, 34.8 39.97, 53.39 18.58 M8.77 69.9 C24.42 51.9, 40.07 33.89, 53.39 18.58 M5.23 80.07 C26.1 56.07, 46.97 32.06, 62.96 13.66 M5.23 80.07 C20.91 62.03, 36.6 43.99, 62.96 13.66 M3 88.74 C19.62 69.61, 36.25 50.49, 71.89 9.49 M3 88.74 C30.52 57.08, 58.05 25.41, 71.89 9.49 M1.43 96.64 C22.56 72.33, 43.69 48.02, 80.16 6.08 M1.43 96.64 C30.22 63.52, 59.01 30.41, 80.16 6.08 M3.14 100.78 C25.85 74.64, 48.57 48.51, 89.08 1.91 M3.14 100.78 C27.83 72.37, 52.52 43.96, 89.08 1.91 M0.91 109.44 C35.53 69.6, 70.16 29.77, 94.72 1.51 M0.91 109.44 C36.87 68.07, 72.83 26.7, 94.72 1.51 M1.3 115.08 C38.3 72.52, 75.3 29.95, 99.71 1.87 M1.3 115.08 C29.83 82.26, 58.35 49.45, 99.71 1.87 M2.35 119.97 C40 76.66, 77.65 33.35, 105.35 1.48 M2.35 119.97 C30.79 87.26, 59.22 54.55, 105.35 1.48 M3.4 124.86 C29.07 95.32, 54.75 65.79, 110.34 1.84 M3.4 124.86 C41.85 80.63, 80.29 36.41, 110.34 1.84 M4.45 129.75 C44.16 84.07, 83.87 38.39, 115.33 2.2 M4.45 129.75 C40.15 88.68, 75.85 47.62, 115.33 2.2 M5.5 134.63 C36.36 99.14, 67.22 63.64, 120.31 2.56 M5.5 134.63 C31.34 104.92, 57.17 75.2, 120.31 2.56 M6.55 139.52 C47.62 92.28, 88.69 45.03, 125.3 2.92 M6.55 139.52 C33.34 108.7, 60.14 77.88, 125.3 2.92 M7.6 144.41 C47.19 98.87, 86.78 53.33, 130.29 3.28 M7.6 144.41 C43.4 103.23, 79.2 62.05, 130.29 3.28 M9.31 148.55 C50.16 101.55, 91.02 54.55, 134.62 4.4 M9.31 148.55 C36.65 117.09, 64 85.64, 134.62 4.4 M11.02 152.68 C37.99 121.65, 64.96 90.62, 138.95 5.51 M11.02 152.68 C54.75 102.37, 98.47 52.07, 138.95 5.51 M12.07 157.57 C63.82 98.03, 115.57 38.5, 143.28 6.63 M12.07 157.57 C58.97 103.61, 105.88 49.65, 143.28 6.63 M14.43 160.95 C66.48 101.07, 118.52 41.2, 147.61 7.74 M14.43 160.95 C45.54 125.16, 76.65 89.37, 147.61 7.74 M16.14 165.08 C49.28 126.96, 82.42 88.83, 151.29 9.61 M16.14 165.08 C46.91 129.68, 77.69 94.27, 151.29 9.61 M19.16 167.7 C55.79 125.56, 92.42 83.42, 155.62 10.72 M19.16 167.7 C46.75 135.96, 74.34 104.22, 155.62 10.72 M21.52 171.08 C58.69 128.32, 95.87 85.56, 158.64 13.35 M21.52 171.08 C54.4 133.26, 87.28 95.43, 158.64 13.35 M23.23 175.22 C64.7 127.51, 106.17 79.81, 162.31 15.22 M23.23 175.22 C73.2 117.73, 123.17 60.24, 162.31 15.22 M26.24 177.84 C63.02 135.53, 99.8 93.23, 165.99 17.09 M26.24 177.84 C72.52 124.6, 118.8 71.37, 165.99 17.09 M28.61 181.22 C68.49 135.34, 108.38 89.46, 169.66 18.96 M28.61 181.22 C84.06 117.43, 139.51 53.65, 169.66 18.96 M31.63 183.84 C75.48 133.39, 119.34 82.94, 172.68 21.58 M31.63 183.84 C69.12 140.72, 106.61 97.59, 172.68 21.58 M33.99 187.22 C72.74 142.64, 111.5 98.06, 175.7 24.21 M33.99 187.22 C72.02 143.47, 110.05 99.72, 175.7 24.21 M37.01 189.85 C79.85 140.56, 122.7 91.27, 178.72 26.83 M37.01 189.85 C84.37 135.36, 131.73 80.88, 178.72 26.83 M40.03 192.47 C78.47 148.25, 116.91 104.03, 182.39 28.7 M40.03 192.47 C86.5 139.01, 132.97 85.55, 182.39 28.7 M43.05 195.1 C74.77 158.61, 106.49 122.12, 184.75 32.08 M43.05 195.1 C78.98 153.76, 114.91 112.42, 184.75 32.08 M46.72 196.97 C91.92 144.96, 137.13 92.96, 187.77 34.7 M46.72 196.97 C101.05 134.46, 155.38 71.96, 187.77 34.7 M49.74 199.59 C86.44 157.36, 123.15 115.14, 190.79 37.33 M49.74 199.59 C87.47 156.18, 125.21 112.77, 190.79 37.33 M53.41 201.46 C84.36 165.87, 115.3 130.27, 193.15 40.71 M53.41 201.46 C86.82 163.02, 120.24 124.59, 193.15 40.71 M56.43 204.08 C97.43 156.92, 138.43 109.75, 195.52 44.08 M56.43 204.08 C90.69 164.67, 124.95 125.26, 195.52 44.08 M60.76 205.2 C90.63 170.84, 120.5 136.48, 197.88 47.46 M60.76 205.2 C110.01 148.55, 159.26 91.89, 197.88 47.46 M64.44 207.07 C92.85 174.38, 121.27 141.69, 200.24 50.84 M64.44 207.07 C116.96 146.65, 169.49 86.23, 200.24 50.84 M68.11 208.94 C109.09 161.8, 150.06 114.67, 203.26 53.47 M68.11 208.94 C121.23 147.84, 174.34 86.74, 203.26 53.47 M71.79 210.81 C122.9 152.02, 174 93.22, 204.97 57.6 M71.79 210.81 C113.37 162.98, 154.95 115.14, 204.97 57.6 M75.46 212.68 C117.36 164.48, 159.25 116.29, 206.68 61.73 M75.46 212.68 C110.2 172.72, 144.93 132.76, 206.68 61.73 M79.79 213.79 C130.83 155.09, 181.86 96.38, 208.38 65.87 M79.79 213.79 C127.7 158.68, 175.61 103.56, 208.38 65.87 M84.13 214.91 C116.44 177.74, 148.75 140.57, 210.09 70 M84.13 214.91 C118.77 175.05, 153.42 135.19, 210.09 70 M89.11 215.27 C129.06 169.31, 169.02 123.35, 211.8 74.14 M89.11 215.27 C131.36 166.66, 173.61 118.06, 211.8 74.14 M94.1 215.63 C136.08 167.33, 178.06 119.03, 212.85 79.02 M94.1 215.63 C118 188.13, 141.9 160.63, 212.85 79.02 M98.43 216.74 C126.78 184.12, 155.14 151.5, 213.9 83.91 M98.43 216.74 C136.61 172.82, 174.79 128.9, 213.9 83.91 M104.07 216.35 C148.16 165.63, 192.24 114.92, 214.95 88.8 M104.07 216.35 C148.11 165.68, 192.16 115.02, 214.95 88.8 M109.06 216.71 C144.4 176.05, 179.75 135.39, 216 93.69 M109.06 216.71 C136.97 184.59, 164.89 152.48, 216 93.69 M114.05 217.07 C137.15 190.49, 160.26 163.91, 217.05 98.58 M114.05 217.07 C144.25 182.32, 174.46 147.57, 217.05 98.58 M119.69 216.67 C153.95 177.27, 188.2 137.86, 216.79 104.97 M119.69 216.67 C157.72 172.92, 195.75 129.18, 216.79 104.97 M125.33 216.28 C145.47 193.11, 165.61 169.94, 217.84 109.86 M125.33 216.28 C152.75 184.74, 180.16 153.2, 217.84 109.86 M130.32 216.64 C163.76 178.17, 197.2 139.7, 217.58 116.26 M130.32 216.64 C148.23 196.03, 166.15 175.42, 217.58 116.26 M138.59 213.22 C155.42 193.86, 172.25 174.5, 218.63 121.15 M138.59 213.22 C161.8 186.52, 185.02 159.81, 218.63 121.15 M147.51 209.06 C167.56 185.99, 187.6 162.93, 216.4 129.81 M147.51 209.06 C168.95 184.39, 190.39 159.73, 216.4 129.81 M155.78 205.64 C177.89 180.21, 200 154.77, 213.51 139.23 M155.78 205.64 C175.08 183.43, 194.39 161.22, 213.51 139.23 M165.36 200.72 C176.39 188.02, 187.43 175.33, 210.63 148.64 M165.36 200.72 C180.99 182.73, 196.63 164.75, 210.63 148.64 M181.5 188.25 C188.69 179.98, 195.87 171.71, 201.18 165.61 M181.5 188.25 C188.7 179.96, 195.91 171.67, 201.18 165.61" stroke="#a5d8ff" stroke-width="0.5" fill="none"></path><path d="M216.43 108.21 C216.43 111.54, 216.27 114.88, 215.97 118.2 C215.66 121.51, 215.2 124.83, 214.59 128.1 C213.97 131.37, 213.21 134.63, 212.3 137.83 C211.39 141.03, 210.32 144.2, 209.12 147.31 C207.92 150.41, 206.57 153.47, 205.08 156.45 C203.6 159.43, 201.97 162.35, 200.22 165.18 C198.47 168.01, 196.58 170.77, 194.57 173.43 C192.57 176.08, 190.43 178.66, 188.19 181.12 C185.94 183.58, 183.58 185.94, 181.12 188.19 C178.66 190.43, 176.08 192.57, 173.43 194.57 C170.77 196.58, 168.01 198.47, 165.18 200.22 C162.35 201.97, 159.43 203.6, 156.45 205.08 C153.47 206.57, 150.41 207.92, 147.31 209.12 C144.2 210.32, 141.03 211.39, 137.83 212.3 C134.63 213.21, 131.37 213.97, 128.1 214.59 C124.83 215.2, 121.51 215.66, 118.2 215.97 C114.88 216.27, 111.54 216.43, 108.21 216.43 C104.89 216.43, 101.54 216.27, 98.23 215.97 C94.92 215.66, 91.6 215.2, 88.33 214.59 C85.06 213.97, 81.8 213.21, 78.6 212.3 C75.4 211.39, 72.23 210.32, 69.12 209.12 C66.02 207.92, 62.96 206.57, 59.98 205.08 C57 203.6, 54.08 201.97, 51.25 200.22 C48.42 198.47, 45.66 196.58, 43 194.57 C40.34 192.57, 37.77 190.43, 35.31 188.19 C32.85 185.94, 30.49 183.58, 28.24 181.12 C26 178.66, 23.86 176.08, 21.86 173.43 C19.85 170.77, 17.96 168.01, 16.21 165.18 C14.46 162.35, 12.83 159.43, 11.34 156.45 C9.86 153.47, 8.51 150.41, 7.31 147.31 C6.11 144.2, 5.04 141.03, 4.13 137.83 C3.22 134.63, 2.45 131.37, 1.84 128.1 C1.23 124.83, 0.77 121.51, 0.46 118.2 C0.15 114.88, 0 111.54, 0 108.21 C0 104.89, 0.15 101.54, 0.46 98.23 C0.77 94.92, 1.23 91.6, 1.84 88.33 C2.45 85.06, 3.22 81.8, 4.13 78.6 C5.04 75.4, 6.11 72.23, 7.31 69.12 C8.51 66.02, 9.86 62.96, 11.34 59.98 C12.83 57, 14.46 54.08, 16.21 51.25 C17.96 48.42, 19.85 45.66, 21.86 43 C23.86 40.34, 26 37.77, 28.24 35.31 C30.49 32.85, 32.85 30.49, 35.31 28.24 C37.77 26, 40.34 23.86, 43 21.86 C45.66 19.85, 48.42 17.96, 51.25 16.21 C54.08 14.46, 57 12.83, 59.98 11.34 C62.96 9.86, 66.02 8.51, 69.12 7.31 C72.23 6.11, 75.4 5.04, 78.6 4.13 C81.8 3.22, 85.06 2.45, 88.33 1.84 C91.6 1.23, 94.92 0.77, 98.23 0.46 C101.54 0.15, 104.89 0, 108.21 0 C111.54 0, 114.88 0.15, 118.2 0.46 C121.51 0.77, 124.83 1.23, 128.1 1.84 C131.37 2.45, 134.63 3.22, 137.83 4.13 C141.03 5.04, 144.2 6.11, 147.31 7.31 C150.41 8.51, 153.47 9.86, 156.45 11.34 C159.43 12.83, 162.35 14.46, 165.18 16.21 C168.01 17.96, 170.77 19.85, 173.43 21.86 C176.08 23.86, 178.66 26, 181.12 28.24 C183.58 30.49, 185.94 32.85, 188.19 35.31 C190.43 37.77, 192.57 40.34, 194.57 43 C196.58 45.66, 198.47 48.42, 200.22 51.25 C201.97 54.08, 203.6 57, 205.08 59.98 C206.57 62.96, 207.92 66.02, 209.12 69.12 C210.32 72.23, 211.39 75.4, 212.3 78.6 C213.21 81.8, 213.97 85.06, 214.59 88.33 C215.2 91.6, 215.66 94.92, 215.97 98.23 C216.27 101.54, 216.35 106.55, 216.43 108.21 C216.51 109.88, 216.51 106.55, 216.43 108.21" stroke="#1e1e1e" stroke-width="1" fill="none"></path></g></g><g clip-path="url(#iFbU-tKXW-8_W5VpIZWr8)"><g transform="translate(1251.46065825608 289.2431977709779) rotate(0 29.296875 12)"><text x="29.296875" y="0" font-family="Cascadia, Segoe UI Emoji" font-size="20px" fill="#1e1e1e" text-anchor="middle" style="white-space: pre;" direction="ltr" dominant-baseline="text-before-edge">regex</text></g></g><g clip-path="url(#iFbU-tKXW-8_W5VpIZWr8)"><g stroke-linecap="round"><g transform="translate(1183.9089197887024 231.81781006541416) rotate(0 6.440752037210132 0.17620013505273846)"><path d="M0 0 C2.15 0.06, 10.73 0.29, 12.88 0.35 M0 0 C2.15 0.06, 10.73 0.29, 12.88 0.35" stroke="#1e1e1e" stroke-width="2" fill="none"></path></g></g><mask></mask></g><g clip-path="url(#iFbU-tKXW-8_W5VpIZWr8)"><g transform="translate(1112.8474558879407 220.3672934129571) rotate(0 32.8125 9.600000000000023)"><text x="0" y="0" font-family="Cascadia, Segoe UI Emoji" font-size="16px" fill="#1e1e1e" text-anchor="start" style="white-space: pre;" direction="ltr" dominant-baseline="text-before-edge">pattern</text></g></g><g clip-path="url(#iFbU-tKXW-8_W5VpIZWr8)"><g stroke-linecap="round" transform="translate(1105.8327626956343 211.38672199732798) rotate(0 52.046091920966774 20.08077562305033)"><path d="M10.04 0 M10.04 0 C37.99 0, 65.95 0, 94.05 0 M94.05 0 C100.75 0, 104.09 3.35, 104.09 10.04 M104.09 10.04 C104.09 15.56, 104.09 21.08, 104.09 30.12 M104.09 30.12 C104.09 36.81, 100.75 40.16, 94.05 40.16 M94.05 40.16 C65.54 40.16, 37.03 40.16, 10.04 40.16 M10.04 40.16 C3.35 40.16, 0 36.81, 0 30.12 M0 30.12 C0 22.93, 0 15.74, 0 10.04 M0 10.04 C0 3.35, 3.35 0, 10.04 0" stroke="#1e1e1e" stroke-width="2.5" fill="none" stroke-dasharray="8 10"></path></g></g><g clip-path="url(#iFbU-tKXW-8_W5VpIZWr8)"><g transform="translate(347.07152604383737 497.3008417947449) rotate(0 503.7077331542969 26.452137579474254)"><text x="0" y="0" font-family="Virgil, Segoe UI Emoji" font-size="42.32342012715877px" fill="#1e1e1e" text-anchor="start" style="white-space: pre;" direction="ltr" dominant-baseline="text-before-edge">input should not be empty &amp; should match regex</text></g></g></svg>