<svg version="1.1" xmlns="http://www.w3.org/2000/svg" viewBox="0 0 1570.3186484919079 776.4552324052645" width="3140.6372969838158" height="1552.910464810529" filter="invert(93%) hue-rotate(180deg)">
  <!-- svg-source:excalidraw -->
  
  <defs>
    <style class="style-fonts">
      @font-face {
        font-family: "Virgil";
        src: url("https://excalidraw.com/Virgil.woff2");
      }
      @font-face {
        font-family: "Cascadia";
        src: url("https://excalidraw.com/Cascadia.woff2");
      }
    </style>
    <clipPath id="Yl5sGIF2xFwhY6ny5Dos8">
            <rect transform="translate(0 0) rotate(0 785.1593242459539 388.22761620263225)" width="1570.318648491908" height="776.4552324052645">
          </rect>
        </clipPath>
  </defs>
  <rect x="0" y="0" width="1570.3186484919079" height="776.4552324052645" fill="#ffffff"></rect><g clip-path="url(#Yl5sGIF2xFwhY6ny5Dos8)"><g transform="translate(440.67041586899995 46.48478986870339) rotate(0 474.609375 86.39999999999998)"><text x="0" y="0" font-family="Cascadia, Segoe UI Emoji" font-size="36px" fill="#1e1e1e" text-anchor="start" style="white-space: pre;" direction="ltr" dominant-baseline="text-before-edge">allowed = [</text><text x="0" y="43.199999999999996" font-family="Cascadia, Segoe UI Emoji" font-size="36px" fill="#1e1e1e" text-anchor="start" style="white-space: pre;" direction="ltr" dominant-baseline="text-before-edge">    "Started", "In_Progress", "Not_Started", </text><text x="0" y="86.39999999999999" font-family="Cascadia, Segoe UI Emoji" font-size="36px" fill="#1e1e1e" text-anchor="start" style="white-space: pre;" direction="ltr" dominant-baseline="text-before-edge">    "Errored", "Success"</text><text x="0" y="129.6" font-family="Cascadia, Segoe UI Emoji" font-size="36px" fill="#1e1e1e" text-anchor="start" style="white-space: pre;" direction="ltr" dominant-baseline="text-before-edge">]</text></g></g><g clip-path="url(#Yl5sGIF2xFwhY6ny5Dos8)"><g stroke-linecap="round" transform="translate(410.9085111070963 14.818123202036759) rotate(0 487.5 115)"><path d="M32 0 M32 0 C249.06 0, 466.12 0, 943 0 M32 0 C269.42 0, 506.84 0, 943 0 M943 0 C964.33 0, 975 10.67, 975 32 M943 0 C964.33 0, 975 10.67, 975 32 M975 32 C975 85.55, 975 139.09, 975 198 M975 32 C975 70.74, 975 109.48, 975 198 M975 198 C975 219.33, 964.33 230, 943 230 M975 198 C975 219.33, 964.33 230, 943 230 M943 230 C668.8 230, 394.6 230, 32 230 M943 230 C735.98 230, 528.97 230, 32 230 M32 230 C10.67 230, 0 219.33, 0 198 M32 230 C10.67 230, 0 219.33, 0 198 M0 198 C0 140.38, 0 82.77, 0 32 M0 198 C0 134.19, 0 70.37, 0 32 M0 32 C0 10.67, 10.67 0, 32 0 M0 32 C0 10.67, 10.67 0, 32 0" stroke="#1e1e1e" stroke-width="1" fill="none"></path></g></g><g clip-path="url(#Yl5sGIF2xFwhY6ny5Dos8)"><g stroke-linecap="round"><g transform="translate(983.615117663634 245.08474901088903) rotate(0 31.097948500736038 115.8250204289072)"><path d="M0 0 C0.88 33.58, -5.28 162.9, 5.25 201.51 C15.79 240.12, 53.54 226.63, 63.2 231.65 M0 0 C0.88 33.58, -5.28 162.9, 5.25 201.51 C15.79 240.12, 53.54 226.63, 63.2 231.65" stroke="#1e1e1e" stroke-width="2" fill="none"></path></g><g transform="translate(983.615117663634 245.08474901088903) rotate(0 31.097948500736038 115.8250204289072)"><path d="M34.15 239.15 C43.18 236.82, 52.21 234.49, 63.2 231.65 M34.15 239.15 C44.93 236.37, 55.72 233.58, 63.2 231.65" stroke="#1e1e1e" stroke-width="2" fill="none"></path></g><g transform="translate(983.615117663634 245.08474901088903) rotate(0 31.097948500736038 115.8250204289072)"><path d="M36.13 218.73 C44.54 222.74, 52.96 226.76, 63.2 231.65 M36.13 218.73 C46.18 223.52, 56.23 228.32, 63.2 231.65" stroke="#1e1e1e" stroke-width="2" fill="none"></path></g></g><mask></mask></g><g clip-path="url(#Yl5sGIF2xFwhY6ny5Dos8)"><g transform="translate(12.499780948363878 467.46891685283026) rotate(0 259.82666015625 44.34999999999999)"><text x="0" y="0" font-family="Cascadia, Segoe UI Emoji" font-size="73.91666666666664px" fill="#1e1e1e" text-anchor="start" style="white-space: pre;" direction="ltr" dominant-baseline="text-before-edge">createWarden</text></g></g><g clip-path="url(#Yl5sGIF2xFwhY6ny5Dos8)"><g transform="translate(522.9164476150318 363.23082161473496) rotate(0 74.50103759765625 152.58666666666647)"><text x="0" y="0" font-family="Cascadia, Segoe UI Emoji" font-size="254.3111111111108px" fill="#1e1e1e" text-anchor="start" style="white-space: pre;" direction="ltr" dominant-baseline="text-before-edge">(</text></g></g><g clip-path="url(#Yl5sGIF2xFwhY6ny5Dos8)"><g transform="translate(941.777558726144 439.02050415441755) rotate(0 53.668212890625 109.92000000000006)"><text x="0" y="0" font-family="Cascadia, Segoe UI Emoji" font-size="183.2000000000001px" fill="#1e1e1e" text-anchor="start" style="white-space: pre;" direction="ltr" dominant-baseline="text-before-edge">,</text></g></g><g clip-path="url(#Yl5sGIF2xFwhY6ny5Dos8)"><g stroke-linecap="round" transform="translate(748.3331142816987 407.51653590044924) rotate(0 108.21428571428578 108.2142857142859)"><path d="M28.32 35.22 C28.32 35.22, 28.32 35.22, 28.32 35.22 M28.32 35.22 C28.32 35.22, 28.32 35.22, 28.32 35.22 M11.66 60.49 C19.96 50.94, 28.26 41.39, 44.46 22.75 M11.66 60.49 C21.96 48.64, 32.26 36.79, 44.46 22.75 M8.77 69.9 C26.26 49.79, 43.74 29.67, 53.39 18.58 M8.77 69.9 C25.56 50.59, 42.35 31.27, 53.39 18.58 M5.23 80.07 C20.65 62.34, 36.07 44.6, 62.96 13.66 M5.23 80.07 C17.86 65.55, 30.49 51.02, 62.96 13.66 M3 88.74 C18.71 70.66, 34.43 52.58, 71.89 9.49 M3 88.74 C22.61 66.18, 42.21 43.63, 71.89 9.49 M1.43 96.64 C31.31 62.26, 61.2 27.88, 80.16 6.08 M1.43 96.64 C30.36 63.36, 59.29 30.08, 80.16 6.08 M3.14 100.78 C37.22 61.57, 71.3 22.37, 89.08 1.91 M3.14 100.78 C32.8 66.65, 62.46 32.53, 89.08 1.91 M0.91 109.44 C23.41 83.55, 45.91 57.67, 94.72 1.51 M0.91 109.44 C20.97 86.35, 41.04 63.27, 94.72 1.51 M1.3 115.08 C37.93 72.95, 74.55 30.81, 99.71 1.87 M1.3 115.08 C23.27 89.81, 45.24 64.54, 99.71 1.87 M2.35 119.97 C30.52 87.57, 58.69 55.16, 105.35 1.48 M2.35 119.97 C34.28 83.24, 66.2 46.52, 105.35 1.48 M3.4 124.86 C30.83 93.3, 58.27 61.74, 110.34 1.84 M3.4 124.86 C28.28 96.24, 53.16 67.62, 110.34 1.84 M4.45 129.75 C46.89 80.93, 89.32 32.12, 115.33 2.2 M4.45 129.75 C27.3 103.46, 50.15 77.17, 115.33 2.2 M5.5 134.63 C37.37 97.97, 69.24 61.31, 120.31 2.56 M5.5 134.63 C32.55 103.52, 59.59 72.41, 120.31 2.56 M6.55 139.52 C35.82 105.86, 65.09 72.19, 125.3 2.92 M6.55 139.52 C48.26 91.54, 89.97 43.56, 125.3 2.92 M7.6 144.41 C43.19 103.48, 78.77 62.55, 130.29 3.28 M7.6 144.41 C49.64 96.06, 91.67 47.71, 130.29 3.28 M9.31 148.55 C36.89 116.82, 64.46 85.1, 134.62 4.4 M9.31 148.55 C58.53 91.93, 107.74 35.31, 134.62 4.4 M11.02 152.68 C46.2 112.21, 81.38 71.74, 138.95 5.51 M11.02 152.68 C38.25 121.36, 65.47 90.03, 138.95 5.51 M12.07 157.57 C42.97 122.02, 73.87 86.47, 143.28 6.63 M12.07 157.57 C48.33 115.85, 84.6 74.13, 143.28 6.63 M14.43 160.95 C46.42 124.14, 78.42 87.34, 147.61 7.74 M14.43 160.95 C61.54 106.75, 108.65 52.56, 147.61 7.74 M16.14 165.08 C56.86 118.24, 97.58 71.4, 151.29 9.61 M16.14 165.08 C62.95 111.23, 109.75 57.39, 151.29 9.61 M19.16 167.7 C62.83 117.47, 106.5 67.23, 155.62 10.72 M19.16 167.7 C49.35 132.97, 79.54 98.25, 155.62 10.72 M21.52 171.08 C49.29 139.14, 77.05 107.2, 158.64 13.35 M21.52 171.08 C55.15 132.39, 88.79 93.7, 158.64 13.35 M23.23 175.22 C61.51 131.17, 99.8 87.13, 162.31 15.22 M23.23 175.22 C67.69 124.06, 112.16 72.91, 162.31 15.22 M26.24 177.84 C54.31 145.56, 82.37 113.28, 165.99 17.09 M26.24 177.84 C56.19 143.39, 86.14 108.93, 165.99 17.09 M28.61 181.22 C84.09 117.39, 139.58 53.56, 169.66 18.96 M28.61 181.22 C71.2 132.22, 113.8 83.22, 169.66 18.96 M31.63 183.84 C78.8 129.58, 125.96 75.32, 172.68 21.58 M31.63 183.84 C87.05 120.08, 142.48 56.32, 172.68 21.58 M33.99 187.22 C89.02 123.92, 144.05 60.62, 175.7 24.21 M33.99 187.22 C72.15 143.33, 110.31 99.43, 175.7 24.21 M37.01 189.85 C82.08 138, 127.15 86.15, 178.72 26.83 M37.01 189.85 C82.23 137.82, 127.46 85.79, 178.72 26.83 M40.03 192.47 C82.83 143.23, 125.64 93.98, 182.39 28.7 M40.03 192.47 C78.65 148.04, 117.27 103.61, 182.39 28.7 M43.05 195.1 C77.49 155.47, 111.94 115.84, 184.75 32.08 M43.05 195.1 C75.54 157.71, 108.04 120.33, 184.75 32.08 M46.72 196.97 C102.8 132.45, 158.88 67.94, 187.77 34.7 M46.72 196.97 C75.8 163.52, 104.87 130.07, 187.77 34.7 M49.74 199.59 C88.87 154.57, 128 109.56, 190.79 37.33 M49.74 199.59 C100.28 141.45, 150.82 83.31, 190.79 37.33 M53.41 201.46 C91.51 157.63, 129.61 113.8, 193.15 40.71 M53.41 201.46 C98.18 149.96, 142.95 98.46, 193.15 40.71 M56.43 204.08 C107.27 145.6, 158.1 87.13, 195.52 44.08 M56.43 204.08 C89.72 165.79, 123.01 127.49, 195.52 44.08 M60.76 205.2 C108.23 150.6, 155.69 96, 197.88 47.46 M60.76 205.2 C103.13 156.46, 145.5 107.72, 197.88 47.46 M64.44 207.07 C109.03 155.77, 153.62 104.48, 200.24 50.84 M64.44 207.07 C92.17 175.16, 119.91 143.26, 200.24 50.84 M68.11 208.94 C117.43 152.21, 166.75 95.47, 203.26 53.47 M68.11 208.94 C97.23 175.44, 126.35 141.95, 203.26 53.47 M71.79 210.81 C120.2 155.11, 168.62 99.42, 204.97 57.6 M71.79 210.81 C109.48 167.45, 147.17 124.09, 204.97 57.6 M75.46 212.68 C115.12 167.05, 154.78 121.43, 206.68 61.73 M75.46 212.68 C118.97 162.63, 162.48 112.58, 206.68 61.73 M79.79 213.79 C124.18 162.73, 168.57 111.67, 208.38 65.87 M79.79 213.79 C118.93 168.77, 158.07 123.75, 208.38 65.87 M84.13 214.91 C116.64 177.5, 149.15 140.1, 210.09 70 M84.13 214.91 C121.62 171.77, 159.12 128.63, 210.09 70 M89.11 215.27 C128.87 169.53, 168.63 123.79, 211.8 74.14 M89.11 215.27 C137.61 159.48, 186.1 103.7, 211.8 74.14 M94.1 215.63 C136.73 166.58, 179.36 117.54, 212.85 79.02 M94.1 215.63 C118.15 187.95, 142.21 160.28, 212.85 79.02 M98.43 216.74 C124.69 186.53, 150.95 156.32, 213.9 83.91 M98.43 216.74 C130.9 179.39, 163.37 142.03, 213.9 83.91 M104.07 216.35 C132.68 183.44, 161.28 150.54, 214.95 88.8 M104.07 216.35 C135.49 180.2, 166.91 144.06, 214.95 88.8 M109.06 216.71 C147.46 172.53, 185.86 128.36, 216 93.69 M109.06 216.71 C150.35 169.21, 191.63 121.72, 216 93.69 M114.05 217.07 C138.21 189.27, 162.38 161.47, 217.05 98.58 M114.05 217.07 C137.29 190.32, 160.54 163.58, 217.05 98.58 M119.69 216.67 C148.77 183.22, 177.84 149.78, 216.79 104.97 M119.69 216.67 C151.95 179.56, 184.2 142.46, 216.79 104.97 M125.33 216.28 C152.63 184.87, 179.93 153.47, 217.84 109.86 M125.33 216.28 C149.72 188.22, 174.11 160.17, 217.84 109.86 M130.32 216.64 C148.25 196.01, 166.18 175.39, 217.58 116.26 M130.32 216.64 C151.3 192.51, 172.27 168.38, 217.58 116.26 M138.59 213.22 C160.38 188.16, 182.17 163.09, 218.63 121.15 M138.59 213.22 C160.97 187.47, 183.36 161.72, 218.63 121.15 M147.51 209.06 C168.91 184.44, 190.31 159.82, 216.4 129.81 M147.51 209.06 C163.34 190.84, 179.18 172.63, 216.4 129.81 M155.78 205.64 C174.56 184.04, 193.33 162.44, 213.51 139.23 M155.78 205.64 C173.37 185.4, 190.97 165.16, 213.51 139.23 M165.36 200.72 C175.55 189, 185.74 177.27, 210.63 148.64 M165.36 200.72 C179.76 184.15, 194.17 167.58, 210.63 148.64 M181.5 188.25 C186.22 182.82, 190.95 177.38, 201.18 165.61 M181.5 188.25 C185.79 183.31, 190.09 178.37, 201.18 165.61" stroke="#b2f2bb" stroke-width="0.5" fill="none"></path><path d="M216.43 108.21 C216.43 111.54, 216.27 114.88, 215.97 118.2 C215.66 121.51, 215.2 124.83, 214.59 128.1 C213.97 131.37, 213.21 134.63, 212.3 137.83 C211.39 141.03, 210.32 144.2, 209.12 147.31 C207.92 150.41, 206.57 153.47, 205.08 156.45 C203.6 159.43, 201.97 162.35, 200.22 165.18 C198.47 168.01, 196.58 170.77, 194.57 173.43 C192.57 176.08, 190.43 178.66, 188.19 181.12 C185.94 183.58, 183.58 185.94, 181.12 188.19 C178.66 190.43, 176.08 192.57, 173.43 194.57 C170.77 196.58, 168.01 198.47, 165.18 200.22 C162.35 201.97, 159.43 203.6, 156.45 205.08 C153.47 206.57, 150.41 207.92, 147.31 209.12 C144.2 210.32, 141.03 211.39, 137.83 212.3 C134.63 213.21, 131.37 213.97, 128.1 214.59 C124.83 215.2, 121.51 215.66, 118.2 215.97 C114.88 216.27, 111.54 216.43, 108.21 216.43 C104.89 216.43, 101.54 216.27, 98.23 215.97 C94.92 215.66, 91.6 215.2, 88.33 214.59 C85.06 213.97, 81.8 213.21, 78.6 212.3 C75.4 211.39, 72.23 210.32, 69.12 209.12 C66.02 207.92, 62.96 206.57, 59.98 205.08 C57 203.6, 54.08 201.97, 51.25 200.22 C48.42 198.47, 45.66 196.58, 43 194.57 C40.34 192.57, 37.77 190.43, 35.31 188.19 C32.85 185.94, 30.49 183.58, 28.24 181.12 C26 178.66, 23.86 176.08, 21.86 173.43 C19.85 170.77, 17.96 168.01, 16.21 165.18 C14.46 162.35, 12.83 159.43, 11.34 156.45 C9.86 153.47, 8.51 150.41, 7.31 147.31 C6.11 144.2, 5.04 141.03, 4.13 137.83 C3.22 134.63, 2.45 131.37, 1.84 128.1 C1.23 124.83, 0.77 121.51, 0.46 118.2 C0.15 114.88, 0 111.54, 0 108.21 C0 104.89, 0.15 101.54, 0.46 98.23 C0.77 94.92, 1.23 91.6, 1.84 88.33 C2.45 85.06, 3.22 81.8, 4.13 78.6 C5.04 75.4, 6.11 72.23, 7.31 69.12 C8.51 66.02, 9.86 62.96, 11.34 59.98 C12.83 57, 14.46 54.08, 16.21 51.25 C17.96 48.42, 19.85 45.66, 21.86 43 C23.86 40.34, 26 37.77, 28.24 35.31 C30.49 32.85, 32.85 30.49, 35.31 28.24 C37.77 26, 40.34 23.86, 43 21.86 C45.66 19.85, 48.42 17.96, 51.25 16.21 C54.08 14.46, 57 12.83, 59.98 11.34 C62.96 9.86, 66.02 8.51, 69.12 7.31 C72.23 6.11, 75.4 5.04, 78.6 4.13 C81.8 3.22, 85.06 2.45, 88.33 1.84 C91.6 1.23, 94.92 0.77, 98.23 0.46 C101.54 0.15, 104.89 0, 108.21 0 C111.54 0, 114.88 0.15, 118.2 0.46 C121.51 0.77, 124.83 1.23, 128.1 1.84 C131.37 2.45, 134.63 3.22, 137.83 4.13 C141.03 5.04, 144.2 6.11, 147.31 7.31 C150.41 8.51, 153.47 9.86, 156.45 11.34 C159.43 12.83, 162.35 14.46, 165.18 16.21 C168.01 17.96, 170.77 19.85, 173.43 21.86 C176.08 23.86, 178.66 26, 181.12 28.24 C183.58 30.49, 185.94 32.85, 188.19 35.31 C190.43 37.77, 192.57 40.34, 194.57 43 C196.58 45.66, 198.47 48.42, 200.22 51.25 C201.97 54.08, 203.6 57, 205.08 59.98 C206.57 62.96, 207.92 66.02, 209.12 69.12 C210.32 72.23, 211.39 75.4, 212.3 78.6 C213.21 81.8, 213.97 85.06, 214.59 88.33 C215.2 91.6, 215.66 94.92, 215.97 98.23 C216.27 101.54, 216.35 106.55, 216.43 108.21 C216.51 109.88, 216.51 106.55, 216.43 108.21" stroke="#1e1e1e" stroke-width="1" fill="none"></path></g></g><g clip-path="url(#Yl5sGIF2xFwhY6ny5Dos8)"><g transform="translate(809.6533447461552 503.7117663649051) rotate(0 46.875 12)"><text x="46.875" y="0" font-family="Cascadia, Segoe UI Emoji" font-size="20px" fill="#1e1e1e" text-anchor="middle" style="white-space: pre;" direction="ltr" dominant-baseline="text-before-edge">notEmpty</text></g></g><g clip-path="url(#Yl5sGIF2xFwhY6ny5Dos8)"><g stroke-linecap="round" transform="translate(1125.3784914484695 406.7427263766397) rotate(0 108.21428571428578 108.2142857142859)"><path d="M28.32 35.22 C28.32 35.22, 28.32 35.22, 28.32 35.22 M28.32 35.22 C28.32 35.22, 28.32 35.22, 28.32 35.22 M11.66 60.49 C19.05 51.98, 26.45 43.47, 44.46 22.75 M11.66 60.49 C21.53 49.13, 31.4 37.77, 44.46 22.75 M8.77 69.9 C18.19 59.07, 27.61 48.23, 53.39 18.58 M8.77 69.9 C23.62 52.82, 38.47 35.74, 53.39 18.58 M5.23 80.07 C26.79 55.27, 48.36 30.47, 62.96 13.66 M5.23 80.07 C21.68 61.15, 38.13 42.23, 62.96 13.66 M3 88.74 C25.23 63.16, 47.46 37.59, 71.89 9.49 M3 88.74 C26.87 61.28, 50.74 33.82, 71.89 9.49 M1.43 96.64 C25.94 68.44, 50.45 40.24, 80.16 6.08 M1.43 96.64 C30.5 63.2, 59.57 29.76, 80.16 6.08 M3.14 100.78 C24.62 76.06, 46.11 51.34, 89.08 1.91 M3.14 100.78 C20.46 80.85, 37.78 60.92, 89.08 1.91 M0.91 109.44 C21.79 85.41, 42.68 61.38, 94.72 1.51 M0.91 109.44 C31.22 74.57, 61.53 39.7, 94.72 1.51 M1.3 115.08 C31.07 80.84, 60.83 46.6, 99.71 1.87 M1.3 115.08 C38.59 72.18, 75.88 29.29, 99.71 1.87 M2.35 119.97 C29.9 88.28, 57.44 56.59, 105.35 1.48 M2.35 119.97 C24.41 94.6, 46.46 69.22, 105.35 1.48 M3.4 124.86 C26.49 98.3, 49.58 71.74, 110.34 1.84 M3.4 124.86 C25.64 99.27, 47.89 73.69, 110.34 1.84 M4.45 129.75 C35.75 93.74, 67.06 57.73, 115.33 2.2 M4.45 129.75 C38.65 90.4, 72.85 51.06, 115.33 2.2 M5.5 134.63 C34.52 101.25, 63.54 67.87, 120.31 2.56 M5.5 134.63 C47.58 86.23, 89.67 37.82, 120.31 2.56 M6.55 139.52 C39.87 101.2, 73.18 62.87, 125.3 2.92 M6.55 139.52 C50.56 88.9, 94.57 38.27, 125.3 2.92 M7.6 144.41 C44.65 101.79, 81.71 59.17, 130.29 3.28 M7.6 144.41 C54.32 90.67, 101.04 36.92, 130.29 3.28 M9.31 148.55 C53.41 97.82, 97.5 47.09, 134.62 4.4 M9.31 148.55 C54.86 96.15, 100.41 43.75, 134.62 4.4 M11.02 152.68 C59.53 96.87, 108.04 41.07, 138.95 5.51 M11.02 152.68 C52.66 104.77, 94.3 56.87, 138.95 5.51 M12.07 157.57 C59.66 102.82, 107.24 48.08, 143.28 6.63 M12.07 157.57 C57.81 104.95, 103.54 52.34, 143.28 6.63 M14.43 160.95 C57.91 110.93, 101.39 60.91, 147.61 7.74 M14.43 160.95 C57.55 111.35, 100.66 61.75, 147.61 7.74 M16.14 165.08 C50.71 125.31, 85.27 85.55, 151.29 9.61 M16.14 165.08 C68.26 105.12, 120.38 45.16, 151.29 9.61 M19.16 167.7 C61.8 118.65, 104.44 69.6, 155.62 10.72 M19.16 167.7 C52.87 128.92, 86.58 90.14, 155.62 10.72 M21.52 171.08 C69.6 115.77, 117.69 60.45, 158.64 13.35 M21.52 171.08 C53.47 134.33, 85.43 97.57, 158.64 13.35 M23.23 175.22 C69.47 122.02, 115.71 68.83, 162.31 15.22 M23.23 175.22 C53.2 140.74, 83.16 106.27, 162.31 15.22 M26.24 177.84 C60.26 138.71, 94.27 99.59, 165.99 17.09 M26.24 177.84 C60.82 138.07, 95.39 98.3, 165.99 17.09 M28.61 181.22 C72.09 131.2, 115.56 81.19, 169.66 18.96 M28.61 181.22 C70.56 132.96, 112.51 84.7, 169.66 18.96 M31.63 183.84 C74.86 134.11, 118.09 84.37, 172.68 21.58 M31.63 183.84 C71.68 137.77, 111.73 91.7, 172.68 21.58 M33.99 187.22 C88.99 123.95, 144 60.67, 175.7 24.21 M33.99 187.22 C63.71 153.03, 93.43 118.84, 175.7 24.21 M37.01 189.85 C92.16 126.41, 147.3 62.97, 178.72 26.83 M37.01 189.85 C93.15 125.26, 149.3 60.67, 178.72 26.83 M40.03 192.47 C75.21 151.99, 110.4 111.52, 182.39 28.7 M40.03 192.47 C71.03 156.81, 102.03 121.14, 182.39 28.7 M43.05 195.1 C87.98 143.41, 132.91 91.72, 184.75 32.08 M43.05 195.1 C90.69 140.28, 138.34 85.47, 184.75 32.08 M46.72 196.97 C101.27 134.22, 155.81 71.47, 187.77 34.7 M46.72 196.97 C79.9 158.79, 113.08 120.62, 187.77 34.7 M49.74 199.59 C105.1 135.91, 160.46 72.22, 190.79 37.33 M49.74 199.59 C85.64 158.29, 121.54 116.99, 190.79 37.33 M53.41 201.46 C86.24 163.7, 119.06 125.94, 193.15 40.71 M53.41 201.46 C98.74 149.32, 144.06 97.18, 193.15 40.71 M56.43 204.08 C97.36 157, 138.28 109.92, 195.52 44.08 M56.43 204.08 C112.05 140.1, 167.68 76.11, 195.52 44.08 M60.76 205.2 C94.53 166.35, 128.3 127.5, 197.88 47.46 M60.76 205.2 C115.02 142.78, 169.27 80.37, 197.88 47.46 M64.44 207.07 C115.74 148.05, 167.04 89.03, 200.24 50.84 M64.44 207.07 C94.29 172.73, 124.13 138.4, 200.24 50.84 M68.11 208.94 C95.43 177.52, 122.74 146.1, 203.26 53.47 M68.11 208.94 C109.79 161, 151.46 113.06, 203.26 53.47 M71.79 210.81 C121.73 153.36, 171.67 95.91, 204.97 57.6 M71.79 210.81 C106.4 170.99, 141.02 131.17, 204.97 57.6 M75.46 212.68 C116.15 165.88, 156.83 119.08, 206.68 61.73 M75.46 212.68 C123.98 156.86, 172.51 101.04, 206.68 61.73 M79.79 213.79 C117.66 170.24, 155.52 126.68, 208.38 65.87 M79.79 213.79 C113.8 174.67, 147.81 135.54, 208.38 65.87 M84.13 214.91 C122.48 170.79, 160.83 126.67, 210.09 70 M84.13 214.91 C113.85 180.71, 143.58 146.52, 210.09 70 M89.11 215.27 C128.52 169.93, 167.92 124.6, 211.8 74.14 M89.11 215.27 C123 176.29, 156.88 137.31, 211.8 74.14 M94.1 215.63 C135.21 168.34, 176.31 121.05, 212.85 79.02 M94.1 215.63 C119.19 186.77, 144.27 157.91, 212.85 79.02 M98.43 216.74 C135.02 174.65, 171.62 132.55, 213.9 83.91 M98.43 216.74 C137.24 172.1, 176.04 127.46, 213.9 83.91 M104.07 216.35 C139.84 175.2, 175.62 134.05, 214.95 88.8 M104.07 216.35 C142.71 171.9, 181.35 127.45, 214.95 88.8 M109.06 216.71 C143.26 177.37, 177.46 138.03, 216 93.69 M109.06 216.71 C150.09 169.5, 191.13 122.3, 216 93.69 M114.05 217.07 C149.87 175.85, 185.7 134.64, 217.05 98.58 M114.05 217.07 C149.98 175.73, 185.91 134.4, 217.05 98.58 M119.69 216.67 C143.44 189.35, 167.19 162.03, 216.79 104.97 M119.69 216.67 C154.36 176.79, 189.02 136.92, 216.79 104.97 M125.33 216.28 C149.59 188.37, 173.86 160.46, 217.84 109.86 M125.33 216.28 C149.57 188.39, 173.81 160.51, 217.84 109.86 M130.32 216.64 C163.71 178.23, 197.1 139.81, 217.58 116.26 M130.32 216.64 C155.84 187.28, 181.35 157.93, 217.58 116.26 M138.59 213.22 C165.25 182.55, 191.91 151.88, 218.63 121.15 M138.59 213.22 C169.5 177.67, 200.41 142.11, 218.63 121.15 M147.51 209.06 C168.31 185.13, 189.11 161.2, 216.4 129.81 M147.51 209.06 C163 191.24, 178.48 173.43, 216.4 129.81 M155.78 205.64 C176.22 182.13, 196.66 158.61, 213.51 139.23 M155.78 205.64 C177.02 181.21, 198.25 156.78, 213.51 139.23 M165.36 200.72 C181.06 182.66, 196.75 164.6, 210.63 148.64 M165.36 200.72 C178.37 185.76, 191.37 170.79, 210.63 148.64 M181.5 188.25 C188.29 180.43, 195.09 172.61, 201.18 165.61 M181.5 188.25 C187.44 181.41, 193.39 174.57, 201.18 165.61" stroke="#a5d8ff" stroke-width="0.5" fill="none"></path><path d="M216.43 108.21 C216.43 111.54, 216.27 114.88, 215.97 118.2 C215.66 121.51, 215.2 124.83, 214.59 128.1 C213.97 131.37, 213.21 134.63, 212.3 137.83 C211.39 141.03, 210.32 144.2, 209.12 147.31 C207.92 150.41, 206.57 153.47, 205.08 156.45 C203.6 159.43, 201.97 162.35, 200.22 165.18 C198.47 168.01, 196.58 170.77, 194.57 173.43 C192.57 176.08, 190.43 178.66, 188.19 181.12 C185.94 183.58, 183.58 185.94, 181.12 188.19 C178.66 190.43, 176.08 192.57, 173.43 194.57 C170.77 196.58, 168.01 198.47, 165.18 200.22 C162.35 201.97, 159.43 203.6, 156.45 205.08 C153.47 206.57, 150.41 207.92, 147.31 209.12 C144.2 210.32, 141.03 211.39, 137.83 212.3 C134.63 213.21, 131.37 213.97, 128.1 214.59 C124.83 215.2, 121.51 215.66, 118.2 215.97 C114.88 216.27, 111.54 216.43, 108.21 216.43 C104.89 216.43, 101.54 216.27, 98.23 215.97 C94.92 215.66, 91.6 215.2, 88.33 214.59 C85.06 213.97, 81.8 213.21, 78.6 212.3 C75.4 211.39, 72.23 210.32, 69.12 209.12 C66.02 207.92, 62.96 206.57, 59.98 205.08 C57 203.6, 54.08 201.97, 51.25 200.22 C48.42 198.47, 45.66 196.58, 43 194.57 C40.34 192.57, 37.77 190.43, 35.31 188.19 C32.85 185.94, 30.49 183.58, 28.24 181.12 C26 178.66, 23.86 176.08, 21.86 173.43 C19.85 170.77, 17.96 168.01, 16.21 165.18 C14.46 162.35, 12.83 159.43, 11.34 156.45 C9.86 153.47, 8.51 150.41, 7.31 147.31 C6.11 144.2, 5.04 141.03, 4.13 137.83 C3.22 134.63, 2.45 131.37, 1.84 128.1 C1.23 124.83, 0.77 121.51, 0.46 118.2 C0.15 114.88, 0 111.54, 0 108.21 C0 104.89, 0.15 101.54, 0.46 98.23 C0.77 94.92, 1.23 91.6, 1.84 88.33 C2.45 85.06, 3.22 81.8, 4.13 78.6 C5.04 75.4, 6.11 72.23, 7.31 69.12 C8.51 66.02, 9.86 62.96, 11.34 59.98 C12.83 57, 14.46 54.08, 16.21 51.25 C17.96 48.42, 19.85 45.66, 21.86 43 C23.86 40.34, 26 37.77, 28.24 35.31 C30.49 32.85, 32.85 30.49, 35.31 28.24 C37.77 26, 40.34 23.86, 43 21.86 C45.66 19.85, 48.42 17.96, 51.25 16.21 C54.08 14.46, 57 12.83, 59.98 11.34 C62.96 9.86, 66.02 8.51, 69.12 7.31 C72.23 6.11, 75.4 5.04, 78.6 4.13 C81.8 3.22, 85.06 2.45, 88.33 1.84 C91.6 1.23, 94.92 0.77, 98.23 0.46 C101.54 0.15, 104.89 0, 108.21 0 C111.54 0, 114.88 0.15, 118.2 0.46 C121.51 0.77, 124.83 1.23, 128.1 1.84 C131.37 2.45, 134.63 3.22, 137.83 4.13 C141.03 5.04, 144.2 6.11, 147.31 7.31 C150.41 8.51, 153.47 9.86, 156.45 11.34 C159.43 12.83, 162.35 14.46, 165.18 16.21 C168.01 17.96, 170.77 19.85, 173.43 21.86 C176.08 23.86, 178.66 26, 181.12 28.24 C183.58 30.49, 185.94 32.85, 188.19 35.31 C190.43 37.77, 192.57 40.34, 194.57 43 C196.58 45.66, 198.47 48.42, 200.22 51.25 C201.97 54.08, 203.6 57, 205.08 59.98 C206.57 62.96, 207.92 66.02, 209.12 69.12 C210.32 72.23, 211.39 75.4, 212.3 78.6 C213.21 81.8, 213.97 85.06, 214.59 88.33 C215.2 91.6, 215.66 94.92, 215.97 98.23 C216.27 101.54, 216.35 106.55, 216.43 108.21 C216.51 109.88, 216.51 106.55, 216.43 108.21" stroke="#1e1e1e" stroke-width="1" fill="none"></path></g></g><g clip-path="url(#Yl5sGIF2xFwhY6ny5Dos8)"><g transform="translate(1210.136221912926 502.93795684109546) rotate(0 23.4375 12)"><text x="23.4375" y="0" font-family="Cascadia, Segoe UI Emoji" font-size="20px" fill="#1e1e1e" text-anchor="middle" style="white-space: pre;" direction="ltr" dominant-baseline="text-before-edge">enum</text></g></g><g clip-path="url(#Yl5sGIF2xFwhY6ny5Dos8)"><g stroke-linecap="round"><g transform="translate(1121.1869467587603 473.0906935412579) rotate(0 5.908434475622471 0.24005449291972525)"><path d="M0 0 C1.97 0.08, 9.85 0.4, 11.82 0.48 M0 0 C1.97 0.08, 9.85 0.4, 11.82 0.48" stroke="#1e1e1e" stroke-width="2" fill="none"></path></g></g><mask></mask></g><g clip-path="url(#Yl5sGIF2xFwhY6ny5Dos8)"><g transform="translate(1052.2753911135042 462.6110162953182) rotate(0 32.8125 9.600000000000001)"><text x="0" y="0" font-family="Cascadia, Segoe UI Emoji" font-size="16px" fill="#1e1e1e" text-anchor="start" style="white-space: pre;" direction="ltr" dominant-baseline="text-before-edge">allowed</text></g></g><g clip-path="url(#Yl5sGIF2xFwhY6ny5Dos8)"><g stroke-linecap="round" transform="translate(1047.5972609244473 459.1728469044274) rotate(0 48.573050932781825 13.519163227381966)"><path d="M6.76 0 M6.76 0 C37.58 0, 68.4 0, 90.39 0 M90.39 0 C94.89 0, 97.15 2.25, 97.15 6.76 M97.15 6.76 C97.15 11.69, 97.15 16.61, 97.15 20.28 M97.15 20.28 C97.15 24.79, 94.89 27.04, 90.39 27.04 M90.39 27.04 C72.51 27.04, 54.63 27.04, 6.76 27.04 M6.76 27.04 C2.25 27.04, 0 24.79, 0 20.28 M0 20.28 C0 16.56, 0 12.84, 0 6.76 M0 6.76 C0 2.25, 2.25 0, 6.76 0" stroke="#1e1e1e" stroke-width="1.5" fill="none" stroke-dasharray="8 9"></path></g></g><g clip-path="url(#Yl5sGIF2xFwhY6ny5Dos8)"><g transform="translate(1404.236636107098 355.71955177346547) rotate(0 74.50103759765625 152.58666666666647)"><text x="0" y="0" font-family="Cascadia, Segoe UI Emoji" font-size="254.3111111111108px" fill="#1e1e1e" text-anchor="start" style="white-space: pre;" direction="ltr" dominant-baseline="text-before-edge">)</text></g></g><g clip-path="url(#Yl5sGIF2xFwhY6ny5Dos8)"><g transform="translate(632.8080646785256 365.36240891632264) rotate(0 74.50103759765625 152.58666666666647)"><text x="0" y="0" font-family="Cascadia, Segoe UI Emoji" font-size="254.3111111111108px" fill="#1e1e1e" text-anchor="start" style="white-space: pre;" direction="ltr" dominant-baseline="text-before-edge">[</text></g></g><g clip-path="url(#Yl5sGIF2xFwhY6ny5Dos8)"><g transform="translate(1314.2408068427721 353.5766946306083) rotate(0 74.50103759765625 152.58666666666647)"><text x="0" y="0" font-family="Cascadia, Segoe UI Emoji" font-size="254.3111111111108px" fill="#1e1e1e" text-anchor="start" style="white-space: pre;" direction="ltr" dominant-baseline="text-before-edge">]</text></g></g><g clip-path="url(#Yl5sGIF2xFwhY6ny5Dos8)"><g transform="translate(204.2772320519307 702.2613061695868) rotate(0 576.2946166992188 26.452137579474226)"><text x="0" y="0" font-family="Virgil, Segoe UI Emoji" font-size="42.32342012715877px" fill="#1e1e1e" text-anchor="start" style="white-space: pre;" direction="ltr" dominant-baseline="text-before-edge">input should not be empty &amp; should be a item from list</text></g></g></svg>